<svg width="14" height="23" viewBox="0 0 14 23" fill="none" xmlns="http://www.w3.org/2000/svg">
<path d="M13.3791 0.601928C13.1824 0.411119 12.9487 0.259739 12.6915 0.156452C12.4343 0.0531654 12.1586 0 11.8801 0C11.6017 0 11.3259 0.0531654 11.0687 0.156452C10.8115 0.259739 10.5778 0.411119 10.3811 0.601928L0.6218 10.0494C0.424692 10.2398 0.268314 10.466 0.161617 10.715C0.0549206 10.9639 0 11.2309 0 11.5004C0 11.77 0.0549206 12.0369 0.161617 12.2859C0.268314 12.5349 0.424692 12.7611 0.6218 12.9515L10.3811 22.3989C10.578 22.5895 10.8117 22.7407 11.0689 22.8438C11.3261 22.9469 11.6017 23 11.8801 23C12.1585 23 12.4342 22.9469 12.6914 22.8438C12.9486 22.7407 13.1823 22.5895 13.3791 22.3989C13.576 22.2084 13.7321 21.9822 13.8386 21.7332C13.9452 21.4842 14 21.2174 14 20.9479C14 20.6784 13.9452 20.4115 13.8386 20.1626C13.7321 19.9136 13.576 19.6874 13.3791 19.4968L5.12938 11.4901L13.3791 3.50408C14.2083 2.70136 14.1871 1.38407 13.3791 0.601928Z" fill="#30373E"/>
</svg>
