<svg width="19" height="26" viewBox="0 0 19 26" fill="none" xmlns="http://www.w3.org/2000/svg">
<path d="M17.3913 11.4324L10.3941 0.453987C10.2925 0.313594 10.1584 0.199143 10.0029 0.120173C9.84738 0.0412022 9.67496 0 9.5 0C9.32504 0 9.15262 0.0412022 8.9971 0.120173C8.84158 0.199143 8.70747 0.313594 8.60594 0.453987L1.577 11.4844C0.60049 13.0364 0.0565417 14.8146 0 16.6398C0 19.1223 1.00089 21.5031 2.78249 23.2585C4.56408 25.0138 6.98044 26 9.5 26C12.0196 26 14.4359 25.0138 16.2175 23.2585C17.9991 21.5031 19 19.1223 19 16.6398C18.9393 14.7946 18.3843 12.9981 17.3913 11.4324ZM9.5 23.92C7.54112 23.9175 5.66318 23.1497 4.27804 21.7849C2.8929 20.4202 2.11362 18.5699 2.11111 16.6398C2.16722 15.1854 2.61061 13.7712 3.39678 12.539L4.38372 10.9894L15.0174 21.4666C14.3267 22.2375 13.4777 22.855 12.5265 23.2782C11.5753 23.7013 10.5437 23.9194 9.5 23.92Z" fill="#30373E"/>
</svg>
