<svg width="11" height="14" viewBox="0 0 11 14" fill="none" xmlns="http://www.w3.org/2000/svg">
<path d="M0.123853 7.87597C0.203259 7.79229 0.310898 7.74529 0.423125 7.74529C0.535352 7.74529 0.642991 7.79229 0.722397 7.87597L5.0816 12.4745L5.0816 0.446822C5.0816 0.328317 5.12622 0.214666 5.20564 0.130871C5.28506 0.047076 5.39278 7.47775e-07 5.5051 7.57595e-07C5.61742 7.67414e-07 5.72513 0.0470761 5.80455 0.130871C5.88398 0.214666 5.92859 0.328318 5.92859 0.446822L5.92859 12.4745L10.2878 7.87597C10.3681 7.79704 10.4743 7.75407 10.584 7.75611C10.6937 7.75816 10.7984 7.80505 10.876 7.88692C10.9536 7.96878 10.998 8.07923 10.9999 8.19498C11.0019 8.31074 10.9611 8.42277 10.8863 8.50747L5.80437 13.8693C5.72496 13.953 5.61732 14 5.5051 14C5.39287 14 5.28523 13.953 5.20582 13.8693L0.123853 8.50747C0.0445456 8.42369 -4.18459e-08 8.31013 -3.14944e-08 8.19172C-2.11428e-08 8.07331 0.0445457 7.95974 0.123853 7.87597Z" fill="#30373E"/>
</svg>
