<svg width="386" height="386" viewBox="0 0 386 386" fill="none" xmlns="http://www.w3.org/2000/svg">
<path opacity="0.2" fill-rule="evenodd" clip-rule="evenodd" d="M193.373 327.465C211.08 327.465 228.614 323.978 244.974 317.201C261.333 310.425 276.198 300.493 288.719 287.972C301.24 275.451 311.172 260.587 317.948 244.227C324.724 227.868 328.212 210.334 328.212 192.627C328.212 174.919 324.724 157.386 317.948 141.026C311.172 124.667 301.24 109.802 288.719 97.2814C276.198 84.7604 261.333 74.8283 244.974 68.052C228.614 61.2757 211.08 57.788 193.373 57.788C157.612 57.788 123.315 71.9942 98.0278 97.2814C72.7407 122.569 58.5345 156.865 58.5345 192.627C58.5345 228.388 72.7407 262.685 98.0278 287.972C123.315 313.259 157.612 327.465 193.373 327.465ZM193.373 385.253C299.761 385.253 386 299.014 386 192.627C386 86.239 299.761 0 193.373 0C86.9855 0 0.74646 86.239 0.74646 192.627C0.74646 299.014 86.9855 385.253 193.373 385.253Z" fill="#30373E"/>
<path fill-rule="evenodd" clip-rule="evenodd" d="M191.945 0.00518054V-4.6385e-05L192.659 -4.64162e-05C192.723 -4.6419e-05 192.787 0.000200055 192.851 0.000691988C193.025 0.000230759 193.199 0 193.373 0V0.0102002C223.004 0.864523 223.958 54.8637 193.373 57.7058V57.788C192.95 57.788 192.527 57.79 192.105 57.794C186.323 58.0983 182.652 58.2908 180.512 58.4024C149.471 61.3756 120.265 75.0437 98.0278 97.2814C72.7407 122.569 58.5345 156.865 58.5345 192.627H58.5303V193.325C58.5303 224.001 2.42668 224.892 0.746675 192.969C-0.922456 161.252 0.725073 192.206 0.746461 192.608C0.756572 86.7052 86.2212 0.772607 191.945 0.00518054ZM191.657 57.7989C187.988 57.8456 184.336 58.0416 180.709 58.3837C184.274 58.1921 190.279 57.8723 191.657 57.7989Z" fill="#30373E"/>
</svg>
