<svg width="34" height="34" viewBox="0 0 34 34" fill="none" xmlns="http://www.w3.org/2000/svg">
<path d="M15.75 4.5V1.125C15.75 0.826631 15.8685 0.540483 16.0795 0.329505C16.2905 0.118526 16.5766 0 16.875 0C17.1734 0 17.4595 0.118526 17.6705 0.329505C17.8815 0.540483 18 0.826631 18 1.125V4.5C18 4.79837 17.8815 5.08452 17.6705 5.2955C17.4595 5.50647 17.1734 5.625 16.875 5.625C16.5766 5.625 16.2905 5.50647 16.0795 5.2955C15.8685 5.08452 15.75 4.79837 15.75 4.5ZM25.875 16.875C25.875 18.655 25.3472 20.3951 24.3582 21.8751C23.3693 23.3552 21.9637 24.5087 20.3192 25.1899C18.6746 25.8711 16.865 26.0493 15.1192 25.7021C13.3734 25.3548 11.7697 24.4976 10.511 23.239C9.25237 21.9803 8.3952 20.3766 8.04793 18.6308C7.70067 16.885 7.8789 15.0754 8.56008 13.4308C9.24127 11.7863 10.3948 10.3807 11.8749 9.39177C13.3549 8.40284 15.095 7.875 16.875 7.875C19.2611 7.87761 21.5488 8.82665 23.2361 10.5139C24.9233 12.2012 25.8724 14.4889 25.875 16.875ZM23.625 16.875C23.625 15.54 23.2291 14.2349 22.4874 13.1249C21.7457 12.0149 20.6915 11.1497 19.4581 10.6388C18.2247 10.1279 16.8675 9.99425 15.5581 10.2547C14.2488 10.5152 13.046 11.158 12.102 12.102C11.158 13.046 10.5152 14.2488 10.2547 15.5581C9.99425 16.8675 10.1279 18.2247 10.6388 19.4581C11.1497 20.6915 12.0149 21.7457 13.1249 22.4874C14.2349 23.2291 15.54 23.625 16.875 23.625C18.6646 23.6231 20.3804 22.9114 21.6459 21.6459C22.9114 20.3804 23.6231 18.6646 23.625 16.875ZM7.07906 8.67094C7.29016 8.88203 7.57647 9.00063 7.875 9.00063C8.17353 9.00063 8.45984 8.88203 8.67094 8.67094C8.88203 8.45984 9.00063 8.17353 9.00063 7.875C9.00063 7.57647 8.88203 7.29016 8.67094 7.07906L6.42094 4.82906C6.20984 4.61797 5.92353 4.49937 5.625 4.49937C5.32647 4.49937 5.04016 4.61797 4.82906 4.82906C4.61797 5.04016 4.49937 5.32647 4.49937 5.625C4.49937 5.92353 4.61797 6.20984 4.82906 6.42094L7.07906 8.67094ZM7.07906 25.0791L4.82906 27.3291C4.61797 27.5402 4.49937 27.8265 4.49937 28.125C4.49937 28.4235 4.61797 28.7098 4.82906 28.9209C5.04016 29.132 5.32647 29.2506 5.625 29.2506C5.92353 29.2506 6.20984 29.132 6.42094 28.9209L8.67094 26.6709C8.77546 26.5664 8.85837 26.4423 8.91494 26.3058C8.97151 26.1692 9.00063 26.0228 9.00063 25.875C9.00063 25.7272 8.97151 25.5808 8.91494 25.4442C8.85837 25.3077 8.77546 25.1836 8.67094 25.0791C8.56641 24.9745 8.44233 24.8916 8.30576 24.8351C8.16919 24.7785 8.02282 24.7494 7.875 24.7494C7.72718 24.7494 7.58081 24.7785 7.44424 24.8351C7.30767 24.8916 7.18359 24.9745 7.07906 25.0791ZM25.875 9C26.0228 9.00012 26.1691 8.97112 26.3057 8.91465C26.4423 8.85819 26.5664 8.77538 26.6709 8.67094L28.9209 6.42094C29.132 6.20984 29.2506 5.92353 29.2506 5.625C29.2506 5.32647 29.132 5.04016 28.9209 4.82906C28.7098 4.61797 28.4235 4.49937 28.125 4.49937C27.8265 4.49937 27.5402 4.61797 27.3291 4.82906L25.0791 7.07906C24.9215 7.2364 24.8143 7.43693 24.7708 7.65528C24.7273 7.87363 24.7496 8.09996 24.8348 8.30564C24.92 8.51132 25.0644 8.68708 25.2495 8.81069C25.4347 8.93429 25.6524 9.00018 25.875 9ZM26.6709 25.0791C26.4598 24.868 26.1735 24.7494 25.875 24.7494C25.5765 24.7494 25.2902 24.868 25.0791 25.0791C24.868 25.2902 24.7494 25.5765 24.7494 25.875C24.7494 26.1735 24.868 26.4598 25.0791 26.6709L27.3291 28.9209C27.4336 29.0255 27.5577 29.1084 27.6942 29.1649C27.8308 29.2215 27.9772 29.2506 28.125 29.2506C28.2728 29.2506 28.4192 29.2215 28.5558 29.1649C28.6923 29.1084 28.8164 29.0255 28.9209 28.9209C29.0255 28.8164 29.1084 28.6923 29.1649 28.5558C29.2215 28.4192 29.2506 28.2728 29.2506 28.125C29.2506 27.9772 29.2215 27.8308 29.1649 27.6942C29.1084 27.5577 29.0255 27.4336 28.9209 27.3291L26.6709 25.0791ZM5.625 16.875C5.625 16.5766 5.50647 16.2905 5.2955 16.0795C5.08452 15.8685 4.79837 15.75 4.5 15.75H1.125C0.826631 15.75 0.540483 15.8685 0.329505 16.0795C0.118526 16.2905 0 16.5766 0 16.875C0 17.1734 0.118526 17.4595 0.329505 17.6705C0.540483 17.8815 0.826631 18 1.125 18H4.5C4.79837 18 5.08452 17.8815 5.2955 17.6705C5.50647 17.4595 5.625 17.1734 5.625 16.875ZM16.875 28.125C16.5766 28.125 16.2905 28.2435 16.0795 28.4545C15.8685 28.6655 15.75 28.9516 15.75 29.25V32.625C15.75 32.9234 15.8685 33.2095 16.0795 33.4205C16.2905 33.6315 16.5766 33.75 16.875 33.75C17.1734 33.75 17.4595 33.6315 17.6705 33.4205C17.8815 33.2095 18 32.9234 18 32.625V29.25C18 28.9516 17.8815 28.6655 17.6705 28.4545C17.4595 28.2435 17.1734 28.125 16.875 28.125ZM32.625 15.75H29.25C28.9516 15.75 28.6655 15.8685 28.4545 16.0795C28.2435 16.2905 28.125 16.5766 28.125 16.875C28.125 17.1734 28.2435 17.4595 28.4545 17.6705C28.6655 17.8815 28.9516 18 29.25 18H32.625C32.9234 18 33.2095 17.8815 33.4205 17.6705C33.6315 17.4595 33.75 17.1734 33.75 16.875C33.75 16.5766 33.6315 16.2905 33.4205 16.0795C33.2095 15.8685 32.9234 15.75 32.625 15.75Z" fill="#30373E"/>
</svg>
