<svg width="33" height="33" viewBox="0 0 33 33" fill="none" xmlns="http://www.w3.org/2000/svg">
<path d="M8.2147 25.2C4.78255 25.2 2 22.4508 2 19.0593C2 15.6663 4.78255 12.9171 8.2147 12.9171C8.6265 12.9171 9.0296 12.9577 9.4182 13.0331M19.9524 9.28915C20.8405 8.97973 21.7743 8.82238 22.7147 8.8237C23.663 8.8237 24.5751 8.98175 25.4262 9.27175M25.4262 9.27175C24.9637 5.1813 21.4532 2 17.1902 2C12.614 2 8.9049 5.6656 8.90345 10.1882C8.90225 11.1596 9.07613 12.1233 9.41675 13.0331C10.219 13.1889 10.9827 13.5012 11.6643 13.9524M25.4262 9.27175C28.6699 10.381 31 13.4275 31 17.0119C31 20.937 28.2059 24.2183 24.475 25.0158" stroke="#30373E" stroke-width="2.2" stroke-linecap="round"/>
<path d="M13.6 31L19.8147 25.6466H13.6L19.8147 20.2917" stroke="#30373E" stroke-width="2.2" stroke-linecap="round" stroke-linejoin="round"/>
</svg>
