<svg width="120" height="125" viewBox="0 0 120 125" fill="none" xmlns="http://www.w3.org/2000/svg">
<g clip-path="url(#clip0_135_53)">
<path fill-rule="evenodd" clip-rule="evenodd" d="M62.6567 8.4C47.3079 8.4 34.9507 20.72 34.9507 35.8232C34.9507 38.4104 35.3135 40.9136 35.9833 43.2768C38.7572 44.0832 41.3581 45.2928 43.7023 46.8608C44.1845 47.1539 44.6027 47.5416 44.9319 48.0008C45.2611 48.46 45.4944 48.9812 45.6179 49.5331C45.7414 50.085 45.7525 50.6563 45.6505 51.2126C45.5486 51.7689 45.3357 52.2988 45.0246 52.7706C44.7136 53.2423 44.3107 53.6461 43.8403 53.9578C43.3699 54.2695 42.8415 54.4827 42.287 54.5845C41.7324 54.6863 41.1631 54.6747 40.6131 54.5504C40.0632 54.426 39.5439 54.1914 39.0865 53.8608C35.8321 51.6972 32.0119 50.5495 28.1079 50.5624C17.1628 50.5624 8.37209 59.3544 8.37209 70.084C8.37209 80.8136 17.1628 89.6 28.1079 89.6H83.9219C99.2707 89.6 111.628 77.28 111.628 62.1768C111.628 50.2096 103.87 39.9896 92.9972 36.26C90.0758 35.2576 87.0094 34.7467 83.9219 34.748C80.6679 34.748 77.5591 35.308 74.6679 36.316C73.6264 36.6572 72.493 36.5751 71.5112 36.0872C70.5293 35.5994 69.7772 34.7448 69.4163 33.7069C69.0554 32.6689 69.1144 31.5304 69.5808 30.5357C70.0472 29.5409 70.8837 28.7693 71.9107 28.3864C77.3239 26.4903 83.1073 25.9051 88.7888 26.6784C86.8379 21.3034 83.2812 16.6636 78.6042 13.3922C73.9272 10.1209 68.358 8.37745 62.6567 8.4ZM98.1265 29.2376C95.0065 12.5664 80.2828 0 62.6567 0C42.7758 0 26.5786 15.9936 26.5786 35.8232C26.5786 37.9904 26.774 40.1184 27.1479 42.1792C12.1116 42.6832 0 54.936 0 70.084C0 85.5456 12.6307 98 28.1079 98H83.9219C103.797 98 120 82.0064 120 62.1768C120 47.3704 110.964 34.7088 98.1265 29.2376Z" fill="#30373E"/>
<text transform="translate(33.2883 23) rotate(0.636387)" fill="#30373E" stroke="#DDDDDD" stroke-width="8" xml:space="preserve" style="white-space: pre" font-family="Inter" font-size="96" font-weight="bold" letter-spacing="0em"><tspan x="0" y="92.9091">?</tspan></text>
</g>
<defs>
<clipPath id="clip0_135_53">
<rect width="120" height="125" fill="white"/>
</clipPath>
</defs>
</svg>
