<svg width="34" height="34" viewBox="0 0 34 34" fill="none" xmlns="http://www.w3.org/2000/svg">
<path d="M31.1667 18.9167C31.1667 21.6651 29.7642 24.0918 27.625 25.5326M20.3731 11.3716C21.2407 11.0693 22.1531 10.9155 23.0718 10.9168C23.9983 10.9168 24.8894 11.0713 25.721 11.3546M25.721 11.3546C25.2691 7.35817 21.8393 4.25 17.6743 4.25C13.2033 4.25 9.5795 7.83133 9.5795 12.2499C9.57882 13.1991 9.74776 14.1406 10.081 15.0294M25.721 11.3546C26.6765 11.6816 27.5624 12.1841 28.3333 12.8364M10.081 15.0294C9.69359 14.9541 9.29984 14.9161 8.90517 14.9161C5.55192 14.9175 2.83334 17.6035 2.83334 20.9171C2.83334 22.7729 3.68617 24.4304 5.02492 25.5326M10.081 15.0294C10.8648 15.1816 11.611 15.4869 12.2768 15.9276M24.0833 26.9167L21.25 29.75M22.6667 21.9583L19.8333 24.7917M17 28.3333L14.1667 31.1667M16.2917 21.9583L13.4583 24.7917M10.625 26.9167L7.79167 29.75" stroke="#F8F8F8" stroke-width="1.5" stroke-linecap="round"/>
</svg>
