<svg width="31" height="30" viewBox="0 0 31 30" fill="none" xmlns="http://www.w3.org/2000/svg">
<path d="M18.7143 8.91213C19.5411 8.61871 20.4106 8.46949 21.2861 8.47075C22.169 8.47075 23.0182 8.62063 23.8106 8.89563M23.8106 8.89563C26.8319 9.9475 29 12.8364 29 16.2354C29 20.524 25.5467 24 21.2861 24H7.7861C4.59065 24 2 21.393 2 18.1769C2 14.9608 4.59065 12.3538 7.7861 12.3524C8.1622 12.3524 8.53742 12.3893 8.9066 12.4624M23.8106 8.89563C23.38 5.01675 20.1116 2 16.1426 2C11.882 2 8.4287 5.476 8.4287 9.76463C8.42762 10.6858 8.5895 11.5997 8.9066 12.4624M8.9066 12.4624C9.65355 12.6101 10.3646 12.9064 10.9991 13.3341" stroke="#30373E" stroke-width="2" stroke-linecap="round"/>
</svg>
