<svg width="120" height="125" viewBox="0 0 120 125" fill="none" xmlns="http://www.w3.org/2000/svg">
<g clip-path="url(#clip0_135_80)">
<path fill-rule="evenodd" clip-rule="evenodd" d="M62.6567 8.4C47.3079 8.4 34.9507 20.72 34.9507 35.8232C34.9507 38.4104 35.3135 40.9136 35.9833 43.2768C38.7572 44.0832 41.3581 45.2928 43.7023 46.8608C44.1845 47.1539 44.6027 47.5416 44.9319 48.0008C45.2611 48.46 45.4944 48.9812 45.6179 49.5331C45.7414 50.085 45.7525 50.6563 45.6505 51.2126C45.5486 51.7689 45.3357 52.2988 45.0246 52.7706C44.7136 53.2423 44.3107 53.6461 43.8403 53.9578C43.3699 54.2695 42.8415 54.4827 42.287 54.5845C41.7324 54.6863 41.1631 54.6747 40.6131 54.5504C40.0632 54.426 39.5439 54.1914 39.0865 53.8608C35.8321 51.6972 32.0119 50.5495 28.1079 50.5624C17.1628 50.5624 8.37209 59.3544 8.37209 70.084C8.37209 80.8136 17.1628 89.6 28.1079 89.6H83.9219C99.2707 89.6 111.628 77.28 111.628 62.1768C111.628 50.2096 103.87 39.9896 92.9972 36.26C90.0758 35.2576 87.0094 34.7467 83.9219 34.748C80.6679 34.748 77.5591 35.308 74.6679 36.316C73.6264 36.6572 72.493 36.5751 71.5112 36.0872C70.5293 35.5994 69.7772 34.7448 69.4163 33.7069C69.0554 32.6689 69.1144 31.5304 69.5808 30.5357C70.0472 29.5409 70.8837 28.7693 71.9107 28.3864C77.3239 26.4903 83.1073 25.9051 88.7888 26.6784C86.8379 21.3034 83.2812 16.6636 78.6042 13.3922C73.9272 10.1209 68.358 8.37745 62.6567 8.4ZM98.1265 29.2376C95.0065 12.5664 80.2828 0 62.6567 0C42.7758 0 26.5786 15.9936 26.5786 35.8232C26.5786 37.9904 26.774 40.1184 27.1479 42.1792C12.1116 42.6832 0 54.936 0 70.084C0 85.5456 12.6307 98 28.1079 98H83.9219C103.797 98 120 82.0064 120 62.1768C120 47.3704 110.964 34.7088 98.1265 29.2376Z" fill="white"/>
<path d="M50.7595 95.2667L50.7724 94.1077C50.8393 90.1309 51.2267 86.9645 51.9347 84.6086C52.6655 82.253 53.7094 80.3554 55.0664 78.9158C56.4233 77.4762 58.0515 76.176 59.9509 75.0153C61.37 74.1219 62.6417 73.1928 63.7662 72.2279C64.8906 71.2631 65.7889 70.1934 66.4611 69.019C67.1335 67.8219 67.4779 66.4847 67.4943 65.0075C67.5117 63.4394 67.152 62.0603 66.4152 60.8703C65.6784 59.6802 64.6772 58.7599 63.4116 58.1095C62.1687 57.4593 60.786 57.1257 59.2634 57.1088C57.7862 57.0924 56.3849 57.4064 55.0595 58.0508C53.7343 58.6725 52.6442 59.615 51.7892 60.8783C50.9345 62.1189 50.4627 63.6705 50.3738 65.5333L36.4656 65.3788C36.6297 60.8349 37.7622 57.0972 39.863 54.1659C41.9642 51.2117 44.7272 49.0264 48.1523 47.6098C51.5776 46.1705 55.3469 45.4737 59.4603 45.5193C63.9827 45.5696 67.9742 46.364 71.4346 47.9025C74.8952 49.4183 77.5985 51.5962 79.5443 54.4361C81.4902 57.2761 82.441 60.6846 82.3968 64.6616C82.3673 67.3206 81.8979 69.6791 80.9886 71.7373C80.1023 73.7731 78.8663 75.5776 77.2805 77.151C75.695 78.7017 73.8271 80.1015 71.6767 81.3504C69.8695 82.3986 68.3799 83.4958 67.208 84.6419C66.0589 85.7883 65.1918 87.1197 64.6067 88.636C64.0444 90.1526 63.7395 92.0243 63.692 94.2512L63.6791 95.4102L50.7595 95.2667ZM57.2667 117.158C54.9941 117.133 53.0599 116.316 51.4641 114.708C49.8912 113.076 49.1286 111.136 49.1763 108.886C49.1783 106.659 49.9836 104.759 51.592 103.186C53.2232 101.613 55.1751 100.839 57.4477 100.864C59.6067 100.888 61.4955 101.705 63.1141 103.313C64.7326 104.922 65.5409 106.841 65.5389 109.068C65.4995 110.568 65.0866 111.938 64.3 113.18C63.5364 114.398 62.5369 115.376 61.3013 116.112C60.0661 116.826 58.7212 117.175 57.2667 117.158Z" fill="white"/>
<path d="M50.7595 95.2667L42.76 95.1778L42.6711 103.177L50.6706 103.266L50.7595 95.2667ZM50.7724 94.1077L42.7735 93.9731L42.7731 93.996L42.7729 94.0188L50.7724 94.1077ZM51.9347 84.6086L44.2939 82.2384L44.2835 82.2722L44.2733 82.3061L51.9347 84.6086ZM59.9509 75.0153L64.1227 81.8414L64.168 81.8137L64.213 81.7854L59.9509 75.0153ZM63.7662 72.2279L58.5566 66.1567L58.5566 66.1567L63.7662 72.2279ZM66.4611 69.019L73.4043 72.9929L73.4203 72.9649L73.4361 72.9368L66.4611 69.019ZM66.4152 60.8703L59.6134 65.0816L59.6134 65.0816L66.4152 60.8703ZM63.4116 58.1095L59.7032 65.198L59.7289 65.2115L59.7546 65.2247L63.4116 58.1095ZM55.0595 58.0508L58.4572 65.2934L58.5075 65.2698L58.5575 65.2455L55.0595 58.0508ZM51.7892 60.8783L58.377 65.4171L58.3959 65.3897L58.4145 65.3622L51.7892 60.8783ZM50.3738 65.5333L50.2849 73.5328L57.9971 73.6185L58.3647 65.9146L50.3738 65.5333ZM36.4656 65.3788L28.4708 65.0901L28.1747 73.2872L36.3767 73.3783L36.4656 65.3788ZM39.863 54.1659L46.3655 58.8261L46.3739 58.8144L46.3822 58.8027L39.863 54.1659ZM48.1523 47.6098L51.2099 55.0024L51.2307 54.9938L51.2514 54.9851L48.1523 47.6098ZM71.4346 47.9025L68.1844 55.2125L68.2046 55.2215L68.2249 55.2304L71.4346 47.9025ZM79.5443 54.4361L72.9448 58.9579L72.9448 58.9579L79.5443 54.4361ZM80.9886 71.7373L73.6709 68.5045L73.6622 68.5242L73.6536 68.5439L80.9886 71.7373ZM77.2805 77.151L82.8742 82.8704L82.8948 82.8503L82.9152 82.83L77.2805 77.151ZM71.6767 81.3504L75.6904 88.2707L75.6946 88.2683L71.6767 81.3504ZM67.208 84.6419L61.6144 78.9226L61.5861 78.9503L61.558 78.9782L67.208 84.6419ZM64.6067 88.636L57.143 85.7562L57.1241 85.8053L57.1058 85.8547L64.6067 88.636ZM63.692 94.2512L55.6938 94.0807L55.693 94.1215L55.6925 94.1623L63.692 94.2512ZM63.6791 95.4102L63.5903 103.41L71.5898 103.499L71.6786 95.499L63.6791 95.4102ZM51.4641 114.708L45.7052 120.261L45.7446 120.301L45.7845 120.342L51.4641 114.708ZM49.1763 108.886L57.1745 109.056L57.1762 108.975L57.1763 108.894L49.1763 108.886ZM51.592 103.186L46.0391 97.4267L46.0186 97.4463L45.9984 97.4662L51.592 103.186ZM63.1141 103.313L57.4741 108.987L57.4741 108.987L63.1141 103.313ZM65.5389 109.068L73.5362 109.278L73.5388 109.177L73.5389 109.075L65.5389 109.068ZM64.3 113.18L57.5424 108.898L57.5314 108.915L57.5205 108.932L64.3 113.18ZM61.3013 116.112L65.3031 123.04L65.3501 123.012L65.3969 122.985L61.3013 116.112ZM58.759 95.3555L58.7719 94.1965L42.7729 94.0188L42.76 95.1778L58.759 95.3555ZM58.7712 94.2422C58.8324 90.6077 59.1889 88.2666 59.5962 86.9112L44.2733 82.3061C43.2646 85.6625 42.8461 89.6541 42.7735 93.9731L58.7712 94.2422ZM59.5756 86.9789C60.0322 85.5069 60.5472 84.7645 60.8877 84.4032L49.245 73.4284C46.8716 75.9462 45.2988 78.999 44.2939 82.2384L59.5756 86.9789ZM60.8877 84.4032C61.7003 83.5412 62.7556 82.6769 64.1227 81.8414L55.7791 68.1891C53.3474 69.6752 51.1464 71.4112 49.245 73.4284L60.8877 84.4032ZM64.213 81.7854C65.9221 80.7094 67.5172 79.5507 68.9758 78.2992L58.5566 66.1567C57.7663 66.8348 56.8179 67.5343 55.6888 68.2451L64.213 81.7854ZM68.9758 78.2992C70.7279 76.7957 72.2371 75.0321 73.4043 72.9929L59.5179 65.0451C59.3406 65.3547 59.0533 65.7304 58.5566 66.1567L68.9758 78.2992ZM73.4361 72.9368C74.8153 70.4814 75.4637 67.8108 75.4938 65.0964L59.4948 64.9187C59.4933 65.0585 59.4775 65.1191 59.4766 65.1228C59.4756 65.1264 59.4763 65.1232 59.4792 65.1159C59.4822 65.1085 59.485 65.103 59.4861 65.1012L73.4361 72.9368ZM75.4938 65.0964C75.526 62.1986 74.8467 59.2911 73.217 56.659L59.6134 65.0816C59.586 65.0374 59.5607 64.9888 59.5393 64.9386C59.5179 64.8887 59.5045 64.8464 59.4966 64.8162C59.48 64.7527 59.4964 64.7752 59.4948 64.9187L75.4938 65.0964ZM73.217 56.659C71.7019 54.2118 69.6041 52.2974 67.0686 50.9942L59.7546 65.2247C59.7696 65.2324 59.7681 65.2328 59.7548 65.2235C59.7412 65.2141 59.7211 65.1987 59.6979 65.1774C59.6747 65.1561 59.6542 65.1341 59.6377 65.1141C59.6298 65.1045 59.6238 65.0965 59.6195 65.0906C59.6153 65.0846 59.6133 65.0815 59.6134 65.0816L73.217 56.659ZM67.12 51.0209C64.6656 49.7369 62.0261 49.139 59.3522 49.1093L59.1745 65.1083C59.5459 65.1124 59.6719 65.1816 59.7032 65.198L67.12 51.0209ZM59.3522 49.1093C56.6362 49.0791 54.0066 49.6673 51.5614 50.8561L58.5575 65.2455C58.7632 65.1455 58.9361 65.1056 59.1745 65.1083L59.3522 49.1093ZM51.6617 50.8082C48.9755 52.0684 46.7911 53.9901 45.1639 56.3944L58.4145 65.3622C58.4444 65.318 58.4653 65.293 58.4749 65.282C58.4843 65.2714 58.4862 65.2705 58.4804 65.2756C58.4744 65.2807 58.4664 65.2868 58.4584 65.292C58.4504 65.2972 58.4488 65.2973 58.4572 65.2934L51.6617 50.8082ZM45.2014 56.3394C43.3201 59.07 42.526 62.1532 42.3829 65.152L58.3647 65.9146C58.3822 65.5469 58.4308 65.3573 58.4483 65.2998C58.463 65.2514 58.4511 65.3096 58.377 65.4171L45.2014 56.3394ZM50.4626 57.5338L36.5544 57.3793L36.3767 73.3783L50.2849 73.5328L50.4626 57.5338ZM44.4603 65.6676C44.5825 62.2865 45.3937 60.1821 46.3655 58.8261L33.3605 49.5056C30.1307 54.0124 28.6769 59.3833 28.4708 65.0901L44.4603 65.6676ZM46.3822 58.8027C47.5911 57.103 49.1419 55.8577 51.2099 55.0024L45.0947 40.2171C40.3125 42.195 36.3372 45.3205 33.3438 49.5291L46.3822 58.8027ZM51.2514 54.9851C53.5647 54.0131 56.2344 53.484 59.3714 53.5189L59.5491 37.5198C54.4594 37.4633 49.5904 38.3279 45.0531 40.2345L51.2514 54.9851ZM59.3714 53.5189C63.012 53.5593 65.8937 54.194 68.1844 55.2125L74.6847 40.5924C70.0546 38.5339 64.9534 37.5799 59.5491 37.5198L59.3714 53.5189ZM68.2249 55.2304C70.4536 56.2066 71.9257 57.4706 72.9448 58.9579L86.1438 49.9144C83.2712 45.7218 79.3368 42.63 74.6442 40.5746L68.2249 55.2304ZM72.9448 58.9579C73.8226 60.239 74.4261 61.9764 74.3973 64.5728L90.3963 64.7505C90.4558 59.3929 89.1577 54.3132 86.1438 49.9144L72.9448 58.9579ZM74.3973 64.5728C74.3777 66.3423 74.0703 67.6005 73.6709 68.5045L88.3063 74.9702C89.7255 71.7578 90.3569 68.2989 90.3963 64.7505L74.3973 64.5728ZM73.6536 68.5439C73.1742 69.6452 72.5171 70.6076 71.6458 71.4721L82.9152 82.83C85.2154 80.5477 87.0304 77.901 88.3236 74.9308L73.6536 68.5439ZM71.6868 71.4317C70.6282 72.4671 69.3045 73.4768 67.6588 74.4326L75.6946 88.2683C78.3496 86.7262 80.7618 84.9363 82.8742 82.8704L71.6868 71.4317ZM67.663 74.4302C65.43 75.7253 63.37 77.2056 61.6144 78.9226L72.8017 90.3612C73.3899 89.786 74.3089 89.0719 75.6904 88.2707L67.663 74.4302ZM61.558 78.9782C59.6151 80.9165 58.1306 83.1966 57.143 85.7562L72.0704 91.5158C72.2529 91.0427 72.5027 90.6601 72.8581 90.3056L61.558 78.9782ZM57.1058 85.8547C56.1408 88.4572 55.7537 91.2737 55.6938 94.0807L71.6902 94.4216C71.7253 92.7749 71.948 91.848 72.1077 91.4173L57.1058 85.8547ZM55.6925 94.1623L55.6796 95.3213L71.6786 95.499L71.6915 94.34L55.6925 94.1623ZM63.768 87.4107L50.8483 87.2672L50.6706 103.266L63.5903 103.41L63.768 87.4107ZM57.3556 109.159C57.2557 109.158 57.2061 109.149 57.1962 109.147C57.1877 109.145 57.2005 109.147 57.2244 109.157C57.2483 109.167 57.26 109.176 57.2551 109.172C57.249 109.168 57.2107 109.141 57.1436 109.073L45.7845 120.342C48.8657 123.448 52.8103 125.109 57.1779 125.158L57.3556 109.159ZM57.2229 109.155C57.1567 109.086 57.1328 109.049 57.1319 109.048C57.1319 109.048 57.1443 109.068 57.1581 109.103C57.1719 109.138 57.1774 109.164 57.1785 109.17C57.1793 109.175 57.1727 109.14 57.1745 109.056L41.1781 108.717C41.0848 113.113 42.6655 117.108 45.7052 120.261L57.2229 109.155ZM57.1763 108.894C57.1763 108.856 57.178 108.831 57.1792 108.819C57.1803 108.807 57.1811 108.805 57.1797 108.813C57.1782 108.82 57.1752 108.834 57.1695 108.852C57.1638 108.871 57.1566 108.891 57.1477 108.912C57.1388 108.933 57.1297 108.951 57.1215 108.966C57.1133 108.981 57.1074 108.99 57.1058 108.992C57.1042 108.994 57.1082 108.988 57.1202 108.974C57.1323 108.96 57.1533 108.937 57.1857 108.905L45.9984 97.4662C42.8703 100.526 41.1803 104.477 41.1763 108.879L57.1763 108.894ZM57.145 108.944C57.2136 108.878 57.2525 108.852 57.2587 108.848C57.2637 108.845 57.2518 108.853 57.2277 108.862C57.2036 108.872 57.1907 108.874 57.1993 108.872C57.2092 108.87 57.259 108.862 57.3589 108.864L57.5366 92.8645C53.169 92.816 49.1885 94.3898 46.0391 97.4267L57.145 108.944ZM57.3589 108.864C57.4048 108.864 57.4118 108.868 57.3899 108.864C57.367 108.859 57.3373 108.85 57.3092 108.838C57.2816 108.826 57.2776 108.82 57.2992 108.835C57.3221 108.851 57.3818 108.895 57.4741 108.987L68.754 97.6398C65.7516 94.6552 61.9059 92.9131 57.5366 92.8645L57.3589 108.864ZM57.4741 108.987C57.5502 109.063 57.5808 109.106 57.5854 109.113C57.5881 109.117 57.5859 109.114 57.5808 109.105C57.5756 109.095 57.569 109.082 57.562 109.065C57.555 109.049 57.549 109.032 57.5442 109.016C57.5395 109.001 57.5368 108.989 57.5356 108.983C57.5329 108.969 57.539 108.991 57.5389 109.061L73.5389 109.075C73.5429 104.657 71.8432 100.711 68.754 97.6398L57.4741 108.987ZM57.5417 108.858C57.5406 108.897 57.5377 108.918 57.5369 108.923C57.5361 108.928 57.5366 108.923 57.5399 108.913C57.5431 108.902 57.547 108.892 57.5499 108.885C57.5528 108.879 57.5517 108.883 57.5424 108.898L71.0576 117.461C72.6343 114.973 73.4597 112.19 73.5362 109.278L57.5417 108.858ZM57.5205 108.932C57.4307 109.076 57.3511 109.154 57.2058 109.24L65.3969 122.985C67.7226 121.598 69.6421 119.721 71.0795 117.427L57.5205 108.932ZM57.2996 109.185C57.2917 109.19 57.295 109.187 57.3086 109.182C57.3222 109.176 57.3396 109.17 57.3582 109.165C57.3769 109.16 57.3895 109.159 57.3932 109.158C57.3967 109.158 57.3851 109.159 57.3556 109.159L57.1779 125.158C60.0378 125.19 62.7998 124.486 65.3031 123.04L57.2996 109.185Z" fill="#1F1F24"/>
</g>
<defs>
<clipPath id="clip0_135_80">
<rect width="120" height="125" fill="white"/>
</clipPath>
</defs>
</svg>
