<svg width="34" height="34" viewBox="0 0 34 34" fill="none" xmlns="http://www.w3.org/2000/svg">
<path d="M20.3731 12.7882C21.2407 12.4859 22.1531 12.3322 23.0718 12.3335C23.9983 12.3335 24.8894 12.4879 25.721 12.7712M25.721 12.7712C28.8915 13.855 31.1667 16.8314 31.1667 20.3334C31.1667 24.752 27.5428 28.3333 23.0718 28.3333H8.90518C5.55193 28.3333 2.83334 25.6473 2.83334 22.3337C2.83334 19.0201 5.55193 16.3341 8.90518 16.3327C9.29985 16.3328 9.6936 16.3707 10.081 16.446M25.721 12.7712C25.2691 8.77479 21.8393 5.66663 17.6743 5.66663C13.2033 5.66663 9.57951 9.24796 9.57951 13.6665C9.57837 14.6156 9.74825 15.5572 10.081 16.446M10.081 16.446C10.8649 16.5983 11.611 16.9035 12.2768 17.3442" stroke="#30373E" stroke-width="2.2" stroke-linecap="round"/>
</svg>
