<svg width="32" height="29" viewBox="0 0 32 29" fill="none" xmlns="http://www.w3.org/2000/svg">
<path fill-rule="evenodd" clip-rule="evenodd" d="M7.44186 4.83333C7.44186 3.87739 7.72556 2.94292 8.25708 2.14808C8.7886 1.35324 9.54406 0.733741 10.4279 0.367918C11.3118 0.00209421 12.2844 -0.0936219 13.2228 0.0928733C14.1611 0.279369 15.023 0.739699 15.6995 1.41565C16.376 2.09161 16.8367 2.95282 17.0233 3.8904C17.21 4.82797 17.1142 5.79979 16.7481 6.68297C16.3819 7.56615 15.762 8.32101 14.9665 8.8521C14.171 9.3832 13.2358 9.66667 12.2791 9.66667H2.60465C2.3086 9.66667 2.02467 9.54915 1.81532 9.33998C1.60598 9.1308 1.48837 8.8471 1.48837 8.55128C1.48837 8.25546 1.60598 7.97176 1.81532 7.76259C2.02467 7.55341 2.3086 7.4359 2.60465 7.4359H12.2791C12.7942 7.4359 13.2978 7.28326 13.7261 6.99729C14.1545 6.71131 14.4883 6.30485 14.6855 5.82929C14.8826 5.35374 14.9342 4.83045 14.8337 4.3256C14.7332 3.82075 14.4851 3.35702 14.1208 2.99304C13.7566 2.62907 13.2925 2.3812 12.7872 2.28078C12.282 2.18036 11.7582 2.2319 11.2823 2.42888C10.8064 2.62586 10.3996 2.95944 10.1134 3.38743C9.82718 3.81542 9.67442 4.3186 9.67442 4.83333V5.36426C9.67442 5.66008 9.55681 5.94378 9.34747 6.15295C9.13812 6.36213 8.85419 6.47964 8.55814 6.47964C8.26208 6.47964 7.97815 6.36213 7.76881 6.15295C7.55947 5.94378 7.44186 5.66008 7.44186 5.36426V4.83333ZM19.3488 7.80769C19.3488 6.55761 19.7198 5.33561 20.4149 4.2962C21.11 3.2568 22.0979 2.44669 23.2537 1.9683C24.4096 1.48992 25.6814 1.36475 26.9085 1.60863C28.1355 1.85251 29.2626 2.45448 30.1473 3.33842C31.0319 4.22236 31.6344 5.34856 31.8785 6.57462C32.1225 7.80068 31.9973 9.07153 31.5185 10.2264C31.0397 11.3814 30.229 12.3685 29.1887 13.063C28.1485 13.7575 26.9255 14.1282 25.6744 14.1282H1.11628C0.820223 14.1282 0.536293 14.0107 0.326951 13.8015C0.117608 13.5923 0 13.3086 0 13.0128C0 12.717 0.117608 12.4333 0.326951 12.2241C0.536293 12.015 0.820223 11.8974 1.11628 11.8974H25.6744C26.4839 11.8974 27.2753 11.6576 27.9484 11.2082C28.6215 10.7588 29.1461 10.1201 29.4559 9.37277C29.7657 8.62547 29.8467 7.80316 29.6888 7.00982C29.5309 6.21649 29.141 5.48777 28.5686 4.91581C27.9962 4.34385 27.2669 3.95434 26.4729 3.79653C25.679 3.63873 24.856 3.71972 24.1081 4.02926C23.3602 4.33881 22.7209 4.863 22.2712 5.53555C21.8214 6.20811 21.5814 6.99882 21.5814 7.80769V8.55128C21.5814 8.8471 21.4638 9.1308 21.2544 9.33998C21.0451 9.54915 20.7612 9.66667 20.4651 9.66667C20.1691 9.66667 19.8851 9.54915 19.6758 9.33998C19.4664 9.1308 19.3488 8.8471 19.3488 8.55128V7.80769ZM2.97674 17.4744C2.97674 17.1785 3.09435 16.8948 3.30369 16.6857C3.51304 16.4765 3.79697 16.359 4.09302 16.359H25.6744C26.9255 16.359 28.1485 16.7297 29.1887 17.4242C30.229 18.1187 31.0397 19.1058 31.5185 20.2607C31.9973 21.4157 32.1225 22.6865 31.8785 23.9126C31.6344 25.1386 31.0319 26.2648 30.1473 27.1488C29.2626 28.0327 28.1355 28.6347 26.9085 28.8785C25.6814 29.1224 24.4096 28.9973 23.2537 28.5189C22.0979 28.0405 21.11 27.2304 20.4149 26.191C19.7198 25.1516 19.3488 23.9296 19.3488 22.6795V21.9359C19.3488 21.6401 19.4664 21.3564 19.6758 21.1472C19.8851 20.938 20.1691 20.8205 20.4651 20.8205C20.7612 20.8205 21.0451 20.938 21.2544 21.1472C21.4638 21.3564 21.5814 21.6401 21.5814 21.9359V22.6795C21.5814 23.4884 21.8214 24.2791 22.2712 24.9516C22.7209 25.6242 23.3602 26.1484 24.1081 26.4579C24.856 26.7675 25.679 26.8484 26.4729 26.6906C27.2669 26.5328 27.9962 26.1433 28.5686 25.5714C29.141 24.9994 29.5309 24.2707 29.6888 23.4774C29.8467 22.684 29.7657 21.8617 29.4559 21.1144C29.1461 20.3671 28.6215 19.7284 27.9484 19.279C27.2753 18.8296 26.4839 18.5897 25.6744 18.5897H4.09302C3.79697 18.5897 3.51304 18.4722 3.30369 18.2631C3.09435 18.0539 2.97674 17.7702 2.97674 17.4744Z" fill="#30373E"/>
</svg>
