<svg width="126" height="126" viewBox="0 0 126 126" fill="none" xmlns="http://www.w3.org/2000/svg">
<path d="M117.209 63C117.209 77.3772 111.498 91.1655 101.332 101.332C91.1655 111.498 77.3772 117.209 63 117.209V126C97.7936 126 126 97.7936 126 63H117.209ZM63 117.209C48.6228 117.209 34.8344 111.498 24.6682 101.332C14.502 91.1655 8.7907 77.3772 8.7907 63H0C0 97.7936 28.2064 126 63 126V117.209ZM8.7907 63C8.7907 48.6228 14.502 34.8344 24.6682 24.6682C34.8344 14.502 48.6228 8.7907 63 8.7907V0C28.2064 0 0 28.2064 0 63H8.7907ZM83.5116 76.186C74.5744 76.186 66.0033 72.6358 59.6838 66.3162C53.3642 59.9967 49.814 51.4256 49.814 42.4884H41.0233C41.0233 53.757 45.4997 64.5641 53.4678 72.5322C61.4359 80.5003 72.243 84.9767 83.5116 84.9767V76.186ZM112.374 59.8881C109.377 64.8631 105.145 68.9784 100.087 71.8342C95.0297 74.69 89.3196 76.1892 83.5116 76.186V84.9767C90.8339 84.9806 98.0329 83.0913 104.41 79.4922C110.786 75.8931 116.124 70.7065 119.905 64.4358L112.374 59.8881ZM49.814 42.4884C49.8114 36.6805 51.3108 30.9706 54.1665 25.9133C57.0223 20.8559 61.1373 16.623 66.1119 13.6256L61.5642 6.10074C55.294 9.88069 50.1076 15.2176 46.5085 21.5933C42.9094 27.969 41.0198 35.1669 41.0233 42.4884H49.814ZM63 8.7907C62.4057 8.77669 61.841 8.52808 61.4294 8.09916C61.1777 7.8544 61.0096 7.53656 60.9488 7.19079C60.9254 7.00912 60.9371 6.48167 61.5642 6.10074L66.1119 13.6256C69.0597 11.844 70.0091 8.57972 69.6633 6.01284C69.3 3.34633 67.202 0 63 0V8.7907ZM119.905 64.4358C119.518 65.0629 118.991 65.0746 118.809 65.0512C118.463 64.9904 118.146 64.8223 117.901 64.5706C117.472 64.159 117.223 63.5943 117.209 63H126C126 58.798 122.654 56.7 119.987 56.3367C117.42 55.9909 114.156 56.9403 112.374 59.8881L119.905 64.4358Z" fill="#30373E"/>
</svg>
