<svg width="195" height="159" viewBox="0 0 195 159" fill="none" xmlns="http://www.w3.org/2000/svg">
<path d="M59.5307 69.9687C52.9808 73.7503 45.1969 74.775 37.8914 72.8175C30.5859 70.86 24.3573 66.0806 20.5757 59.5307L16.5708 61.8429C25.7225 77.694 45.9918 83.1252 61.8429 73.9735L59.5307 69.9687ZM20.5757 59.5307C16.7941 52.9807 15.7693 45.1968 17.7268 37.8913C19.6843 30.5859 24.4637 24.3572 31.0137 20.5756L28.7015 16.5707C12.8503 25.7224 7.41915 45.9917 16.5708 61.8429L20.5757 59.5307ZM31.0137 20.5756C37.5636 16.794 45.3475 15.7692 52.653 17.7267C59.9585 19.6842 66.1871 24.4636 69.9687 31.0136L73.9736 28.7014C64.8219 12.8502 44.5526 7.41907 28.7015 16.5707L31.0137 20.5756ZM44.6601 58.085C42.3093 54.0135 41.6723 49.1748 42.8891 44.6336C44.106 40.0923 47.077 36.2205 51.1485 33.8697L48.8363 29.8649C43.7026 32.8288 39.9566 37.7108 38.4223 43.4367C36.8881 49.1626 37.6913 55.2635 40.6552 60.3972L44.6601 58.085ZM59.6768 66.9475C56.6219 66.8907 53.6338 66.0447 51.0025 64.4918C48.3712 62.9389 46.1863 60.7319 44.6601 58.085L40.6552 60.3972C42.5794 63.7341 45.3337 66.5169 48.6506 68.4753C51.9675 70.4337 55.7344 71.5013 59.5857 71.5745L59.6768 66.9475ZM51.1485 33.8697C53.7938 32.3409 56.7895 31.5222 59.8446 31.493C62.8998 31.4637 65.9106 32.2251 68.5846 33.703L70.8166 29.6519C67.4453 27.7896 63.6497 26.8305 59.7984 26.8678C55.9471 26.9052 52.1709 27.9376 48.8363 29.8649L51.1485 33.8697ZM69.9687 31.0136C69.8188 30.7391 69.7835 30.4165 69.8707 30.1161C69.916 29.9371 70.0166 29.7769 70.1581 29.6583C70.2347 29.5998 70.4781 29.4664 70.8166 29.6519L68.5846 33.703C70.1716 34.5773 71.9084 34.1513 72.9869 33.3186C74.1061 32.4517 75.0788 30.6157 73.9736 28.7014L69.9687 31.0136ZM59.5857 71.5745C59.1983 71.5632 59.0542 71.326 59.0171 71.237C58.9538 71.0635 58.9468 70.8745 58.9971 70.6968C59.0718 70.3931 59.2637 70.1314 59.5307 69.9687L61.8429 73.9735C63.7573 72.8683 63.8329 70.7919 63.2971 69.4815C62.7794 68.2212 61.4883 66.9838 59.6768 66.9475L59.5857 71.5745Z" fill="#30373E"/>
<path d="M134.762 74.4458C139.202 72.8987 143.872 72.1119 148.573 72.1185C153.315 72.1185 157.875 72.9088 162.131 74.3588M82.091 93.1653C80.1084 92.7797 78.0933 92.5855 76.0735 92.5853C58.9127 92.5925 45 106.338 45 123.296C45 140.254 58.9127 154 76.0735 154H148.573C171.454 154 190 135.672 190 113.059C190 95.1373 178.357 79.905 162.131 74.3588M82.091 93.1653C80.3879 88.6164 79.5185 83.7979 79.5245 78.9408C79.5245 56.328 98.07 38 120.951 38C142.266 38 159.818 53.9065 162.131 74.3588M82.091 93.1653C86.1024 93.9443 89.921 95.5062 93.3285 97.7617L82.091 93.1653Z" fill="#404040"/>
<path d="M134.762 74.4458C139.202 72.8987 143.872 72.1119 148.573 72.1185C153.315 72.1185 157.875 72.9088 162.131 74.3588M162.131 74.3588C178.357 79.905 190 95.1373 190 113.059C190 135.672 171.454 154 148.573 154H76.0735C58.9127 154 45 140.254 45 123.296C45 106.338 58.9127 92.5925 76.0735 92.5853C78.0933 92.5855 80.1084 92.7797 82.091 93.1653M162.131 74.3588C159.818 53.9065 142.266 38 120.951 38C98.07 38 79.5245 56.328 79.5245 78.9408C79.5185 83.7979 80.3879 88.6164 82.091 93.1653M82.091 93.1653C86.1024 93.9443 89.921 95.5062 93.3285 97.7618" stroke="#30373E" stroke-width="10" stroke-linecap="round"/>
</svg>
