<svg width="208" height="213" viewBox="0 0 208 213" fill="none" xmlns="http://www.w3.org/2000/svg">
<path d="M61.6143 70.8907C55.0985 74.9462 47.2385 76.2472 39.7635 74.5076C32.2884 72.7679 25.8106 68.1301 21.7551 61.6143L17.7711 64.094C27.5857 79.8625 48.3254 84.6892 64.094 74.8746L61.6143 70.8907ZM21.7551 61.6143C17.6995 55.0985 16.3985 47.2385 18.1381 39.7635C19.8778 32.2884 24.5157 25.8106 31.0314 21.7551L28.5518 17.7711C12.7832 27.5857 7.95649 48.3254 17.7711 64.094L21.7551 61.6143ZM31.0314 21.7551C37.5472 17.6995 45.4072 16.3985 52.8823 18.1382C60.3573 19.8778 66.8351 24.5157 70.8907 31.0315L74.8746 28.5518C65.06 12.7832 44.3203 7.9565 28.5518 17.7711L31.0314 21.7551ZM46.1329 59.3383C43.6118 55.288 42.8031 50.4021 43.8845 45.7554C44.9659 41.1087 47.8489 37.082 51.8993 34.561L49.4196 30.577C44.3126 33.7557 40.6775 38.8329 39.314 44.6917C37.9505 50.5505 38.9702 56.7111 42.1489 61.818L46.1329 59.3383ZM61.6608 67.8217C58.5607 67.8668 55.5016 67.1093 52.7808 65.6228C50.0599 64.1364 47.7698 61.9714 46.1329 59.3383L42.1489 61.818C44.2126 65.1376 47.0995 67.8672 50.5294 69.742C53.9593 71.6167 57.8156 72.5728 61.724 72.5174L61.6608 67.8217ZM51.8993 34.561C54.5307 32.9215 57.5414 31.9904 60.6389 31.8581C63.7365 31.7257 66.8156 32.3966 69.5773 33.8056L71.7047 29.622C68.223 27.8465 64.3413 27.0015 60.4366 27.1688C56.5318 27.3362 52.7367 28.5102 49.4196 30.577L51.8993 34.561ZM70.8907 31.0315C70.7294 30.7582 70.6828 30.4321 70.761 30.1246C70.801 29.9415 70.8976 29.7756 71.0371 29.6506C71.1129 29.5887 71.3552 29.4452 71.7047 29.622L69.5773 33.8056C71.2162 34.639 72.9634 34.1485 74.0292 33.2677C75.1352 32.3509 76.0599 30.4561 74.8746 28.5518L70.8907 31.0315ZM61.724 72.5174C61.3307 72.519 61.1766 72.2833 61.136 72.1943C61.066 72.0205 61.0525 71.829 61.0976 71.6471C61.1631 71.3366 61.3489 71.0647 61.6143 70.8907L64.094 74.8746C65.9983 73.6893 66.0052 71.581 65.4177 70.27C64.8503 69.0091 63.4993 67.7976 61.6608 67.8217L61.724 72.5174Z" fill="#30373E"/>
<path fill-rule="evenodd" clip-rule="evenodd" d="M157.019 173C157.395 173 157.755 173.147 158.021 173.409C158.287 173.67 158.436 174.025 158.436 174.395V178.47L161.686 175.27C161.955 175.023 162.31 174.889 162.677 174.895C163.044 174.902 163.395 175.048 163.654 175.304C163.914 175.56 164.063 175.905 164.069 176.266C164.076 176.627 163.939 176.977 163.689 177.242L158.436 182.414V190.583L165.62 186.5L167.543 179.433C167.592 179.256 167.675 179.091 167.788 178.945C167.901 178.8 168.042 178.678 168.204 178.586C168.365 178.494 168.543 178.435 168.727 178.411C168.912 178.387 169.099 178.399 169.279 178.447C169.459 178.494 169.627 178.576 169.775 178.687C169.923 178.799 170.046 178.938 170.14 179.097C170.233 179.255 170.293 179.43 170.317 179.612C170.342 179.794 170.329 179.978 170.281 180.155L169.091 184.527L172.673 182.49C172.999 182.308 173.384 182.26 173.745 182.357C174.106 182.453 174.414 182.686 174.601 183.006C174.788 183.325 174.839 183.704 174.744 184.06C174.648 184.416 174.413 184.721 174.09 184.907L170.51 186.942L174.95 188.114C175.313 188.21 175.623 188.444 175.81 188.765C175.998 189.086 176.049 189.467 175.952 189.824C175.854 190.182 175.616 190.486 175.291 190.671C174.965 190.856 174.578 190.906 174.215 190.81L167.039 188.916L159.853 193L167.037 197.084L174.213 195.19C174.577 195.094 174.964 195.144 175.289 195.33C175.615 195.515 175.852 195.82 175.95 196.178C176.047 196.535 175.996 196.917 175.808 197.237C175.619 197.558 175.31 197.792 174.946 197.887L170.508 199.058L174.09 201.095C174.253 201.186 174.395 201.308 174.51 201.453C174.624 201.598 174.709 201.765 174.758 201.942C174.807 202.12 174.819 202.305 174.795 202.488C174.771 202.67 174.711 202.846 174.617 203.006C174.524 203.165 174.399 203.305 174.251 203.416C174.102 203.528 173.933 203.61 173.752 203.657C173.572 203.704 173.383 203.715 173.198 203.69C173.013 203.665 172.835 203.605 172.673 203.512L169.091 201.474L170.281 205.845C170.329 206.022 170.342 206.206 170.317 206.388C170.293 206.57 170.233 206.745 170.14 206.903C170.046 207.062 169.923 207.201 169.775 207.313C169.627 207.424 169.459 207.506 169.279 207.553C169.099 207.601 168.912 207.613 168.727 207.589C168.543 207.565 168.365 207.506 168.204 207.414C168.042 207.322 167.901 207.2 167.788 207.055C167.675 206.909 167.592 206.744 167.543 206.567L165.62 199.5L158.436 195.419V203.586L163.689 208.758C163.824 208.887 163.932 209.041 164.007 209.211C164.081 209.381 164.12 209.564 164.122 209.749C164.124 209.935 164.088 210.118 164.017 210.29C163.946 210.462 163.84 210.617 163.707 210.748C163.574 210.88 163.416 210.983 163.242 211.053C163.068 211.124 162.881 211.159 162.693 211.158C162.505 211.156 162.319 211.118 162.146 211.045C161.973 210.972 161.817 210.865 161.686 210.732L158.436 207.532V211.605C158.436 211.975 158.287 212.33 158.021 212.591C157.755 212.853 157.395 213 157.019 213C156.643 213 156.283 212.853 156.017 212.591C155.751 212.33 155.602 211.975 155.602 211.605V207.53L152.352 210.73C152.084 210.977 151.728 211.111 151.361 211.105C150.994 211.098 150.644 210.952 150.384 210.696C150.124 210.44 149.976 210.095 149.969 209.734C149.963 209.373 150.099 209.023 150.349 208.758L155.602 203.586V195.417L148.418 199.5L146.495 206.567C146.447 206.744 146.364 206.909 146.25 207.055C146.137 207.2 145.996 207.322 145.835 207.414C145.674 207.506 145.496 207.565 145.311 207.589C145.127 207.613 144.939 207.601 144.759 207.553C144.58 207.506 144.411 207.424 144.263 207.313C144.116 207.201 143.992 207.062 143.899 206.903C143.806 206.745 143.745 206.57 143.721 206.388C143.697 206.206 143.709 206.022 143.757 205.845L144.947 201.473L141.365 203.512C141.039 203.697 140.652 203.747 140.289 203.651C139.926 203.555 139.616 203.321 139.428 203C139.24 202.679 139.19 202.298 139.287 201.941C139.384 201.583 139.622 201.278 139.948 201.093L143.53 199.058L139.09 197.886C138.906 197.843 138.732 197.763 138.579 197.653C138.426 197.543 138.297 197.403 138.2 197.243C138.103 197.082 138.039 196.904 138.013 196.719C137.987 196.534 137.999 196.346 138.049 196.166C138.098 195.986 138.183 195.817 138.3 195.67C138.416 195.522 138.562 195.4 138.728 195.309C138.893 195.218 139.076 195.161 139.264 195.141C139.453 195.121 139.644 195.138 139.825 195.192L147.001 197.084L154.185 193L147.001 188.916L139.825 190.81C139.645 190.858 139.458 190.87 139.273 190.846C139.088 190.822 138.91 190.762 138.749 190.67C138.588 190.579 138.447 190.457 138.333 190.311C138.22 190.166 138.137 189.999 138.089 189.822C138.041 189.645 138.028 189.46 138.053 189.279C138.077 189.097 138.138 188.922 138.231 188.763C138.324 188.604 138.448 188.465 138.596 188.353C138.743 188.242 138.912 188.16 139.092 188.113L143.53 186.942L139.948 184.907C139.787 184.815 139.645 184.693 139.532 184.548C139.418 184.403 139.335 184.237 139.287 184.059C139.239 183.882 139.226 183.698 139.251 183.516C139.275 183.334 139.335 183.159 139.428 183C139.521 182.841 139.645 182.702 139.793 182.59C139.941 182.479 140.109 182.397 140.289 182.349C140.652 182.253 141.039 182.303 141.365 182.488L144.946 184.527L143.755 180.157C143.658 179.799 143.709 179.418 143.897 179.098C144.085 178.777 144.395 178.543 144.759 178.447C145.122 178.352 145.509 178.402 145.835 178.587C146.16 178.773 146.398 179.078 146.495 179.435L148.416 186.501L155.602 190.581V182.414L150.349 177.242C150.099 176.977 149.963 176.627 149.969 176.266C149.976 175.905 150.124 175.56 150.384 175.304C150.644 175.048 150.994 174.902 151.361 174.895C151.728 174.889 152.084 175.023 152.352 175.27L155.602 178.47V174.395C155.602 174.025 155.751 173.67 156.017 173.409C156.283 173.147 156.643 173 157.019 173Z" fill="#30373E"/>
<path fill-rule="evenodd" clip-rule="evenodd" d="M97.3606 174.094C98.0639 174.796 98.459 175.747 98.459 176.738C98.459 177.73 98.0639 178.681 97.3606 179.382L87.3457 189.36C87.0019 189.727 86.5873 190.022 86.1266 190.227C85.6659 190.431 85.1686 190.541 84.6643 190.55C84.1601 190.559 83.6592 190.467 83.1915 190.278C82.7239 190.09 82.2991 189.81 81.9425 189.455C81.5858 189.099 81.3047 188.676 81.1158 188.21C80.9269 187.744 80.8342 187.245 80.8431 186.743C80.852 186.241 80.9623 185.745 81.1676 185.286C81.3729 184.827 81.6688 184.414 82.0378 184.072L92.0527 174.094C92.7569 173.394 93.7114 173 94.7067 173C95.7019 173 96.6565 173.394 97.3606 174.094ZM119.894 174.094C120.598 174.796 120.993 175.747 120.993 176.738C120.993 177.73 120.598 178.681 119.894 179.382L109.879 189.36C109.535 189.727 109.121 190.022 108.66 190.227C108.199 190.431 107.702 190.541 107.198 190.55C106.694 190.559 106.193 190.467 105.725 190.278C105.257 190.09 104.833 189.81 104.476 189.455C104.119 189.099 103.838 188.676 103.649 188.21C103.461 187.744 103.368 187.245 103.377 186.743C103.386 186.241 103.496 185.745 103.701 185.286C103.906 184.827 104.202 184.414 104.571 184.072L114.586 174.094C115.29 173.394 116.245 173 117.24 173C118.235 173 119.19 173.394 119.894 174.094ZM77.3308 191.555C78.0341 192.256 78.4291 193.207 78.4291 194.199C78.4291 195.19 78.0341 196.141 77.3308 196.843L67.3159 206.82C66.6039 207.481 65.6623 207.841 64.6893 207.824C63.7164 207.807 62.7881 207.414 62.1 206.729C61.4119 206.043 61.0178 205.118 61.0006 204.149C60.9834 203.18 61.3446 202.242 62.008 201.532L72.0229 191.555C72.7271 190.854 73.6816 190.461 74.6768 190.461C75.6721 190.461 76.6266 190.854 77.3308 191.555ZM124.902 191.555C125.605 192.256 126 193.207 126 194.199C126 195.19 125.605 196.141 124.902 196.843L114.887 206.82C114.543 207.188 114.128 207.483 113.668 207.687C113.207 207.892 112.71 208.002 112.205 208.011C111.701 208.02 111.2 207.927 110.733 207.739C110.265 207.551 109.84 207.271 109.484 206.915C109.127 206.56 108.846 206.137 108.657 205.671C108.468 205.205 108.375 204.706 108.384 204.204C108.393 203.701 108.503 203.206 108.709 202.747C108.914 202.288 109.21 201.875 109.579 201.532L119.594 191.555C120.298 190.854 121.252 190.461 122.248 190.461C123.243 190.461 124.197 190.854 124.902 191.555ZM99.8644 196.544C100.568 197.245 100.963 198.196 100.963 199.188C100.963 200.179 100.568 201.13 99.8644 201.832L89.8494 211.809C89.5056 212.177 89.091 212.472 88.6303 212.676C88.1696 212.881 87.6723 212.991 87.1681 212.999C86.6638 213.008 86.1629 212.916 85.6953 212.728C85.2276 212.54 84.8028 212.259 84.4462 211.904C84.0896 211.549 83.8084 211.126 83.6195 210.66C83.4307 210.194 83.3379 209.695 83.3468 209.192C83.3557 208.69 83.4661 208.195 83.6713 207.736C83.8766 207.277 84.1726 206.864 84.5415 206.521L94.5565 196.544C95.2606 195.843 96.2152 195.449 97.2104 195.449C98.2056 195.449 99.1602 195.843 99.8644 196.544Z" fill="#30373E"/>
<path d="M147.762 82.4458C152.202 80.8987 156.872 80.1119 161.573 80.1185C166.315 80.1185 170.875 80.9088 175.131 82.3588M175.131 82.3588C191.357 87.905 203 103.137 203 121.059C203 143.672 184.454 162 161.573 162H89.0735C71.9127 162 58 148.254 58 131.296C58 114.338 71.9127 100.593 89.0735 100.585C91.0933 100.585 93.1084 100.78 95.091 101.165M175.131 82.3588C172.818 61.9065 155.266 46 133.951 46C111.07 46 92.5245 64.328 92.5245 86.9408C92.5185 91.7979 93.3879 96.6164 95.091 101.165M95.091 101.165C99.1024 101.944 102.921 103.506 106.329 105.762" stroke="#30373E" stroke-width="10" stroke-linecap="round"/>
</svg>
