<svg width="205" height="189" viewBox="0 0 205 189" fill="none" xmlns="http://www.w3.org/2000/svg">
<path d="M61.6143 70.8907C55.0985 74.9462 47.2385 76.2472 39.7635 74.5076C32.2884 72.7679 25.8106 68.1301 21.7551 61.6143L17.7711 64.094C27.5857 79.8625 48.3254 84.6892 64.094 74.8746L61.6143 70.8907ZM21.7551 61.6143C17.6995 55.0985 16.3985 47.2385 18.1381 39.7635C19.8778 32.2884 24.5157 25.8106 31.0314 21.7551L28.5518 17.7711C12.7832 27.5857 7.95649 48.3254 17.7711 64.094L21.7551 61.6143ZM31.0314 21.7551C37.5472 17.6995 45.4072 16.3985 52.8823 18.1382C60.3573 19.8778 66.8351 24.5157 70.8907 31.0315L74.8746 28.5518C65.06 12.7832 44.3203 7.9565 28.5518 17.7711L31.0314 21.7551ZM46.1329 59.3383C43.6118 55.288 42.8031 50.4021 43.8845 45.7554C44.9659 41.1087 47.8489 37.082 51.8993 34.561L49.4196 30.577C44.3126 33.7557 40.6775 38.8329 39.314 44.6917C37.9505 50.5505 38.9702 56.7111 42.1489 61.818L46.1329 59.3383ZM61.6608 67.8217C58.5607 67.8668 55.5016 67.1093 52.7808 65.6228C50.0599 64.1364 47.7698 61.9714 46.1329 59.3383L42.1489 61.818C44.2126 65.1376 47.0995 67.8672 50.5294 69.742C53.9593 71.6167 57.8156 72.5728 61.724 72.5174L61.6608 67.8217ZM51.8993 34.561C54.5307 32.9215 57.5414 31.9904 60.6389 31.8581C63.7365 31.7257 66.8156 32.3966 69.5773 33.8056L71.7047 29.622C68.223 27.8465 64.3413 27.0015 60.4366 27.1688C56.5318 27.3362 52.7367 28.5102 49.4196 30.577L51.8993 34.561ZM70.8907 31.0315C70.7294 30.7582 70.6828 30.4321 70.761 30.1246C70.801 29.9415 70.8976 29.7756 71.0371 29.6506C71.1129 29.5887 71.3552 29.4452 71.7047 29.622L69.5773 33.8056C71.2162 34.639 72.9634 34.1485 74.0292 33.2677C75.1352 32.3509 76.0599 30.4561 74.8746 28.5518L70.8907 31.0315ZM61.724 72.5174C61.3307 72.519 61.1766 72.2833 61.136 72.1943C61.066 72.0205 61.0525 71.829 61.0976 71.6471C61.1631 71.3366 61.3489 71.0647 61.6143 70.8907L64.094 74.8746C65.9983 73.6893 66.0052 71.581 65.4177 70.27C64.8503 69.0091 63.4993 67.7976 61.6608 67.8217L61.724 72.5174Z" fill="#30373E"/>
<path d="M199.417 114.717C199.417 133.993 185.695 150.107 167.373 154.024M87.5199 154.928C70.6649 154.928 57 141.427 57 124.771C57 108.109 70.6649 94.6076 87.5199 94.6076C89.5422 94.6076 91.5218 94.807 93.4302 95.1773M145.163 76.7913C149.524 75.2718 154.11 74.499 158.728 74.5055C163.385 74.5055 167.864 75.2817 172.044 76.7058M172.044 76.7058C169.773 56.618 152.533 40.9949 131.598 40.9949C109.124 40.9949 90.9094 58.9963 90.9023 81.2062C90.8964 85.9768 91.7503 90.7095 93.423 95.1773C97.363 95.9425 101.114 97.4765 104.46 99.6919M172.044 76.7058C176.849 78.3485 181.298 80.8747 185.175 84.1542" stroke="#30373E" stroke-width="10" stroke-linecap="round"/>
<path d="M111.303 151.033L119.478 139.974C124.769 132.818 127.411 129.243 129.874 130.005C132.338 130.76 132.338 135.146 132.338 143.912V144.738C132.338 147.907 132.338 149.488 133.349 150.478L133.406 150.527C134.439 151.503 136.084 151.503 139.374 151.503C145.298 151.503 148.26 151.503 149.271 153.297L149.314 153.39C150.261 155.213 148.545 157.534 145.113 162.177L136.938 173.236C131.647 180.392 129.006 183.967 126.542 183.205C124.078 182.457 124.078 178.071 124.078 169.298V168.472C124.078 165.303 124.078 163.722 123.067 162.733L123.01 162.683C121.977 161.707 120.332 161.707 117.043 161.707C111.118 161.707 108.156 161.707 107.145 159.913C107.13 159.882 107.116 159.851 107.102 159.82C106.155 157.997 107.871 155.676 111.303 151.033Z" stroke="#30373E" stroke-width="10"/>
</svg>
