<svg width="203" height="211" viewBox="0 0 203 211" fill="none" xmlns="http://www.w3.org/2000/svg">
<path d="M59.5307 69.9687C52.9808 73.7503 45.1969 74.775 37.8914 72.8175C30.5859 70.86 24.3573 66.0806 20.5757 59.5307L16.5708 61.8429C25.7225 77.694 45.9918 83.1252 61.8429 73.9735L59.5307 69.9687ZM20.5757 59.5307C16.7941 52.9807 15.7693 45.1968 17.7268 37.8913C19.6843 30.5859 24.4637 24.3572 31.0137 20.5756L28.7015 16.5707C12.8503 25.7224 7.41915 45.9917 16.5708 61.8429L20.5757 59.5307ZM31.0137 20.5756C37.5636 16.794 45.3475 15.7692 52.653 17.7267C59.9585 19.6842 66.1871 24.4636 69.9687 31.0136L73.9736 28.7014C64.8219 12.8502 44.5526 7.41907 28.7015 16.5707L31.0137 20.5756ZM44.6601 58.085C42.3093 54.0135 41.6723 49.1748 42.8891 44.6336C44.106 40.0923 47.077 36.2205 51.1485 33.8697L48.8363 29.8649C43.7026 32.8288 39.9566 37.7108 38.4223 43.4367C36.8881 49.1626 37.6913 55.2635 40.6552 60.3972L44.6601 58.085ZM59.6768 66.9475C56.6219 66.8907 53.6338 66.0447 51.0025 64.4918C48.3712 62.9389 46.1863 60.7319 44.6601 58.085L40.6552 60.3972C42.5794 63.7341 45.3337 66.5169 48.6506 68.4753C51.9675 70.4337 55.7344 71.5013 59.5857 71.5745L59.6768 66.9475ZM51.1485 33.8697C53.7938 32.3409 56.7895 31.5222 59.8446 31.493C62.8998 31.4637 65.9106 32.2251 68.5846 33.703L70.8166 29.6519C67.4453 27.7896 63.6497 26.8305 59.7984 26.8678C55.9471 26.9052 52.1709 27.9376 48.8363 29.8649L51.1485 33.8697ZM69.9687 31.0136C69.8188 30.7391 69.7835 30.4165 69.8707 30.1161C69.916 29.9371 70.0166 29.7769 70.1581 29.6583C70.2347 29.5998 70.4781 29.4664 70.8166 29.6519L68.5846 33.703C70.1716 34.5773 71.9084 34.1513 72.9869 33.3186C74.1061 32.4517 75.0788 30.6157 73.9736 28.7014L69.9687 31.0136ZM59.5857 71.5745C59.1983 71.5632 59.0542 71.326 59.0171 71.237C58.9538 71.0635 58.9468 70.8745 58.9971 70.6968C59.0718 70.3931 59.2637 70.1314 59.5307 69.9687L61.8429 73.9735C63.7573 72.8683 63.8329 70.7919 63.2971 69.4815C62.7794 68.2212 61.4883 66.9838 59.6768 66.9475L59.5857 71.5745Z" fill="#30373E"/>
<path fill-rule="evenodd" clip-rule="evenodd" d="M125.524 161C125.989 161 126.434 161.184 126.763 161.511C127.092 161.838 127.276 162.282 127.276 162.744V167.837L131.296 163.837C131.628 163.529 132.068 163.361 132.522 163.369C132.976 163.377 133.409 163.56 133.73 163.88C134.051 164.2 134.235 164.631 134.243 165.083C134.251 165.534 134.083 165.972 133.773 166.302L127.276 172.767V182.979L136.162 177.874L138.541 169.042C138.6 168.821 138.703 168.613 138.843 168.431C138.983 168.25 139.158 168.097 139.357 167.983C139.556 167.868 139.776 167.794 140.005 167.764C140.233 167.734 140.465 167.749 140.687 167.808C140.909 167.867 141.118 167.97 141.3 168.109C141.483 168.248 141.636 168.422 141.752 168.621C141.867 168.819 141.941 169.038 141.971 169.265C142.002 169.492 141.986 169.723 141.927 169.944L140.455 175.409L144.885 172.863C145.288 172.635 145.764 172.575 146.211 172.696C146.658 172.816 147.038 173.108 147.27 173.507C147.501 173.906 147.565 174.38 147.446 174.825C147.328 175.27 147.037 175.651 146.638 175.884L142.21 178.428L147.701 179.893C148.151 180.013 148.533 180.306 148.766 180.706C148.998 181.107 149.061 181.583 148.94 182.03C148.819 182.477 148.525 182.858 148.123 183.089C147.72 183.32 147.241 183.383 146.792 183.263L137.917 180.895L129.029 186L137.914 191.105L146.79 188.737C147.239 188.618 147.718 188.68 148.121 188.912C148.524 189.144 148.817 189.525 148.938 189.972C149.058 190.419 148.995 190.896 148.762 191.296C148.529 191.697 148.146 191.99 147.697 192.109L142.207 193.572L146.638 196.119C146.839 196.232 147.015 196.384 147.157 196.566C147.299 196.748 147.403 196.956 147.463 197.178C147.524 197.4 147.54 197.632 147.51 197.86C147.48 198.088 147.405 198.308 147.29 198.507C147.174 198.706 147.02 198.881 146.837 199.02C146.653 199.16 146.443 199.262 146.22 199.321C145.996 199.38 145.763 199.394 145.534 199.363C145.305 199.332 145.085 199.256 144.885 199.14L140.455 196.593L141.927 202.056C141.986 202.277 142.002 202.508 141.971 202.735C141.941 202.962 141.867 203.181 141.752 203.379C141.636 203.578 141.483 203.752 141.3 203.891C141.118 204.03 140.909 204.133 140.687 204.192C140.465 204.251 140.233 204.266 140.005 204.236C139.776 204.206 139.556 204.132 139.357 204.017C139.158 203.903 138.983 203.75 138.843 203.569C138.703 203.387 138.6 203.179 138.541 202.958L136.162 194.126L127.276 189.023V199.233L133.773 205.698C133.941 205.858 134.074 206.051 134.166 206.264C134.258 206.476 134.307 206.705 134.309 206.937C134.311 207.168 134.267 207.398 134.179 207.613C134.091 207.827 133.961 208.022 133.796 208.186C133.632 208.349 133.436 208.479 133.221 208.567C133.005 208.655 132.774 208.699 132.542 208.697C132.309 208.695 132.079 208.647 131.865 208.556C131.651 208.464 131.458 208.332 131.296 208.165L127.276 204.165V209.256C127.276 209.718 127.092 210.162 126.763 210.489C126.434 210.816 125.989 211 125.524 211C125.059 211 124.613 210.816 124.284 210.489C123.956 210.162 123.771 209.718 123.771 209.256V204.163L119.751 208.163C119.419 208.471 118.98 208.639 118.526 208.631C118.072 208.623 117.638 208.44 117.317 208.12C116.996 207.8 116.812 207.369 116.804 206.917C116.796 206.466 116.965 206.028 117.274 205.698L123.771 199.233V189.021L114.886 194.126L112.507 202.958C112.447 203.179 112.345 203.387 112.204 203.569C112.064 203.75 111.89 203.903 111.69 204.017C111.491 204.132 111.271 204.206 111.043 204.236C110.815 204.266 110.583 204.251 110.36 204.192C110.138 204.133 109.93 204.03 109.747 203.891C109.564 203.752 109.411 203.578 109.296 203.379C109.181 203.181 109.106 202.962 109.076 202.735C109.046 202.508 109.061 202.277 109.121 202.056L110.593 196.591L106.162 199.14C105.759 199.371 105.28 199.433 104.831 199.313C104.382 199.194 103.999 198.901 103.767 198.5C103.534 198.099 103.471 197.623 103.592 197.176C103.712 196.729 104.006 196.348 104.409 196.116L108.84 193.572L103.348 192.107C103.12 192.053 102.905 191.954 102.716 191.816C102.527 191.678 102.368 191.504 102.247 191.303C102.127 191.103 102.049 190.88 102.017 190.649C101.984 190.418 101.999 190.183 102.06 189.957C102.121 189.732 102.227 189.521 102.371 189.337C102.515 189.153 102.695 189 102.9 188.886C103.105 188.772 103.331 188.701 103.564 188.676C103.797 188.651 104.033 188.672 104.257 188.74L113.133 191.105L122.018 186L113.133 180.895L104.257 183.263C104.035 183.322 103.803 183.337 103.575 183.307C103.346 183.277 103.126 183.203 102.927 183.088C102.727 182.973 102.552 182.821 102.412 182.639C102.272 182.457 102.169 182.249 102.11 182.028C102.05 181.806 102.035 181.576 102.065 181.348C102.095 181.121 102.17 180.902 102.285 180.704C102.401 180.505 102.554 180.331 102.737 180.192C102.92 180.052 103.128 179.95 103.351 179.891L108.84 178.428L104.409 175.884C104.21 175.769 104.035 175.617 103.895 175.435C103.754 175.253 103.652 175.046 103.592 174.824C103.532 174.603 103.517 174.372 103.547 174.145C103.577 173.918 103.652 173.699 103.767 173.5C103.882 173.301 104.035 173.127 104.218 172.988C104.4 172.848 104.609 172.746 104.831 172.687C105.28 172.567 105.759 172.629 106.162 172.86L110.591 175.409L109.118 169.947C108.998 169.499 109.061 169.023 109.294 168.622C109.527 168.221 109.91 167.929 110.359 167.809C110.809 167.69 111.287 167.753 111.69 167.984C112.093 168.216 112.387 168.597 112.507 169.044L114.884 177.877L123.771 182.977V172.767L117.274 166.302C116.965 165.972 116.796 165.534 116.804 165.083C116.812 164.631 116.996 164.2 117.317 163.88C117.638 163.56 118.072 163.377 118.526 163.369C118.98 163.361 119.419 163.529 119.751 163.837L123.771 167.837V162.744C123.771 162.282 123.956 161.838 124.284 161.511C124.613 161.184 125.059 161 125.524 161Z" fill="#30373E"/>
<path d="M142.762 71.4458C147.202 69.8987 151.872 69.1119 156.573 69.1185C161.315 69.1185 165.875 69.9088 170.131 71.3588M170.131 71.3588C186.357 76.905 198 92.1373 198 110.059C198 132.672 179.454 151 156.573 151H84.0735C66.9127 151 53 137.254 53 120.296C53 103.338 66.9127 89.5925 84.0735 89.5853C86.0933 89.5855 88.1084 89.7797 90.091 90.1653M170.131 71.3588C167.818 50.9065 150.266 35 128.951 35C106.07 35 87.5245 53.328 87.5245 75.9408C87.5185 80.7979 88.3879 85.6164 90.091 90.1653M90.091 90.1653C94.1024 90.9443 97.921 92.5062 101.329 94.7618" stroke="#30373E" stroke-width="10" stroke-linecap="round"/>
</svg>
