<svg width="156" height="144" viewBox="0 0 156 144" fill="none" xmlns="http://www.w3.org/2000/svg">
<path d="M77.9167 121.667C81.9437 121.667 85.2083 118.402 85.2083 114.375C85.2083 110.348 81.9437 107.083 77.9167 107.083C73.8896 107.083 70.625 110.348 70.625 114.375C70.625 118.402 73.8896 121.667 77.9167 121.667Z" fill="#30373E"/>
<path d="M77.9167 143.542C81.9437 143.542 85.2083 140.277 85.2083 136.25C85.2083 132.223 81.9437 128.958 77.9167 128.958C73.8896 128.958 70.625 132.223 70.625 136.25C70.625 140.277 73.8896 143.542 77.9167 143.542Z" fill="#30373E"/>
<path d="M107.083 125.312C107.083 127.246 106.315 129.101 104.948 130.468C103.58 131.836 101.726 132.604 99.7917 132.604C97.8578 132.604 96.0031 131.836 94.6357 130.468C93.2682 129.101 92.5 127.246 92.5 125.312C92.5 123.379 93.2682 121.524 94.6357 120.156C96.0031 118.789 97.8578 118.021 99.7917 118.021C101.726 118.021 103.58 118.789 104.948 120.156C106.315 121.524 107.083 123.379 107.083 125.312ZM107.083 103.437C107.083 105.371 106.315 107.226 104.948 108.593C103.58 109.961 101.726 110.729 99.7917 110.729C97.8578 110.729 96.0031 109.961 94.6357 108.593C93.2682 107.226 92.5 105.371 92.5 103.437C92.5 101.504 93.2682 99.6489 94.6357 98.2814C96.0031 96.914 97.8578 96.1458 99.7917 96.1458C101.726 96.1458 103.58 96.914 104.948 98.2814C106.315 99.6489 107.083 101.504 107.083 103.437ZM63.3333 125.312C63.3333 127.246 62.5651 129.101 61.1977 130.468C59.8302 131.836 57.9755 132.604 56.0417 132.604C54.1078 132.604 52.2531 131.836 50.8857 130.468C49.5182 129.101 48.75 127.246 48.75 125.312C48.75 123.379 49.5182 121.524 50.8857 120.156C52.2531 118.789 54.1078 118.021 56.0417 118.021C57.9755 118.021 59.8302 118.789 61.1977 120.156C62.5651 121.524 63.3333 123.379 63.3333 125.312ZM63.3333 103.437C63.3333 105.371 62.5651 107.226 61.1977 108.593C59.8302 109.961 57.9755 110.729 56.0417 110.729C54.1078 110.729 52.2531 109.961 50.8857 108.593C49.5182 107.226 48.75 105.371 48.75 103.437C48.75 101.504 49.5182 99.6489 50.8857 98.2814C52.2531 96.914 54.1078 96.1458 56.0417 96.1458C57.9755 96.1458 59.8302 96.914 61.1977 98.2814C62.5651 99.6489 63.3333 101.504 63.3333 103.437Z" fill="#30373E"/>
<path d="M150.833 80.4906C150.833 97.575 140.304 112.231 125.312 118.458M95.2781 41.6552C99.7437 40.0992 104.44 39.3079 109.169 39.3146C113.937 39.3146 118.524 40.1094 122.804 41.5677M122.804 41.5677C120.478 20.9979 102.825 5 81.3875 5C58.375 5 39.7229 23.4333 39.7229 46.176C39.7171 51.0611 40.5914 55.9073 42.3042 60.4823M122.804 41.5677C129.206 43.7616 134.978 47.4775 139.626 52.3958M42.3042 60.4823C40.3101 60.0945 38.2835 59.8992 36.2521 59.899C18.9927 59.9063 5 73.7313 5 90.7865C5 104.611 14.1948 116.315 26.875 120.252M42.3042 60.4823C46.3386 61.2658 50.1792 62.8367 53.6063 65.1052" stroke="#30373E" stroke-width="10" stroke-linecap="round"/>
</svg>
