<svg width="155" height="149" viewBox="0 0 155 149" fill="none" xmlns="http://www.w3.org/2000/svg">
<path d="M94.7622 41.4458C99.2023 39.8987 103.872 39.1119 108.573 39.1185C113.315 39.1185 117.875 39.9088 122.131 41.3588M42.091 60.1653C40.1084 59.7797 38.0933 59.5855 36.0735 59.5853C18.9127 59.5925 5 73.3385 5 90.2962C5 107.254 18.9127 121 36.0735 121H108.573C131.454 121 150 102.672 150 80.0593C150 62.1373 138.357 46.905 122.131 41.3588M42.091 60.1653C40.3879 55.6164 39.5185 50.7979 39.5245 45.9408C39.5245 23.328 58.07 5 80.951 5C102.266 5 119.818 20.9065 122.131 41.3588M42.091 60.1653C46.1024 60.9443 49.921 62.5062 53.3285 64.7617L42.091 60.1653Z" fill="#5D5D5D"/>
<path d="M94.7622 41.4458C99.2023 39.8987 103.872 39.1119 108.573 39.1185C113.315 39.1185 117.875 39.9088 122.131 41.3588M122.131 41.3588C138.357 46.905 150 62.1373 150 80.0593C150 102.672 131.454 121 108.573 121H36.0735C18.9127 121 5 107.254 5 90.2962C5 73.3385 18.9127 59.5925 36.0735 59.5853C38.0933 59.5855 40.1084 59.7797 42.091 60.1653M122.131 41.3588C119.818 20.9065 102.266 5 80.951 5C58.07 5 39.5245 23.328 39.5245 45.9408C39.5185 50.7979 40.3879 55.6164 42.091 60.1653M42.091 60.1653C46.1024 60.9443 49.921 62.5062 53.3285 64.7618" stroke="#30373E" stroke-width="10" stroke-linecap="round"/>
<line x1="124" y1="145" x2="23" y2="145" stroke="#30373E" stroke-width="8"/>
</svg>
