<svg width="195" height="193" viewBox="0 0 195 193" fill="none" xmlns="http://www.w3.org/2000/svg">
<path d="M59.5307 69.9687C52.9808 73.7503 45.1969 74.775 37.8914 72.8175C30.5859 70.86 24.3573 66.0806 20.5757 59.5307L16.5708 61.8429C25.7225 77.694 45.9918 83.1252 61.8429 73.9735L59.5307 69.9687ZM20.5757 59.5307C16.7941 52.9807 15.7693 45.1968 17.7268 37.8913C19.6843 30.5859 24.4637 24.3572 31.0137 20.5756L28.7015 16.5707C12.8503 25.7224 7.41915 45.9917 16.5708 61.8429L20.5757 59.5307ZM31.0137 20.5756C37.5636 16.794 45.3475 15.7692 52.653 17.7267C59.9585 19.6842 66.1871 24.4636 69.9687 31.0136L73.9736 28.7014C64.8219 12.8502 44.5526 7.41907 28.7015 16.5707L31.0137 20.5756ZM44.6601 58.085C42.3093 54.0135 41.6723 49.1748 42.8891 44.6336C44.106 40.0923 47.077 36.2205 51.1485 33.8697L48.8363 29.8649C43.7026 32.8288 39.9566 37.7108 38.4223 43.4367C36.8881 49.1626 37.6913 55.2635 40.6552 60.3972L44.6601 58.085ZM59.6768 66.9475C56.6219 66.8907 53.6338 66.0447 51.0025 64.4918C48.3712 62.9389 46.1863 60.7319 44.6601 58.085L40.6552 60.3972C42.5794 63.7341 45.3337 66.5169 48.6506 68.4753C51.9675 70.4337 55.7344 71.5013 59.5857 71.5745L59.6768 66.9475ZM51.1485 33.8697C53.7938 32.3409 56.7895 31.5222 59.8446 31.493C62.8998 31.4637 65.9106 32.2251 68.5846 33.703L70.8166 29.6519C67.4453 27.7896 63.6497 26.8305 59.7984 26.8678C55.9471 26.9052 52.1709 27.9376 48.8363 29.8649L51.1485 33.8697ZM69.9687 31.0136C69.8188 30.7391 69.7835 30.4165 69.8707 30.1161C69.916 29.9371 70.0166 29.7769 70.1581 29.6583C70.2347 29.5998 70.4781 29.4664 70.8166 29.6519L68.5846 33.703C70.1716 34.5773 71.9084 34.1513 72.9869 33.3186C74.1061 32.4517 75.0788 30.6157 73.9736 28.7014L69.9687 31.0136ZM59.5857 71.5745C59.1983 71.5632 59.0542 71.326 59.0171 71.237C58.9538 71.0635 58.9468 70.8745 58.9971 70.6968C59.0718 70.3931 59.2637 70.1314 59.5307 69.9687L61.8429 73.9735C63.7573 72.8683 63.8329 70.7919 63.2971 69.4815C62.7794 68.2212 61.4883 66.9838 59.6768 66.9475L59.5857 71.5745Z" fill="#30373E"/>
<path fill-rule="evenodd" clip-rule="evenodd" d="M115.108 141.45C116.038 142.379 116.561 143.639 116.561 144.953C116.561 146.267 116.038 147.527 115.108 148.457L101.857 161.677C101.402 162.164 100.854 162.554 100.244 162.825C99.6349 163.096 98.9769 163.242 98.3097 163.254C97.6425 163.266 96.9798 163.143 96.3611 162.894C95.7424 162.644 95.1803 162.273 94.7085 161.803C94.2367 161.332 93.8647 160.771 93.6148 160.154C93.3649 159.536 93.2421 158.875 93.2539 158.21C93.2657 157.544 93.4117 156.887 93.6833 156.279C93.9549 155.671 94.3464 155.124 94.8346 154.67L108.085 141.45C109.017 140.521 110.28 140 111.597 140C112.913 140 114.176 140.521 115.108 141.45ZM144.922 141.45C145.852 142.379 146.375 143.639 146.375 144.953C146.375 146.267 145.852 147.527 144.922 148.457L131.671 161.677C131.216 162.164 130.668 162.554 130.058 162.825C129.449 163.096 128.791 163.242 128.123 163.254C127.456 163.266 126.793 163.143 126.175 162.894C125.556 162.644 124.994 162.273 124.522 161.803C124.05 161.332 123.678 160.771 123.428 160.154C123.179 159.536 123.056 158.875 123.068 158.21C123.079 157.544 123.225 156.887 123.497 156.279C123.769 155.671 124.16 155.124 124.648 154.67L137.899 141.45C138.83 140.521 140.093 140 141.41 140C142.727 140 143.99 140.521 144.922 141.45ZM88.6069 164.585C89.5374 165.515 90.0601 166.775 90.0601 168.089C90.0601 169.402 89.5374 170.662 88.6069 171.592L75.3564 184.812C74.4144 185.688 73.1686 186.164 71.8813 186.142C70.594 186.119 69.3658 185.599 68.4554 184.691C67.545 183.782 67.0235 182.557 67.0008 181.272C66.9781 179.988 67.4559 178.745 68.3336 177.805L81.5841 164.585C82.5158 163.657 83.7787 163.135 85.0955 163.135C86.4123 163.135 87.6752 163.657 88.6069 164.585ZM151.547 164.585C152.477 165.515 153 166.775 153 168.089C153 169.402 152.477 170.662 151.547 171.592L138.296 184.812C137.841 185.299 137.293 185.69 136.683 185.961C136.074 186.232 135.416 186.377 134.749 186.389C134.081 186.401 133.419 186.278 132.8 186.029C132.181 185.78 131.619 185.409 131.147 184.938C130.676 184.467 130.304 183.906 130.054 183.289C129.804 182.672 129.681 182.011 129.693 181.345C129.705 180.679 129.851 180.023 130.122 179.415C130.394 178.807 130.785 178.259 131.274 177.805L144.524 164.585C145.456 163.657 146.719 163.135 148.035 163.135C149.352 163.135 150.615 163.657 151.547 164.585ZM118.421 171.195C119.351 172.125 119.874 173.385 119.874 174.699C119.874 176.012 119.351 177.272 118.421 178.202L105.17 191.422C104.715 191.909 104.167 192.3 103.557 192.571C102.948 192.842 102.29 192.987 101.622 192.999C100.955 193.011 100.292 192.889 99.6737 192.639C99.055 192.39 98.493 192.019 98.0211 191.548C97.5493 191.077 97.1773 190.516 96.9274 189.899C96.6775 189.282 96.5548 188.621 96.5665 187.955C96.5783 187.289 96.7243 186.633 96.9959 186.025C97.2675 185.417 97.6591 184.869 98.1473 184.415L111.398 171.195C112.329 170.267 113.592 169.745 114.909 169.745C116.226 169.745 117.489 170.267 118.421 171.195Z" fill="#30373E"/>
<path d="M134.762 78.4458C139.202 76.8987 143.872 76.1119 148.573 76.1185C153.315 76.1185 157.875 76.9088 162.131 78.3588M162.131 78.3588C178.357 83.905 190 99.1373 190 117.059C190 139.672 171.454 158 148.573 158H76.0735C58.9127 158 45 144.254 45 127.296C45 110.338 58.9127 96.5925 76.0735 96.5853C78.0933 96.5855 80.1084 96.7797 82.091 97.1653M162.131 78.3588C159.818 57.9065 142.266 42 120.951 42C98.07 42 79.5245 60.328 79.5245 82.9408C79.5185 87.7979 80.3879 92.6164 82.091 97.1653M82.091 97.1653C86.1024 97.9443 89.921 99.5062 93.3285 101.762" stroke="#30373E" stroke-width="10" stroke-linecap="round"/>
</svg>
