<svg width="155" height="172" viewBox="0 0 155 172" fill="none" xmlns="http://www.w3.org/2000/svg">
<path fill-rule="evenodd" clip-rule="evenodd" d="M68.3606 133.094C69.0639 133.796 69.459 134.747 69.459 135.738C69.459 136.73 69.0639 137.681 68.3606 138.382L58.3457 148.36C58.0019 148.727 57.5873 149.022 57.1266 149.227C56.6659 149.431 56.1686 149.541 55.6643 149.55C55.1601 149.559 54.6592 149.467 54.1915 149.278C53.7239 149.09 53.2991 148.81 52.9425 148.455C52.5858 148.099 52.3047 147.676 52.1158 147.21C51.9269 146.744 51.8342 146.245 51.8431 145.743C51.852 145.241 51.9623 144.745 52.1676 144.286C52.3729 143.827 52.6688 143.414 53.0378 143.072L63.0527 133.094C63.7569 132.394 64.7114 132 65.7067 132C66.7019 132 67.6565 132.394 68.3606 133.094ZM90.8942 133.094C91.5975 133.796 91.9925 134.747 91.9925 135.738C91.9925 136.73 91.5975 137.681 90.8942 138.382L80.8793 148.36C80.5355 148.727 80.1208 149.022 79.6602 149.227C79.1995 149.431 78.7022 149.541 78.1979 149.55C77.6936 149.559 77.1927 149.467 76.7251 149.278C76.2575 149.09 75.8327 148.81 75.476 148.455C75.1194 148.099 74.8383 147.676 74.6494 147.21C74.4605 146.744 74.3677 146.245 74.3766 145.743C74.3855 145.241 74.4959 144.745 74.7012 144.286C74.9064 143.827 75.2024 143.414 75.5714 143.072L85.5863 133.094C86.2905 132.394 87.245 132 88.2402 132C89.2355 132 90.19 132.394 90.8942 133.094ZM48.3308 150.555C49.0341 151.256 49.4291 152.207 49.4291 153.199C49.4291 154.19 49.0341 155.141 48.3308 155.843L38.3159 165.82C37.6039 166.481 36.6623 166.841 35.6893 166.824C34.7164 166.807 33.7881 166.414 33.1 165.729C32.4119 165.043 32.0178 164.118 32.0006 163.149C31.9834 162.18 32.3446 161.242 33.008 160.532L43.0229 150.555C43.7271 149.854 44.6816 149.461 45.6768 149.461C46.6721 149.461 47.6266 149.854 48.3308 150.555ZM95.9017 150.555C96.605 151.256 97 152.207 97 153.199C97 154.19 96.605 155.141 95.9017 155.843L85.8867 165.82C85.5429 166.188 85.1283 166.483 84.6676 166.687C84.2069 166.892 83.7096 167.002 83.2054 167.011C82.7011 167.02 82.2002 166.927 81.7326 166.739C81.2649 166.551 80.8401 166.271 80.4835 165.915C80.1269 165.56 79.8457 165.137 79.6568 164.671C79.468 164.205 79.3752 163.706 79.3841 163.204C79.393 162.701 79.5034 162.206 79.7086 161.747C79.9139 161.288 80.2099 160.875 80.5788 160.532L90.5938 150.555C91.2979 149.854 92.2525 149.461 93.2477 149.461C94.2429 149.461 95.1975 149.854 95.9017 150.555ZM70.8644 155.544C71.5677 156.245 71.9627 157.196 71.9627 158.188C71.9627 159.179 71.5677 160.13 70.8644 160.832L60.8494 170.809C60.5056 171.177 60.091 171.472 59.6303 171.676C59.1696 171.881 58.6723 171.991 58.1681 171.999C57.6638 172.008 57.1629 171.916 56.6953 171.728C56.2276 171.54 55.8028 171.259 55.4462 170.904C55.0896 170.549 54.8084 170.126 54.6195 169.66C54.4307 169.194 54.3379 168.695 54.3468 168.192C54.3557 167.69 54.4661 167.195 54.6713 166.736C54.8766 166.277 55.1726 165.864 55.5415 165.521L65.5565 155.544C66.2606 154.843 67.2152 154.449 68.2104 154.449C69.2056 154.449 70.1602 154.843 70.8644 155.544Z" fill="#30373E"/>
<path d="M94.7622 41.4458C99.2023 39.8987 103.872 39.1119 108.573 39.1185C113.315 39.1185 117.875 39.9088 122.131 41.3588M122.131 41.3588C138.357 46.905 150 62.1373 150 80.0593C150 102.672 131.454 121 108.573 121H36.0735C18.9127 121 5 107.254 5 90.2962C5 73.3385 18.9127 59.5925 36.0735 59.5853C38.0933 59.5855 40.1084 59.7797 42.091 60.1653M122.131 41.3588C119.818 20.9065 102.266 5 80.951 5C58.07 5 39.5245 23.328 39.5245 45.9408C39.5185 50.7979 40.3879 55.6164 42.091 60.1653M42.091 60.1653C46.1024 60.9443 49.921 62.5062 53.3285 64.7618" stroke="#30373E" stroke-width="10" stroke-linecap="round"/>
</svg>
