<svg width="155" height="166" viewBox="0 0 155 166" fill="none" xmlns="http://www.w3.org/2000/svg">
<path fill-rule="evenodd" clip-rule="evenodd" d="M44.5136 136C44.7807 136 45.0368 136.107 45.2256 136.296C45.4144 136.486 45.5205 136.743 45.5205 137.012V139.966L47.8296 137.646C48.0205 137.467 48.2729 137.37 48.5338 137.374C48.7946 137.379 49.0435 137.485 49.228 137.67C49.4125 137.856 49.5182 138.106 49.5228 138.368C49.5274 138.63 49.4305 138.884 49.2527 139.075L45.5205 142.825V148.748L50.6247 145.787L51.9914 140.664C52.0256 140.536 52.0846 140.416 52.1651 140.31C52.2456 140.205 52.3459 140.116 52.4604 140.05C52.5749 139.983 52.7014 139.94 52.8324 139.923C52.9635 139.906 53.0968 139.914 53.2245 139.949C53.3522 139.983 53.472 140.042 53.5769 140.123C53.6818 140.204 53.7698 140.305 53.836 140.42C53.9021 140.535 53.945 140.662 53.9623 140.794C53.9796 140.925 53.9709 141.059 53.9367 141.188L53.0909 144.357L55.6363 142.88C55.8674 142.748 56.1412 142.714 56.3978 142.784C56.6544 142.854 56.873 143.023 57.0059 143.254C57.1389 143.485 57.1754 143.76 57.1074 144.018C57.0394 144.277 56.8726 144.497 56.6432 144.633L54.0991 146.108L57.254 146.958C57.512 147.028 57.7319 147.197 57.8653 147.43C57.9988 147.662 58.0348 147.938 57.9656 148.198C57.8963 148.457 57.7274 148.678 57.496 148.812C57.2647 148.946 56.9898 148.982 56.7318 148.912L51.6329 147.539L46.5274 150.5L51.6316 153.461L56.7304 152.088C56.9886 152.018 57.2636 152.055 57.495 152.189C57.7263 152.323 57.8951 152.544 57.9642 152.804C58.0333 153.063 57.997 153.339 57.8633 153.572C57.7296 153.804 57.5095 153.974 57.2513 154.043L54.0978 154.892L56.6432 156.369C56.7586 156.435 56.8599 156.523 56.9413 156.628C57.0226 156.734 57.0824 156.854 57.1172 156.983C57.152 157.112 57.1611 157.246 57.144 157.379C57.1269 157.511 57.0839 157.639 57.0175 157.754C56.9511 157.87 56.8626 157.971 56.7571 158.052C56.6517 158.133 56.5313 158.192 56.4029 158.226C56.2745 158.26 56.1407 158.269 56.0091 158.251C55.8776 158.232 55.7509 158.188 55.6363 158.121L53.0909 156.644L53.9367 159.812C53.9709 159.941 53.9796 160.075 53.9623 160.206C53.945 160.338 53.9021 160.465 53.836 160.58C53.7698 160.695 53.6818 160.796 53.5769 160.877C53.472 160.958 53.3522 161.017 53.2245 161.051C53.0968 161.086 52.9635 161.094 52.8324 161.077C52.7014 161.06 52.5749 161.017 52.4604 160.95C52.3459 160.884 52.2456 160.795 52.1651 160.69C52.0846 160.584 52.0256 160.464 51.9914 160.336L50.6247 155.213L45.5205 152.253V158.175L49.2527 161.925C49.3489 162.018 49.4256 162.13 49.4785 162.253C49.5313 162.376 49.5591 162.509 49.5604 162.643C49.5616 162.778 49.5362 162.911 49.4856 163.035C49.435 163.16 49.3603 163.273 49.2658 163.368C49.1713 163.463 49.059 163.538 48.9352 163.589C48.8115 163.64 48.6789 163.665 48.5453 163.664C48.4116 163.663 48.2794 163.635 48.1566 163.582C48.0337 163.529 47.9226 163.452 47.8296 163.356L45.5205 161.036V163.988C45.5205 164.257 45.4144 164.514 45.2256 164.704C45.0368 164.893 44.7807 165 44.5136 165C44.2466 165 43.9905 164.893 43.8017 164.704C43.6128 164.514 43.5067 164.257 43.5067 163.988V161.034L41.1976 163.354C41.0068 163.533 40.7543 163.63 40.4935 163.626C40.2326 163.621 39.9837 163.515 39.7992 163.33C39.6148 163.144 39.5091 162.894 39.5045 162.632C39.4999 162.37 39.5967 162.116 39.7746 161.925L43.5067 158.175V152.252L38.4025 155.213L37.0359 160.336C37.0017 160.464 36.9426 160.584 36.8622 160.69C36.7817 160.795 36.6813 160.884 36.5668 160.95C36.4523 161.017 36.3259 161.06 36.1948 161.077C36.0637 161.094 35.9305 161.086 35.8028 161.051C35.675 161.017 35.5553 160.958 35.4504 160.877C35.3455 160.796 35.2574 160.695 35.1913 160.58C35.1252 160.465 35.0822 160.338 35.0649 160.206C35.0477 160.075 35.0564 159.941 35.0906 159.812L35.9363 156.643L33.391 158.121C33.1595 158.255 32.8845 158.291 32.6265 158.222C32.3684 158.152 32.1484 157.983 32.0149 157.75C31.8814 157.517 31.8452 157.241 31.9145 156.982C31.9837 156.723 32.1526 156.502 32.3841 156.367L34.9295 154.892L31.7746 154.042C31.6435 154.011 31.5199 153.953 31.4113 153.873C31.3027 153.793 31.2111 153.692 31.1421 153.576C31.0731 153.46 31.028 153.331 31.0095 153.197C30.991 153.062 30.9995 152.926 31.0345 152.795C31.0694 152.665 31.1302 152.542 31.213 152.435C31.2959 152.329 31.3993 152.24 31.517 152.174C31.6347 152.108 31.7644 152.067 31.8983 152.052C32.0323 152.037 32.1678 152.05 32.2968 152.089L37.3957 153.461L42.4999 150.5L37.3957 147.539L32.2968 148.912C32.169 148.947 32.0357 148.956 31.9045 148.938C31.7733 148.921 31.6469 148.878 31.5323 148.811C31.4177 148.745 31.3173 148.656 31.2368 148.55C31.1563 148.445 31.0972 148.325 31.063 148.196C31.0288 148.068 31.0201 147.934 31.0375 147.802C31.0548 147.67 31.0978 147.543 31.164 147.428C31.2302 147.313 31.3183 147.212 31.4233 147.131C31.5283 147.05 31.6481 146.991 31.7759 146.957L34.9295 146.108L32.3841 144.633C32.2695 144.566 32.169 144.478 32.0885 144.372C32.0079 144.267 31.9488 144.146 31.9145 144.018C31.8802 143.89 31.8714 143.756 31.8886 143.624C31.9059 143.492 31.9488 143.365 32.0149 143.25C32.081 143.135 32.169 143.034 32.274 142.953C32.3789 142.872 32.4987 142.813 32.6265 142.778C32.8845 142.709 33.1595 142.745 33.391 142.879L35.935 144.357L35.0892 141.189C35.0201 140.93 35.0565 140.653 35.1901 140.421C35.3238 140.188 35.544 140.019 35.8021 139.949C36.0602 139.88 36.3352 139.916 36.5666 140.051C36.798 140.185 36.9668 140.406 37.0359 140.666L38.4012 145.789L43.5067 148.747V142.825L39.7746 139.075C39.5967 138.884 39.4999 138.63 39.5045 138.368C39.5091 138.106 39.6148 137.856 39.7992 137.67C39.9837 137.485 40.2326 137.379 40.4935 137.374C40.7543 137.37 41.0068 137.467 41.1976 137.646L43.5067 139.966V137.012C43.5067 136.743 43.6128 136.486 43.8017 136.296C43.9905 136.107 44.2466 136 44.5136 136Z" fill="#30373E"/>
<path d="M94.7622 41.4458C99.2023 39.8987 103.872 39.1119 108.573 39.1185C113.315 39.1185 117.875 39.9088 122.131 41.3588M122.131 41.3588C138.357 46.905 150 62.1373 150 80.0593C150 102.672 131.454 121 108.573 121H36.0735C18.9127 121 5 107.254 5 90.2962C5 73.3385 18.9127 59.5925 36.0735 59.5853C38.0933 59.5855 40.1084 59.7797 42.091 60.1653M122.131 41.3588C119.818 20.9065 102.266 5 80.951 5C58.07 5 39.5245 23.328 39.5245 45.9408C39.5185 50.7979 40.3879 55.6164 42.091 60.1653M42.091 60.1653C46.1024 60.9443 49.921 62.5062 53.3285 64.7618" stroke="#30373E" stroke-width="10" stroke-linecap="round"/>
<line x1="114" y1="146" x2="73" y2="146" stroke="#30373E" stroke-width="8"/>
<line x1="101" y1="162" x2="73" y2="162" stroke="#30373E" stroke-width="8"/>
</svg>
