<svg width="151" height="158" viewBox="0 0 151 158" fill="none" xmlns="http://www.w3.org/2000/svg">
<path d="M57.4809 116.567L66.134 104.847C71.7343 97.2715 74.5307 93.4876 77.1387 94.2941C79.7467 95.0856 79.7467 99.7362 79.7467 109.022V109.897C79.7467 113.251 79.7467 114.924 80.817 115.98L80.8773 116.032C81.9703 117.057 83.7114 117.057 87.1937 117.057C93.4649 117.057 96.6005 117.057 97.6709 118.964C97.6862 118.994 97.7013 119.025 97.7161 119.055C98.7186 120.992 96.902 123.449 93.269 128.364L84.6159 140.084C79.0156 147.66 76.2191 151.451 73.6112 150.644C71.0032 149.846 71.0032 145.202 71.0032 135.909V135.034C71.0032 131.688 71.0032 130.007 69.9329 128.959L69.8726 128.906C68.7796 127.874 67.0385 127.874 63.5561 127.874C57.2849 127.874 54.1493 127.874 53.079 125.974C53.0634 125.942 53.0483 125.909 53.0338 125.876C52.0313 123.947 53.8478 121.482 57.4809 116.567Z" fill="#30373E"/>
<path opacity="0.5" d="M107.681 120.6C131.469 120.6 150.75 101.545 150.75 78.0357C150.75 59.403 138.637 43.5667 121.768 37.8006C119.371 16.5373 101.116 0 78.9628 0C55.1745 0 35.8936 19.0548 35.8936 42.5643C35.8936 47.7651 36.8358 52.7399 38.5619 57.3528C36.5006 56.9522 34.4056 56.7503 32.3057 56.7498C14.4645 56.7574 0 71.0485 0 88.6787C0 106.309 14.4645 120.6 32.3057 120.6H107.681Z" fill="#525252"/>
<path fill-rule="evenodd" clip-rule="evenodd" d="M30.5136 129C30.7807 129 31.0368 129.107 31.2256 129.296C31.4144 129.486 31.5205 129.743 31.5205 130.012V132.966L33.8296 130.646C34.0205 130.467 34.2729 130.37 34.5338 130.374C34.7946 130.379 35.0435 130.485 35.228 130.67C35.4125 130.856 35.5182 131.106 35.5228 131.368C35.5274 131.63 35.4305 131.884 35.2527 132.075L31.5205 135.825V141.748L36.6247 138.787L37.9914 133.664C38.0256 133.536 38.0846 133.416 38.1651 133.31C38.2456 133.205 38.3459 133.116 38.4604 133.05C38.5749 132.983 38.7014 132.94 38.8324 132.923C38.9635 132.906 39.0968 132.914 39.2245 132.949C39.3522 132.983 39.472 133.042 39.5769 133.123C39.6818 133.204 39.7698 133.305 39.836 133.42C39.9021 133.535 39.945 133.662 39.9623 133.794C39.9796 133.925 39.9709 134.059 39.9367 134.188L39.0909 137.357L41.6363 135.88C41.8674 135.748 42.1412 135.714 42.3978 135.784C42.6544 135.854 42.873 136.023 43.0059 136.254C43.1389 136.485 43.1754 136.76 43.1074 137.018C43.0394 137.277 42.8726 137.497 42.6432 137.633L40.0991 139.108L43.254 139.958C43.512 140.028 43.7319 140.197 43.8653 140.43C43.9988 140.662 44.0348 140.938 43.9656 141.198C43.8963 141.457 43.7274 141.678 43.496 141.812C43.2647 141.946 42.9898 141.982 42.7318 141.912L37.6329 140.539L32.5274 143.5L37.6316 146.461L42.7304 145.088C42.9886 145.018 43.2636 145.055 43.495 145.189C43.7263 145.323 43.8951 145.544 43.9642 145.804C44.0333 146.063 43.997 146.339 43.8633 146.572C43.7296 146.804 43.5095 146.974 43.2513 147.043L40.0978 147.892L42.6432 149.369C42.7586 149.435 42.8599 149.523 42.9413 149.628C43.0226 149.734 43.0824 149.854 43.1172 149.983C43.152 150.112 43.1611 150.246 43.144 150.379C43.1269 150.511 43.0839 150.639 43.0175 150.754C42.9511 150.87 42.8626 150.971 42.7571 151.052C42.6517 151.133 42.5313 151.192 42.4029 151.226C42.2745 151.26 42.1407 151.269 42.0091 151.251C41.8776 151.232 41.7509 151.188 41.6363 151.121L39.0909 149.644L39.9367 152.812C39.9709 152.941 39.9796 153.075 39.9623 153.206C39.945 153.338 39.9021 153.465 39.836 153.58C39.7698 153.695 39.6818 153.796 39.5769 153.877C39.472 153.958 39.3522 154.017 39.2245 154.051C39.0968 154.086 38.9635 154.094 38.8324 154.077C38.7014 154.06 38.5749 154.017 38.4604 153.95C38.3459 153.884 38.2456 153.795 38.1651 153.69C38.0846 153.584 38.0256 153.464 37.9914 153.336L36.6247 148.213L31.5205 145.253V151.175L35.2527 154.925C35.3489 155.018 35.4256 155.13 35.4785 155.253C35.5313 155.376 35.5591 155.509 35.5604 155.643C35.5616 155.778 35.5362 155.911 35.4856 156.035C35.435 156.16 35.3603 156.273 35.2658 156.368C35.1713 156.463 35.059 156.538 34.9352 156.589C34.8115 156.64 34.6789 156.665 34.5453 156.664C34.4116 156.663 34.2794 156.635 34.1566 156.582C34.0337 156.529 33.9226 156.452 33.8296 156.356L31.5205 154.036V156.988C31.5205 157.257 31.4144 157.514 31.2256 157.704C31.0368 157.893 30.7807 158 30.5136 158C30.2466 158 29.9905 157.893 29.8017 157.704C29.6128 157.514 29.5067 157.257 29.5067 156.988V154.034L27.1976 156.354C27.0068 156.533 26.7543 156.63 26.4935 156.626C26.2326 156.621 25.9837 156.515 25.7992 156.33C25.6148 156.144 25.5091 155.894 25.5045 155.632C25.4999 155.37 25.5967 155.116 25.7746 154.925L29.5067 151.175V145.252L24.4025 148.213L23.0359 153.336C23.0017 153.464 22.9426 153.584 22.8622 153.69C22.7817 153.795 22.6813 153.884 22.5668 153.95C22.4523 154.017 22.3259 154.06 22.1948 154.077C22.0637 154.094 21.9305 154.086 21.8028 154.051C21.675 154.017 21.5553 153.958 21.4504 153.877C21.3455 153.796 21.2574 153.695 21.1913 153.58C21.1252 153.465 21.0822 153.338 21.0649 153.206C21.0477 153.075 21.0564 152.941 21.0906 152.812L21.9363 149.643L19.391 151.121C19.1595 151.255 18.8845 151.291 18.6265 151.222C18.3684 151.152 18.1484 150.983 18.0149 150.75C17.8814 150.517 17.8452 150.241 17.9145 149.982C17.9837 149.723 18.1526 149.502 18.3841 149.367L20.9295 147.892L17.7746 147.042C17.6435 147.011 17.5199 146.953 17.4113 146.873C17.3027 146.793 17.2111 146.692 17.1421 146.576C17.0731 146.46 17.028 146.331 17.0095 146.197C16.991 146.062 16.9995 145.926 17.0345 145.795C17.0694 145.665 17.1302 145.542 17.213 145.435C17.2959 145.329 17.3993 145.24 17.517 145.174C17.6347 145.108 17.7644 145.067 17.8983 145.052C18.0323 145.037 18.1678 145.05 18.2968 145.089L23.3957 146.461L28.4999 143.5L23.3957 140.539L18.2968 141.912C18.169 141.947 18.0357 141.956 17.9045 141.938C17.7733 141.921 17.6469 141.878 17.5323 141.811C17.4177 141.745 17.3173 141.656 17.2368 141.55C17.1563 141.445 17.0972 141.325 17.063 141.196C17.0288 141.068 17.0201 140.934 17.0375 140.802C17.0548 140.67 17.0978 140.543 17.164 140.428C17.2302 140.313 17.3183 140.212 17.4233 140.131C17.5283 140.05 17.6481 139.991 17.7759 139.957L20.9295 139.108L18.3841 137.633C18.2695 137.566 18.169 137.478 18.0885 137.372C18.0079 137.267 17.9488 137.146 17.9145 137.018C17.8802 136.89 17.8714 136.756 17.8886 136.624C17.9059 136.492 17.9488 136.365 18.0149 136.25C18.081 136.135 18.169 136.034 18.274 135.953C18.3789 135.872 18.4987 135.813 18.6265 135.778C18.8845 135.709 19.1595 135.745 19.391 135.879L21.935 137.357L21.0892 134.189C21.0201 133.93 21.0565 133.653 21.1901 133.421C21.3238 133.188 21.544 133.019 21.8021 132.949C22.0602 132.88 22.3352 132.916 22.5666 133.051C22.798 133.185 22.9668 133.406 23.0359 133.666L24.4012 138.789L29.5067 141.747V135.825L25.7746 132.075C25.5967 131.884 25.4999 131.63 25.5045 131.368C25.5091 131.106 25.6148 130.856 25.7992 130.67C25.9837 130.485 26.2326 130.379 26.4935 130.374C26.7543 130.37 27.0068 130.467 27.1976 130.646L29.5067 132.966V130.012C29.5067 129.743 29.6128 129.486 29.8017 129.296C29.9905 129.107 30.2466 129 30.5136 129Z" fill="#30373E"/>
</svg>
