<svg width="216" height="205" viewBox="0 0 216 205" fill="none" xmlns="http://www.w3.org/2000/svg">
<path fill-rule="evenodd" clip-rule="evenodd" d="M138.518 167C138.864 167 139.196 167.14 139.441 167.388C139.685 167.637 139.823 167.974 139.823 168.326V172.196L142.816 169.156C143.064 168.922 143.391 168.795 143.729 168.801C144.067 168.807 144.39 168.946 144.629 169.189C144.868 169.432 145.005 169.759 145.011 170.103C145.017 170.446 144.891 170.778 144.661 171.03L139.823 175.943V183.704L146.439 179.825L148.211 173.112C148.255 172.944 148.332 172.786 148.436 172.648C148.541 172.51 148.671 172.394 148.819 172.307C148.968 172.22 149.131 172.163 149.301 172.14C149.471 172.118 149.644 172.129 149.81 172.174C149.975 172.219 150.13 172.297 150.266 172.403C150.402 172.509 150.516 172.641 150.602 172.792C150.688 172.942 150.744 173.109 150.766 173.281C150.788 173.454 150.777 173.629 150.733 173.798L149.636 177.951L152.936 176.016C153.236 175.843 153.59 175.797 153.923 175.889C154.256 175.981 154.539 176.202 154.711 176.505C154.884 176.808 154.931 177.168 154.843 177.507C154.755 177.845 154.539 178.135 154.241 178.312L150.943 180.245L155.033 181.359C155.367 181.45 155.652 181.672 155.825 181.977C155.998 182.281 156.045 182.643 155.955 182.983C155.866 183.323 155.647 183.612 155.347 183.788C155.047 183.963 154.69 184.011 154.356 183.92L147.746 182.12L141.128 186L147.745 189.88L154.354 188.08C154.689 187.989 155.045 188.037 155.345 188.213C155.645 188.389 155.864 188.679 155.954 189.019C156.043 189.359 155.996 189.721 155.823 190.025C155.649 190.33 155.364 190.552 155.03 190.643L150.942 191.755L154.241 193.69C154.391 193.777 154.522 193.892 154.628 194.03C154.733 194.168 154.811 194.326 154.856 194.495C154.901 194.664 154.913 194.84 154.89 195.013C154.868 195.187 154.812 195.354 154.726 195.505C154.64 195.657 154.526 195.789 154.389 195.895C154.252 196.002 154.096 196.079 153.93 196.124C153.763 196.169 153.59 196.18 153.419 196.156C153.249 196.132 153.084 196.074 152.936 195.986L149.636 194.051L150.733 198.202C150.777 198.371 150.788 198.546 150.766 198.719C150.744 198.891 150.688 199.058 150.602 199.208C150.516 199.359 150.402 199.491 150.266 199.597C150.13 199.703 149.975 199.781 149.81 199.826C149.644 199.871 149.471 199.882 149.301 199.86C149.131 199.837 148.968 199.78 148.819 199.693C148.671 199.606 148.541 199.49 148.436 199.352C148.332 199.214 148.255 199.056 148.211 198.888L146.439 192.175L139.823 188.298V196.057L144.661 200.97C144.786 201.092 144.885 201.239 144.954 201.4C145.022 201.562 145.058 201.736 145.06 201.912C145.061 202.088 145.028 202.263 144.963 202.426C144.897 202.588 144.8 202.737 144.678 202.861C144.555 202.986 144.41 203.084 144.249 203.151C144.089 203.217 143.917 203.251 143.744 203.25C143.571 203.248 143.399 203.212 143.24 203.142C143.081 203.073 142.937 202.972 142.816 202.845L139.823 199.805V203.674C139.823 204.026 139.685 204.363 139.441 204.612C139.196 204.86 138.864 205 138.518 205C138.172 205 137.84 204.86 137.595 204.612C137.35 204.363 137.212 204.026 137.212 203.674V199.804L134.219 202.844C133.972 203.078 133.644 203.205 133.306 203.199C132.968 203.193 132.646 203.054 132.406 202.811C132.167 202.568 132.03 202.241 132.024 201.897C132.018 201.554 132.144 201.222 132.374 200.97L137.212 196.057V188.296L130.596 192.175L128.824 198.888C128.78 199.056 128.703 199.214 128.599 199.352C128.495 199.49 128.365 199.606 128.216 199.693C128.068 199.78 127.904 199.837 127.734 199.86C127.564 199.882 127.391 199.871 127.226 199.826C127.06 199.781 126.905 199.703 126.769 199.597C126.633 199.491 126.519 199.359 126.433 199.208C126.347 199.058 126.292 198.891 126.269 198.719C126.247 198.546 126.258 198.371 126.303 198.202L127.399 194.049L124.099 195.986C123.799 196.162 123.443 196.209 123.108 196.118C122.774 196.027 122.489 195.805 122.316 195.5C122.143 195.195 122.096 194.833 122.185 194.494C122.275 194.154 122.494 193.864 122.794 193.688L126.094 191.755L122.004 190.641C121.834 190.6 121.674 190.525 121.533 190.42C121.392 190.315 121.274 190.183 121.184 190.03C121.095 189.878 121.036 189.709 121.012 189.533C120.988 189.358 120.999 189.179 121.045 189.008C121.09 188.836 121.169 188.676 121.276 188.536C121.384 188.396 121.518 188.28 121.67 188.193C121.823 188.107 121.991 188.053 122.164 188.034C122.338 188.015 122.514 188.031 122.681 188.082L129.291 189.88L135.907 186L129.291 182.12L122.681 183.92C122.515 183.965 122.343 183.976 122.173 183.953C122.002 183.931 121.839 183.874 121.69 183.787C121.541 183.7 121.411 183.584 121.307 183.445C121.203 183.307 121.126 183.149 121.082 182.981C121.037 182.813 121.026 182.637 121.049 182.465C121.071 182.292 121.127 182.126 121.213 181.975C121.298 181.824 121.413 181.692 121.549 181.586C121.685 181.48 121.84 181.402 122.006 181.357L126.094 180.245L122.794 178.312C122.646 178.225 122.515 178.109 122.411 177.971C122.307 177.832 122.23 177.675 122.185 177.506C122.141 177.338 122.13 177.163 122.152 176.99C122.174 176.817 122.23 176.651 122.316 176.5C122.401 176.349 122.515 176.217 122.651 176.111C122.787 176.005 122.943 175.927 123.108 175.882C123.443 175.791 123.799 175.838 124.099 176.014L127.397 177.951L126.301 173.799C126.211 173.46 126.258 173.097 126.432 172.793C126.605 172.488 126.89 172.266 127.225 172.175C127.56 172.084 127.916 172.132 128.216 172.308C128.516 172.484 128.735 172.774 128.824 173.114L130.594 179.826L137.212 183.702V175.943L132.374 171.03C132.144 170.778 132.018 170.446 132.024 170.103C132.03 169.759 132.167 169.432 132.406 169.189C132.646 168.946 132.968 168.807 133.306 168.801C133.644 168.795 133.972 168.922 134.219 169.156L137.212 172.196V168.326C137.212 167.974 137.35 167.637 137.595 167.388C137.84 167.14 138.172 167 138.518 167Z" fill="#30373E"/>
<path d="M155.762 72.4458C160.202 70.8987 164.872 70.1119 169.573 70.1185C174.315 70.1185 178.875 70.9088 183.131 72.3588M183.131 72.3588C199.357 77.905 211 93.1373 211 111.059C211 133.672 192.454 152 169.573 152H97.0735C79.9127 152 66 138.254 66 121.296C66 104.338 79.9127 90.5925 97.0735 90.5853C99.0933 90.5855 101.108 90.7797 103.091 91.1653M183.131 72.3588C180.818 51.9065 163.266 36 141.951 36C119.07 36 100.525 54.328 100.525 76.9408C100.519 81.7979 101.388 86.6164 103.091 91.1653M103.091 91.1653C107.102 91.9443 110.921 93.5062 114.329 95.7618" stroke="#30373E" stroke-width="10" stroke-linecap="round"/>
<path d="M61.6143 70.8907C55.0985 74.9462 47.2385 76.2472 39.7635 74.5076C32.2884 72.7679 25.8106 68.1301 21.7551 61.6143L17.7711 64.094C27.5857 79.8625 48.3254 84.6892 64.094 74.8746L61.6143 70.8907ZM21.7551 61.6143C17.6995 55.0985 16.3985 47.2385 18.1381 39.7635C19.8778 32.2884 24.5157 25.8106 31.0314 21.7551L28.5518 17.7711C12.7832 27.5857 7.95649 48.3254 17.7711 64.094L21.7551 61.6143ZM31.0314 21.7551C37.5472 17.6995 45.4072 16.3985 52.8823 18.1382C60.3573 19.8778 66.8351 24.5157 70.8907 31.0315L74.8746 28.5518C65.06 12.7832 44.3203 7.9565 28.5518 17.7711L31.0314 21.7551ZM46.1329 59.3383C43.6118 55.288 42.8031 50.4021 43.8845 45.7554C44.9659 41.1087 47.8489 37.082 51.8993 34.561L49.4196 30.577C44.3126 33.7557 40.6775 38.8329 39.314 44.6917C37.9505 50.5505 38.9702 56.7111 42.1489 61.818L46.1329 59.3383ZM61.6608 67.8217C58.5607 67.8668 55.5016 67.1093 52.7808 65.6228C50.0599 64.1364 47.7698 61.9714 46.1329 59.3383L42.1489 61.818C44.2126 65.1376 47.0995 67.8672 50.5294 69.742C53.9593 71.6167 57.8156 72.5728 61.724 72.5174L61.6608 67.8217ZM51.8993 34.561C54.5307 32.9215 57.5414 31.9904 60.6389 31.8581C63.7365 31.7257 66.8156 32.3966 69.5773 33.8056L71.7047 29.622C68.223 27.8465 64.3413 27.0015 60.4366 27.1688C56.5318 27.3362 52.7367 28.5102 49.4196 30.577L51.8993 34.561ZM70.8907 31.0315C70.7294 30.7582 70.6828 30.4321 70.761 30.1246C70.801 29.9415 70.8976 29.7756 71.0371 29.6506C71.1129 29.5887 71.3552 29.4452 71.7047 29.622L69.5773 33.8056C71.2162 34.639 72.9634 34.1485 74.0292 33.2677C75.1352 32.3509 76.0599 30.4561 74.8746 28.5518L70.8907 31.0315ZM61.724 72.5174C61.3307 72.519 61.1766 72.2833 61.136 72.1943C61.066 72.0205 61.0525 71.829 61.0976 71.6471C61.1631 71.3366 61.3489 71.0647 61.6143 70.8907L64.094 74.8746C65.9983 73.6893 66.0052 71.581 65.4177 70.27C64.8503 69.0091 63.4993 67.7976 61.6608 67.8217L61.724 72.5174Z" fill="#30373E"/>
</svg>
