<svg width="203" height="219" viewBox="0 0 203 219" fill="none" xmlns="http://www.w3.org/2000/svg">
<path d="M59.5307 69.9687C52.9808 73.7503 45.1969 74.775 37.8914 72.8175C30.5859 70.86 24.3573 66.0806 20.5757 59.5307L16.5708 61.8429C25.7225 77.694 45.9918 83.1252 61.8429 73.9735L59.5307 69.9687ZM20.5757 59.5307C16.7941 52.9807 15.7693 45.1968 17.7268 37.8913C19.6843 30.5859 24.4637 24.3572 31.0137 20.5756L28.7015 16.5707C12.8503 25.7224 7.41915 45.9917 16.5708 61.8429L20.5757 59.5307ZM31.0137 20.5756C37.5636 16.794 45.3475 15.7692 52.653 17.7267C59.9585 19.6842 66.1871 24.4636 69.9687 31.0136L73.9736 28.7014C64.8219 12.8502 44.5526 7.41907 28.7015 16.5707L31.0137 20.5756ZM44.6601 58.085C42.3093 54.0135 41.6723 49.1748 42.8891 44.6336C44.106 40.0923 47.077 36.2205 51.1485 33.8697L48.8363 29.8649C43.7026 32.8288 39.9566 37.7108 38.4223 43.4367C36.8881 49.1626 37.6913 55.2635 40.6552 60.3972L44.6601 58.085ZM59.6768 66.9475C56.6219 66.8907 53.6338 66.0447 51.0025 64.4918C48.3712 62.9389 46.1863 60.7319 44.6601 58.085L40.6552 60.3972C42.5794 63.7341 45.3337 66.5169 48.6506 68.4753C51.9675 70.4337 55.7344 71.5013 59.5857 71.5745L59.6768 66.9475ZM51.1485 33.8697C53.7938 32.3409 56.7895 31.5222 59.8446 31.493C62.8998 31.4637 65.9106 32.2251 68.5846 33.703L70.8166 29.6519C67.4453 27.7896 63.6497 26.8305 59.7984 26.8678C55.9471 26.9052 52.1709 27.9376 48.8363 29.8649L51.1485 33.8697ZM69.9687 31.0136C69.8188 30.7391 69.7835 30.4165 69.8707 30.1161C69.916 29.9371 70.0166 29.7769 70.1581 29.6583C70.2347 29.5998 70.4781 29.4664 70.8166 29.6519L68.5846 33.703C70.1716 34.5773 71.9084 34.1513 72.9869 33.3186C74.1061 32.4517 75.0788 30.6157 73.9736 28.7014L69.9687 31.0136ZM59.5857 71.5745C59.1983 71.5632 59.0542 71.326 59.0171 71.237C58.9538 71.0635 58.9468 70.8745 58.9971 70.6968C59.0718 70.3931 59.2637 70.1314 59.5307 69.9687L61.8429 73.9735C63.7573 72.8683 63.8329 70.7919 63.2971 69.4815C62.7794 68.2212 61.4883 66.9838 59.6768 66.9475L59.5857 71.5745Z" fill="#30373E"/>
<path fill-rule="evenodd" clip-rule="evenodd" d="M123.518 181C123.864 181 124.196 181.14 124.441 181.388C124.685 181.637 124.823 181.974 124.823 182.326V186.196L127.816 183.156C128.064 182.922 128.391 182.795 128.729 182.801C129.067 182.807 129.39 182.946 129.629 183.189C129.868 183.432 130.005 183.759 130.011 184.103C130.017 184.446 129.891 184.778 129.661 185.03L124.823 189.943V197.704L131.439 193.825L133.211 187.112C133.255 186.944 133.332 186.786 133.436 186.648C133.541 186.51 133.671 186.394 133.819 186.307C133.968 186.22 134.131 186.163 134.301 186.14C134.471 186.118 134.644 186.129 134.81 186.174C134.975 186.219 135.13 186.297 135.266 186.403C135.402 186.509 135.516 186.641 135.602 186.792C135.688 186.942 135.744 187.109 135.766 187.281C135.788 187.454 135.777 187.629 135.733 187.798L134.636 191.951L137.936 190.016C138.236 189.843 138.59 189.797 138.923 189.889C139.256 189.981 139.539 190.202 139.711 190.505C139.884 190.808 139.931 191.168 139.843 191.507C139.755 191.845 139.539 192.135 139.241 192.312L135.943 194.245L140.033 195.359C140.367 195.45 140.652 195.672 140.825 195.977C140.998 196.281 141.045 196.643 140.955 196.983C140.866 197.323 140.647 197.612 140.347 197.788C140.047 197.963 139.69 198.011 139.356 197.92L132.746 196.12L126.128 200L132.745 203.88L139.354 202.08C139.689 201.989 140.045 202.037 140.345 202.213C140.645 202.389 140.864 202.679 140.954 203.019C141.043 203.359 140.996 203.721 140.823 204.025C140.649 204.33 140.364 204.552 140.03 204.643L135.942 205.755L139.241 207.69C139.391 207.777 139.522 207.892 139.628 208.03C139.733 208.168 139.811 208.326 139.856 208.495C139.901 208.664 139.913 208.84 139.89 209.013C139.868 209.187 139.812 209.354 139.726 209.505C139.64 209.657 139.526 209.789 139.389 209.895C139.252 210.002 139.096 210.079 138.93 210.124C138.763 210.169 138.59 210.18 138.419 210.156C138.249 210.132 138.084 210.074 137.936 209.986L134.636 208.051L135.733 212.202C135.777 212.371 135.788 212.546 135.766 212.719C135.744 212.891 135.688 213.058 135.602 213.208C135.516 213.359 135.402 213.491 135.266 213.597C135.13 213.703 134.975 213.781 134.81 213.826C134.644 213.871 134.471 213.882 134.301 213.86C134.131 213.837 133.968 213.78 133.819 213.693C133.671 213.606 133.541 213.49 133.436 213.352C133.332 213.214 133.255 213.056 133.211 212.888L131.439 206.175L124.823 202.298V210.057L129.661 214.97C129.786 215.092 129.885 215.239 129.954 215.4C130.022 215.562 130.058 215.736 130.06 215.912C130.061 216.088 130.028 216.263 129.963 216.426C129.897 216.588 129.8 216.737 129.678 216.861C129.555 216.986 129.41 217.084 129.249 217.151C129.089 217.217 128.917 217.251 128.744 217.25C128.571 217.248 128.399 217.212 128.24 217.142C128.081 217.073 127.937 216.972 127.816 216.845L124.823 213.805V217.674C124.823 218.026 124.685 218.363 124.441 218.612C124.196 218.86 123.864 219 123.518 219C123.172 219 122.84 218.86 122.595 218.612C122.35 218.363 122.212 218.026 122.212 217.674V213.804L119.219 216.844C118.972 217.078 118.644 217.205 118.306 217.199C117.968 217.193 117.646 217.054 117.406 216.811C117.167 216.568 117.03 216.241 117.024 215.897C117.018 215.554 117.144 215.222 117.374 214.97L122.212 210.057V202.296L115.596 206.175L113.824 212.888C113.78 213.056 113.703 213.214 113.599 213.352C113.495 213.49 113.365 213.606 113.216 213.693C113.068 213.78 112.904 213.837 112.734 213.86C112.564 213.882 112.391 213.871 112.226 213.826C112.06 213.781 111.905 213.703 111.769 213.597C111.633 213.491 111.519 213.359 111.433 213.208C111.347 213.058 111.292 212.891 111.269 212.719C111.247 212.546 111.258 212.371 111.303 212.202L112.399 208.049L109.099 209.986C108.799 210.162 108.443 210.209 108.108 210.118C107.774 210.027 107.489 209.805 107.316 209.5C107.143 209.195 107.096 208.833 107.185 208.494C107.275 208.154 107.494 207.864 107.794 207.688L111.094 205.755L107.004 204.641C106.834 204.6 106.674 204.525 106.533 204.42C106.392 204.315 106.274 204.183 106.184 204.03C106.095 203.878 106.036 203.709 106.012 203.533C105.988 203.358 105.999 203.179 106.045 203.008C106.09 202.836 106.169 202.676 106.276 202.536C106.384 202.396 106.518 202.28 106.67 202.193C106.823 202.107 106.991 202.053 107.164 202.034C107.338 202.015 107.514 202.031 107.681 202.082L114.291 203.88L120.907 200L114.291 196.12L107.681 197.92C107.515 197.965 107.343 197.976 107.173 197.953C107.002 197.931 106.839 197.874 106.69 197.787C106.541 197.7 106.411 197.584 106.307 197.445C106.203 197.307 106.126 197.149 106.082 196.981C106.037 196.813 106.026 196.637 106.049 196.465C106.071 196.292 106.127 196.126 106.213 195.975C106.298 195.824 106.413 195.692 106.549 195.586C106.685 195.48 106.84 195.402 107.006 195.357L111.094 194.245L107.794 192.312C107.646 192.225 107.515 192.109 107.411 191.971C107.307 191.832 107.23 191.675 107.185 191.506C107.141 191.338 107.13 191.163 107.152 190.99C107.174 190.817 107.23 190.651 107.316 190.5C107.401 190.349 107.515 190.217 107.651 190.111C107.787 190.005 107.943 189.927 108.108 189.882C108.443 189.791 108.799 189.838 109.099 190.014L112.397 191.951L111.301 187.799C111.211 187.46 111.258 187.097 111.432 186.793C111.605 186.488 111.89 186.266 112.225 186.175C112.56 186.084 112.916 186.132 113.216 186.308C113.516 186.484 113.735 186.774 113.824 187.114L115.594 193.826L122.212 197.702V189.943L117.374 185.03C117.144 184.778 117.018 184.446 117.024 184.103C117.03 183.759 117.167 183.432 117.406 183.189C117.646 182.946 117.968 182.807 118.306 182.801C118.644 182.795 118.972 182.922 119.219 183.156L122.212 186.196V182.326C122.212 181.974 122.35 181.637 122.595 181.388C122.84 181.14 123.172 181 123.518 181Z" fill="#30373E"/>
<path d="M142.762 80.4458C147.202 78.8987 151.872 78.1119 156.573 78.1185C161.315 78.1185 165.875 78.9088 170.131 80.3588M170.131 80.3588C186.357 85.905 198 101.137 198 119.059C198 141.672 179.454 160 156.573 160H84.0735C66.9127 160 53 146.254 53 129.296C53 112.338 66.9127 98.5925 84.0735 98.5853C86.0933 98.5855 88.1084 98.7797 90.091 99.1653M170.131 80.3588C167.818 59.9065 150.266 44 128.951 44C106.07 44 87.5245 62.328 87.5245 84.9408C87.5185 89.7979 88.3879 94.6164 90.091 99.1653M90.091 99.1653C94.1024 99.9443 97.921 101.506 101.329 103.762" stroke="#30373E" stroke-width="10" stroke-linecap="round"/>
</svg>
