<svg width="207" height="214" viewBox="0 0 207 214" fill="none" xmlns="http://www.w3.org/2000/svg">
<path d="M59.5307 69.9687C52.9808 73.7503 45.1969 74.775 37.8914 72.8175C30.5859 70.86 24.3573 66.0806 20.5757 59.5307L16.5708 61.8429C25.7225 77.694 45.9918 83.1252 61.8429 73.9735L59.5307 69.9687ZM20.5757 59.5307C16.7941 52.9807 15.7693 45.1968 17.7268 37.8913C19.6843 30.5859 24.4637 24.3572 31.0137 20.5756L28.7015 16.5707C12.8503 25.7224 7.41915 45.9917 16.5708 61.8429L20.5757 59.5307ZM31.0137 20.5756C37.5636 16.794 45.3475 15.7692 52.653 17.7267C59.9585 19.6842 66.1871 24.4636 69.9687 31.0136L73.9736 28.7014C64.8219 12.8502 44.5526 7.41907 28.7015 16.5707L31.0137 20.5756ZM44.6601 58.085C42.3093 54.0135 41.6723 49.1748 42.8891 44.6336C44.106 40.0923 47.077 36.2205 51.1485 33.8697L48.8363 29.8649C43.7026 32.8288 39.9566 37.7108 38.4223 43.4367C36.8881 49.1626 37.6913 55.2635 40.6552 60.3972L44.6601 58.085ZM59.6768 66.9475C56.6219 66.8907 53.6338 66.0447 51.0025 64.4918C48.3712 62.9389 46.1863 60.7319 44.6601 58.085L40.6552 60.3972C42.5794 63.7341 45.3337 66.5169 48.6506 68.4753C51.9675 70.4337 55.7344 71.5013 59.5857 71.5745L59.6768 66.9475ZM51.1485 33.8697C53.7938 32.3409 56.7895 31.5222 59.8446 31.493C62.8998 31.4637 65.9106 32.2251 68.5846 33.703L70.8166 29.6519C67.4453 27.7896 63.6497 26.8305 59.7984 26.8678C55.9471 26.9052 52.1709 27.9376 48.8363 29.8649L51.1485 33.8697ZM69.9687 31.0136C69.8188 30.7391 69.7835 30.4165 69.8707 30.1161C69.916 29.9371 70.0166 29.7769 70.1581 29.6583C70.2347 29.5998 70.4781 29.4664 70.8166 29.6519L68.5846 33.703C70.1716 34.5773 71.9084 34.1513 72.9869 33.3186C74.1061 32.4517 75.0788 30.6157 73.9736 28.7014L69.9687 31.0136ZM59.5857 71.5745C59.1983 71.5632 59.0542 71.326 59.0171 71.237C58.9538 71.0635 58.9468 70.8745 58.9971 70.6968C59.0718 70.3931 59.2637 70.1314 59.5307 69.9687L61.8429 73.9735C63.7573 72.8683 63.8329 70.7919 63.2971 69.4815C62.7794 68.2212 61.4883 66.9838 59.6768 66.9475L59.5857 71.5745Z" fill="#30373E"/>
<path fill-rule="evenodd" clip-rule="evenodd" d="M148.518 176C148.864 176 149.196 176.14 149.441 176.388C149.685 176.637 149.823 176.974 149.823 177.326V181.196L152.816 178.156C153.064 177.922 153.391 177.795 153.729 177.801C154.067 177.807 154.39 177.946 154.629 178.189C154.868 178.432 155.005 178.759 155.011 179.103C155.017 179.446 154.891 179.778 154.661 180.03L149.823 184.943V192.704L156.439 188.825L158.211 182.112C158.255 181.944 158.332 181.786 158.436 181.648C158.541 181.51 158.671 181.394 158.819 181.307C158.968 181.22 159.131 181.163 159.301 181.14C159.471 181.118 159.644 181.129 159.81 181.174C159.975 181.219 160.13 181.297 160.266 181.403C160.402 181.509 160.516 181.641 160.602 181.792C160.688 181.942 160.744 182.109 160.766 182.281C160.788 182.454 160.777 182.629 160.733 182.798L159.636 186.951L162.936 185.016C163.236 184.843 163.59 184.797 163.923 184.889C164.256 184.981 164.539 185.202 164.711 185.505C164.884 185.808 164.931 186.168 164.843 186.507C164.755 186.845 164.539 187.135 164.241 187.312L160.943 189.245L165.033 190.359C165.367 190.45 165.652 190.672 165.825 190.977C165.998 191.281 166.045 191.643 165.955 191.983C165.866 192.323 165.647 192.612 165.347 192.788C165.047 192.963 164.69 193.011 164.356 192.92L157.746 191.12L151.128 195L157.745 198.88L164.354 197.08C164.689 196.989 165.045 197.037 165.345 197.213C165.645 197.389 165.864 197.679 165.954 198.019C166.043 198.359 165.996 198.721 165.823 199.025C165.649 199.33 165.364 199.552 165.03 199.643L160.942 200.755L164.241 202.69C164.391 202.777 164.522 202.892 164.628 203.03C164.733 203.168 164.811 203.326 164.856 203.495C164.901 203.664 164.913 203.84 164.89 204.013C164.868 204.187 164.812 204.354 164.726 204.505C164.64 204.657 164.526 204.789 164.389 204.895C164.252 205.002 164.096 205.079 163.93 205.124C163.763 205.169 163.59 205.18 163.419 205.156C163.249 205.132 163.084 205.074 162.936 204.986L159.636 203.051L160.733 207.202C160.777 207.371 160.788 207.546 160.766 207.719C160.744 207.891 160.688 208.058 160.602 208.208C160.516 208.359 160.402 208.491 160.266 208.597C160.13 208.703 159.975 208.781 159.81 208.826C159.644 208.871 159.471 208.882 159.301 208.86C159.131 208.837 158.968 208.78 158.819 208.693C158.671 208.606 158.541 208.49 158.436 208.352C158.332 208.214 158.255 208.056 158.211 207.888L156.439 201.175L149.823 197.298V205.057L154.661 209.97C154.786 210.092 154.885 210.239 154.954 210.4C155.022 210.562 155.058 210.736 155.06 210.912C155.061 211.088 155.028 211.263 154.963 211.426C154.897 211.588 154.8 211.737 154.678 211.861C154.555 211.986 154.41 212.084 154.249 212.151C154.089 212.217 153.917 212.251 153.744 212.25C153.571 212.248 153.399 212.212 153.24 212.142C153.081 212.073 152.937 211.972 152.816 211.845L149.823 208.805V212.674C149.823 213.026 149.685 213.363 149.441 213.612C149.196 213.86 148.864 214 148.518 214C148.172 214 147.84 213.86 147.595 213.612C147.35 213.363 147.212 213.026 147.212 212.674V208.804L144.219 211.844C143.972 212.078 143.644 212.205 143.306 212.199C142.968 212.193 142.646 212.054 142.406 211.811C142.167 211.568 142.03 211.241 142.024 210.897C142.018 210.554 142.144 210.222 142.374 209.97L147.212 205.057V197.296L140.596 201.175L138.824 207.888C138.78 208.056 138.703 208.214 138.599 208.352C138.495 208.49 138.365 208.606 138.216 208.693C138.068 208.78 137.904 208.837 137.734 208.86C137.564 208.882 137.391 208.871 137.226 208.826C137.06 208.781 136.905 208.703 136.769 208.597C136.633 208.491 136.519 208.359 136.433 208.208C136.347 208.058 136.292 207.891 136.269 207.719C136.247 207.546 136.258 207.371 136.303 207.202L137.399 203.049L134.099 204.986C133.799 205.162 133.443 205.209 133.108 205.118C132.774 205.027 132.489 204.805 132.316 204.5C132.143 204.195 132.096 203.833 132.185 203.494C132.275 203.154 132.494 202.864 132.794 202.688L136.094 200.755L132.004 199.641C131.834 199.6 131.674 199.525 131.533 199.42C131.392 199.315 131.274 199.183 131.184 199.03C131.095 198.878 131.036 198.709 131.012 198.533C130.988 198.358 130.999 198.179 131.045 198.008C131.09 197.836 131.169 197.676 131.276 197.536C131.384 197.396 131.518 197.28 131.67 197.193C131.823 197.107 131.991 197.053 132.164 197.034C132.338 197.015 132.514 197.031 132.681 197.082L139.291 198.88L145.907 195L139.291 191.12L132.681 192.92C132.515 192.965 132.343 192.976 132.173 192.953C132.002 192.931 131.839 192.874 131.69 192.787C131.541 192.7 131.411 192.584 131.307 192.445C131.203 192.307 131.126 192.149 131.082 191.981C131.037 191.813 131.026 191.637 131.049 191.465C131.071 191.292 131.127 191.126 131.213 190.975C131.298 190.824 131.413 190.692 131.549 190.586C131.685 190.48 131.84 190.402 132.006 190.357L136.094 189.245L132.794 187.312C132.646 187.225 132.515 187.109 132.411 186.971C132.307 186.832 132.23 186.675 132.185 186.506C132.141 186.338 132.13 186.163 132.152 185.99C132.174 185.817 132.23 185.651 132.316 185.5C132.401 185.349 132.515 185.217 132.651 185.111C132.787 185.005 132.943 184.927 133.108 184.882C133.443 184.791 133.799 184.838 134.099 185.014L137.397 186.951L136.301 182.799C136.211 182.46 136.258 182.097 136.432 181.793C136.605 181.488 136.89 181.266 137.225 181.175C137.56 181.084 137.916 181.132 138.216 181.308C138.516 181.484 138.735 181.774 138.824 182.114L140.594 188.826L147.212 192.702V184.943L142.374 180.03C142.144 179.778 142.018 179.446 142.024 179.103C142.03 178.759 142.167 178.432 142.406 178.189C142.646 177.946 142.968 177.807 143.306 177.801C143.644 177.795 143.972 177.922 144.219 178.156L147.212 181.196V177.326C147.212 176.974 147.35 176.637 147.595 176.388C147.84 176.14 148.172 176 148.518 176Z" fill="#30373E"/>
<path fill-rule="evenodd" clip-rule="evenodd" d="M102.518 176C102.864 176 103.196 176.14 103.441 176.388C103.685 176.637 103.823 176.974 103.823 177.326V181.196L106.816 178.156C107.064 177.922 107.391 177.795 107.729 177.801C108.067 177.807 108.39 177.946 108.629 178.189C108.868 178.432 109.005 178.759 109.011 179.103C109.017 179.446 108.891 179.778 108.661 180.03L103.823 184.943V192.704L110.439 188.825L112.211 182.112C112.255 181.944 112.332 181.786 112.436 181.648C112.541 181.51 112.671 181.394 112.819 181.307C112.968 181.22 113.131 181.163 113.301 181.14C113.471 181.118 113.644 181.129 113.81 181.174C113.975 181.219 114.13 181.297 114.266 181.403C114.402 181.509 114.516 181.641 114.602 181.792C114.688 181.942 114.744 182.109 114.766 182.281C114.788 182.454 114.777 182.629 114.733 182.798L113.636 186.951L116.936 185.016C117.236 184.843 117.59 184.797 117.923 184.889C118.256 184.981 118.539 185.202 118.711 185.505C118.884 185.808 118.931 186.168 118.843 186.507C118.755 186.845 118.539 187.135 118.241 187.312L114.943 189.245L119.033 190.359C119.367 190.45 119.652 190.672 119.825 190.977C119.998 191.281 120.045 191.643 119.955 191.983C119.866 192.323 119.647 192.612 119.347 192.788C119.047 192.963 118.69 193.011 118.356 192.92L111.746 191.12L105.128 195L111.745 198.88L118.354 197.08C118.689 196.989 119.045 197.037 119.345 197.213C119.645 197.389 119.864 197.679 119.954 198.019C120.043 198.359 119.996 198.721 119.823 199.025C119.649 199.33 119.364 199.552 119.03 199.643L114.942 200.755L118.241 202.69C118.391 202.777 118.522 202.892 118.628 203.03C118.733 203.168 118.811 203.326 118.856 203.495C118.901 203.664 118.913 203.84 118.89 204.013C118.868 204.187 118.812 204.354 118.726 204.505C118.64 204.657 118.526 204.789 118.389 204.895C118.252 205.002 118.096 205.079 117.93 205.124C117.763 205.169 117.59 205.18 117.419 205.156C117.249 205.132 117.084 205.074 116.936 204.986L113.636 203.051L114.733 207.202C114.777 207.371 114.788 207.546 114.766 207.719C114.744 207.891 114.688 208.058 114.602 208.208C114.516 208.359 114.402 208.491 114.266 208.597C114.13 208.703 113.975 208.781 113.81 208.826C113.644 208.871 113.471 208.882 113.301 208.86C113.131 208.837 112.968 208.78 112.819 208.693C112.671 208.606 112.541 208.49 112.436 208.352C112.332 208.214 112.255 208.056 112.211 207.888L110.439 201.175L103.823 197.298V205.057L108.661 209.97C108.786 210.092 108.885 210.239 108.954 210.4C109.022 210.562 109.058 210.736 109.06 210.912C109.061 211.088 109.028 211.263 108.963 211.426C108.897 211.588 108.8 211.737 108.678 211.861C108.555 211.986 108.41 212.084 108.249 212.151C108.089 212.217 107.917 212.251 107.744 212.25C107.571 212.248 107.399 212.212 107.24 212.142C107.081 212.073 106.937 211.972 106.816 211.845L103.823 208.805V212.674C103.823 213.026 103.685 213.363 103.441 213.612C103.196 213.86 102.864 214 102.518 214C102.172 214 101.84 213.86 101.595 213.612C101.35 213.363 101.212 213.026 101.212 212.674V208.804L98.2192 211.844C97.9717 212.078 97.6445 212.205 97.3063 212.199C96.9682 212.193 96.6456 212.054 96.4064 211.811C96.1673 211.568 96.0303 211.241 96.0243 210.897C96.0184 210.554 96.1439 210.222 96.3745 209.97L101.212 205.057V197.296L94.5959 201.175L92.8243 207.888C92.7799 208.056 92.7034 208.214 92.5991 208.352C92.4948 208.49 92.3647 208.606 92.2162 208.693C92.0678 208.78 91.9039 208.837 91.734 208.86C91.5641 208.882 91.3914 208.871 91.2258 208.826C91.0602 208.781 90.905 208.703 90.769 208.597C90.633 208.491 90.5189 208.359 90.4331 208.208C90.3474 208.058 90.2918 207.891 90.2694 207.719C90.247 207.546 90.2583 207.371 90.3026 207.202L91.399 203.049L88.0994 204.986C87.7994 205.162 87.4429 205.209 87.1084 205.118C86.7738 205.027 86.4887 204.805 86.3156 204.5C86.1425 204.195 86.0957 203.833 86.1854 203.494C86.2752 203.154 86.4942 202.864 86.7942 202.688L90.0938 200.755L86.0041 199.641C85.8341 199.6 85.674 199.525 85.5332 199.42C85.3923 199.315 85.2737 199.183 85.1842 199.03C85.0948 198.878 85.0363 198.709 85.0123 198.533C84.9884 198.358 84.9994 198.179 85.0447 198.008C85.09 197.836 85.1687 197.676 85.2762 197.536C85.3836 197.396 85.5176 197.28 85.6702 197.193C85.8228 197.107 85.9909 197.053 86.1645 197.034C86.3381 197.015 86.5138 197.031 86.681 197.082L93.2907 198.88L99.9072 195L93.2907 191.12L86.681 192.92C86.5154 192.965 86.3426 192.976 86.1725 192.953C86.0025 192.931 85.8385 192.874 85.69 192.787C85.5415 192.7 85.4113 192.584 85.307 192.445C85.2026 192.307 85.1261 192.149 85.0817 191.981C85.0374 191.813 85.0261 191.637 85.0486 191.465C85.071 191.292 85.1267 191.126 85.2125 190.975C85.2983 190.824 85.4126 190.692 85.5487 190.586C85.6848 190.48 85.8401 190.402 86.0058 190.357L90.0938 189.245L86.7942 187.312C86.6456 187.225 86.5154 187.109 86.411 186.971C86.3065 186.832 86.2299 186.675 86.1854 186.506C86.141 186.338 86.1296 186.163 86.152 185.99C86.1743 185.817 86.2299 185.651 86.3156 185.5C86.4013 185.349 86.5154 185.217 86.6514 185.111C86.7875 185.005 86.9427 184.927 87.1084 184.882C87.4429 184.791 87.7994 184.838 88.0994 185.014L91.3972 186.951L90.3008 182.799C90.2113 182.46 90.2584 182.097 90.4317 181.793C90.605 181.488 90.8903 181.266 91.2249 181.175C91.5596 181.084 91.9161 181.132 92.216 181.308C92.5159 181.484 92.7347 181.774 92.8243 182.114L94.5941 188.826L101.212 192.702V184.943L96.3745 180.03C96.1439 179.778 96.0184 179.446 96.0243 179.103C96.0303 178.759 96.1673 178.432 96.4064 178.189C96.6456 177.946 96.9682 177.807 97.3063 177.801C97.6445 177.795 97.9717 177.922 98.2192 178.156L101.212 181.196V177.326C101.212 176.974 101.35 176.637 101.595 176.388C101.84 176.14 102.172 176 102.518 176Z" fill="#30373E"/>
<path d="M146.762 75.4458C151.202 73.8987 155.872 73.1119 160.573 73.1185C165.315 73.1185 169.875 73.9088 174.131 75.3588M174.131 75.3588C190.357 80.905 202 96.1373 202 114.059C202 136.672 183.454 155 160.573 155H88.0735C70.9127 155 57 141.254 57 124.296C57 107.338 70.9127 93.5925 88.0735 93.5853C90.0933 93.5855 92.1084 93.7797 94.091 94.1653M174.131 75.3588C171.818 54.9065 154.266 39 132.951 39C110.07 39 91.5245 57.328 91.5245 79.9408C91.5185 84.7979 92.3879 89.6164 94.091 94.1653M94.091 94.1653C98.1024 94.9443 101.921 96.5062 105.329 98.7618" stroke="#30373E" stroke-width="10" stroke-linecap="round"/>
</svg>
