<svg width="221" height="204" viewBox="0 0 221 204" fill="none" xmlns="http://www.w3.org/2000/svg">
<path d="M61.6143 70.8907C55.0985 74.9462 47.2385 76.2472 39.7635 74.5076C32.2884 72.7679 25.8106 68.1301 21.7551 61.6143L17.7711 64.094C27.5857 79.8625 48.3254 84.6892 64.094 74.8746L61.6143 70.8907ZM21.7551 61.6143C17.6995 55.0985 16.3985 47.2385 18.1381 39.7635C19.8778 32.2884 24.5157 25.8106 31.0314 21.7551L28.5518 17.7711C12.7832 27.5857 7.95649 48.3254 17.7711 64.094L21.7551 61.6143ZM31.0314 21.7551C37.5472 17.6995 45.4072 16.3985 52.8823 18.1382C60.3573 19.8778 66.8351 24.5157 70.8907 31.0315L74.8746 28.5518C65.06 12.7832 44.3203 7.9565 28.5518 17.7711L31.0314 21.7551ZM46.1329 59.3383C43.6118 55.288 42.8031 50.4021 43.8845 45.7554C44.9659 41.1087 47.8489 37.082 51.8993 34.561L49.4196 30.577C44.3126 33.7557 40.6775 38.8329 39.314 44.6917C37.9505 50.5505 38.9702 56.7111 42.1489 61.818L46.1329 59.3383ZM61.6608 67.8217C58.5607 67.8668 55.5016 67.1093 52.7808 65.6228C50.0599 64.1364 47.7698 61.9714 46.1329 59.3383L42.1489 61.818C44.2126 65.1376 47.0995 67.8672 50.5294 69.742C53.9593 71.6167 57.8156 72.5728 61.724 72.5174L61.6608 67.8217ZM51.8993 34.561C54.5307 32.9215 57.5414 31.9904 60.6389 31.8581C63.7365 31.7257 66.8156 32.3966 69.5773 33.8056L71.7047 29.622C68.223 27.8465 64.3413 27.0015 60.4366 27.1688C56.5318 27.3362 52.7367 28.5102 49.4196 30.577L51.8993 34.561ZM70.8907 31.0315C70.7294 30.7582 70.6828 30.4321 70.761 30.1246C70.801 29.9415 70.8976 29.7756 71.0371 29.6506C71.1129 29.5887 71.3552 29.4452 71.7047 29.622L69.5773 33.8056C71.2162 34.639 72.9634 34.1485 74.0292 33.2677C75.1352 32.3509 76.0599 30.4561 74.8746 28.5518L70.8907 31.0315ZM61.724 72.5174C61.3307 72.519 61.1766 72.2833 61.136 72.1943C61.066 72.0205 61.0525 71.829 61.0976 71.6471C61.1631 71.3366 61.3489 71.0647 61.6143 70.8907L64.094 74.8746C65.9983 73.6893 66.0052 71.581 65.4177 70.27C64.8503 69.0091 63.4993 67.7976 61.6608 67.8217L61.724 72.5174Z" fill="#30373E"/>
<path fill-rule="evenodd" clip-rule="evenodd" d="M142.518 163C142.864 163 143.196 163.14 143.441 163.388C143.685 163.637 143.823 163.974 143.823 164.326V168.196L146.816 165.156C147.064 164.922 147.391 164.795 147.729 164.801C148.067 164.807 148.39 164.946 148.629 165.189C148.868 165.432 149.005 165.759 149.011 166.103C149.017 166.446 148.891 166.778 148.661 167.03L143.823 171.943V179.704L150.439 175.825L152.211 169.112C152.255 168.944 152.332 168.786 152.436 168.648C152.541 168.51 152.671 168.394 152.819 168.307C152.968 168.22 153.131 168.163 153.301 168.14C153.471 168.118 153.644 168.129 153.81 168.174C153.975 168.219 154.13 168.297 154.266 168.403C154.402 168.509 154.516 168.641 154.602 168.792C154.688 168.942 154.744 169.109 154.766 169.281C154.788 169.454 154.777 169.629 154.733 169.798L153.636 173.951L156.936 172.016C157.236 171.843 157.59 171.797 157.923 171.889C158.256 171.981 158.539 172.202 158.711 172.505C158.884 172.808 158.931 173.168 158.843 173.507C158.755 173.845 158.539 174.135 158.241 174.312L154.943 176.245L159.033 177.359C159.367 177.45 159.652 177.672 159.825 177.977C159.998 178.281 160.045 178.643 159.955 178.983C159.866 179.323 159.647 179.612 159.347 179.788C159.047 179.963 158.69 180.011 158.356 179.92L151.746 178.12L145.128 182L151.745 185.88L158.354 184.08C158.689 183.989 159.045 184.037 159.345 184.213C159.645 184.389 159.864 184.679 159.954 185.019C160.043 185.359 159.996 185.721 159.823 186.025C159.649 186.33 159.364 186.552 159.03 186.643L154.942 187.755L158.241 189.69C158.391 189.777 158.522 189.892 158.628 190.03C158.733 190.168 158.811 190.326 158.856 190.495C158.901 190.664 158.913 190.84 158.89 191.013C158.868 191.187 158.812 191.354 158.726 191.505C158.64 191.657 158.526 191.789 158.389 191.895C158.252 192.002 158.096 192.079 157.93 192.124C157.763 192.169 157.59 192.18 157.419 192.156C157.249 192.132 157.084 192.074 156.936 191.986L153.636 190.051L154.733 194.202C154.777 194.371 154.788 194.546 154.766 194.719C154.744 194.891 154.688 195.058 154.602 195.208C154.516 195.359 154.402 195.491 154.266 195.597C154.13 195.703 153.975 195.781 153.81 195.826C153.644 195.871 153.471 195.882 153.301 195.86C153.131 195.837 152.968 195.78 152.819 195.693C152.671 195.606 152.541 195.49 152.436 195.352C152.332 195.214 152.255 195.056 152.211 194.888L150.439 188.175L143.823 184.298V192.057L148.661 196.97C148.786 197.092 148.885 197.239 148.954 197.4C149.022 197.562 149.058 197.736 149.06 197.912C149.061 198.088 149.028 198.263 148.963 198.426C148.897 198.588 148.8 198.737 148.678 198.861C148.555 198.986 148.41 199.084 148.249 199.151C148.089 199.217 147.917 199.251 147.744 199.25C147.571 199.248 147.399 199.212 147.24 199.142C147.081 199.073 146.937 198.972 146.816 198.845L143.823 195.805V199.674C143.823 200.026 143.685 200.363 143.441 200.612C143.196 200.86 142.864 201 142.518 201C142.172 201 141.84 200.86 141.595 200.612C141.35 200.363 141.212 200.026 141.212 199.674V195.804L138.219 198.844C137.972 199.078 137.644 199.205 137.306 199.199C136.968 199.193 136.646 199.054 136.406 198.811C136.167 198.568 136.03 198.241 136.024 197.897C136.018 197.554 136.144 197.222 136.374 196.97L141.212 192.057V184.296L134.596 188.175L132.824 194.888C132.78 195.056 132.703 195.214 132.599 195.352C132.495 195.49 132.365 195.606 132.216 195.693C132.068 195.78 131.904 195.837 131.734 195.86C131.564 195.882 131.391 195.871 131.226 195.826C131.06 195.781 130.905 195.703 130.769 195.597C130.633 195.491 130.519 195.359 130.433 195.208C130.347 195.058 130.292 194.891 130.269 194.719C130.247 194.546 130.258 194.371 130.303 194.202L131.399 190.049L128.099 191.986C127.799 192.162 127.443 192.209 127.108 192.118C126.774 192.027 126.489 191.805 126.316 191.5C126.143 191.195 126.096 190.833 126.185 190.494C126.275 190.154 126.494 189.864 126.794 189.688L130.094 187.755L126.004 186.641C125.834 186.6 125.674 186.525 125.533 186.42C125.392 186.315 125.274 186.183 125.184 186.03C125.095 185.878 125.036 185.709 125.012 185.533C124.988 185.358 124.999 185.179 125.045 185.008C125.09 184.836 125.169 184.676 125.276 184.536C125.384 184.396 125.518 184.28 125.67 184.193C125.823 184.107 125.991 184.053 126.164 184.034C126.338 184.015 126.514 184.031 126.681 184.082L133.291 185.88L139.907 182L133.291 178.12L126.681 179.92C126.515 179.965 126.343 179.976 126.173 179.953C126.002 179.931 125.839 179.874 125.69 179.787C125.541 179.7 125.411 179.584 125.307 179.445C125.203 179.307 125.126 179.149 125.082 178.981C125.037 178.813 125.026 178.637 125.049 178.465C125.071 178.292 125.127 178.126 125.213 177.975C125.298 177.824 125.413 177.692 125.549 177.586C125.685 177.48 125.84 177.402 126.006 177.357L130.094 176.245L126.794 174.312C126.646 174.225 126.515 174.109 126.411 173.971C126.307 173.832 126.23 173.675 126.185 173.506C126.141 173.338 126.13 173.163 126.152 172.99C126.174 172.817 126.23 172.651 126.316 172.5C126.401 172.349 126.515 172.217 126.651 172.111C126.787 172.005 126.943 171.927 127.108 171.882C127.443 171.791 127.799 171.838 128.099 172.014L131.397 173.951L130.301 169.799C130.211 169.46 130.258 169.097 130.432 168.793C130.605 168.488 130.89 168.266 131.225 168.175C131.56 168.084 131.916 168.132 132.216 168.308C132.516 168.484 132.735 168.774 132.824 169.114L134.594 175.826L141.212 179.702V171.943L136.374 167.03C136.144 166.778 136.018 166.446 136.024 166.103C136.03 165.759 136.167 165.432 136.406 165.189C136.646 164.946 136.968 164.807 137.306 164.801C137.644 164.795 137.972 164.922 138.219 165.156L141.212 168.196V164.326C141.212 163.974 141.35 163.637 141.595 163.388C141.84 163.14 142.172 163 142.518 163Z" fill="#30373E"/>
<path fill-rule="evenodd" clip-rule="evenodd" d="M186.518 163C186.864 163 187.196 163.14 187.441 163.388C187.685 163.637 187.823 163.974 187.823 164.326V168.196L190.816 165.156C191.064 164.922 191.391 164.795 191.729 164.801C192.067 164.807 192.39 164.946 192.629 165.189C192.868 165.432 193.005 165.759 193.011 166.103C193.017 166.446 192.891 166.778 192.661 167.03L187.823 171.943V179.704L194.439 175.825L196.211 169.112C196.255 168.944 196.332 168.786 196.436 168.648C196.541 168.51 196.671 168.394 196.819 168.307C196.968 168.22 197.131 168.163 197.301 168.14C197.471 168.118 197.644 168.129 197.81 168.174C197.975 168.219 198.13 168.297 198.266 168.403C198.402 168.509 198.516 168.641 198.602 168.792C198.688 168.942 198.744 169.109 198.766 169.281C198.788 169.454 198.777 169.629 198.733 169.798L197.636 173.951L200.936 172.016C201.236 171.843 201.59 171.797 201.923 171.889C202.256 171.981 202.539 172.202 202.711 172.505C202.884 172.808 202.931 173.168 202.843 173.507C202.755 173.845 202.539 174.135 202.241 174.312L198.943 176.245L203.033 177.359C203.367 177.45 203.652 177.672 203.825 177.977C203.998 178.281 204.045 178.643 203.955 178.983C203.866 179.323 203.647 179.612 203.347 179.788C203.047 179.963 202.69 180.011 202.356 179.92L195.746 178.12L189.128 182L195.745 185.88L202.354 184.08C202.689 183.989 203.045 184.037 203.345 184.213C203.645 184.389 203.864 184.679 203.954 185.019C204.043 185.359 203.996 185.721 203.823 186.025C203.649 186.33 203.364 186.552 203.03 186.643L198.942 187.755L202.241 189.69C202.391 189.777 202.522 189.892 202.628 190.03C202.733 190.168 202.811 190.326 202.856 190.495C202.901 190.664 202.913 190.84 202.89 191.013C202.868 191.187 202.812 191.354 202.726 191.505C202.64 191.657 202.526 191.789 202.389 191.895C202.252 192.002 202.096 192.079 201.93 192.124C201.763 192.169 201.59 192.18 201.419 192.156C201.249 192.132 201.084 192.074 200.936 191.986L197.636 190.051L198.733 194.202C198.777 194.371 198.788 194.546 198.766 194.719C198.744 194.891 198.688 195.058 198.602 195.208C198.516 195.359 198.402 195.491 198.266 195.597C198.13 195.703 197.975 195.781 197.81 195.826C197.644 195.871 197.471 195.882 197.301 195.86C197.131 195.837 196.968 195.78 196.819 195.693C196.671 195.606 196.541 195.49 196.436 195.352C196.332 195.214 196.255 195.056 196.211 194.888L194.439 188.175L187.823 184.298V192.057L192.661 196.97C192.786 197.092 192.885 197.239 192.954 197.4C193.022 197.562 193.058 197.736 193.06 197.912C193.061 198.088 193.028 198.263 192.963 198.426C192.897 198.588 192.8 198.737 192.678 198.861C192.555 198.986 192.41 199.084 192.249 199.151C192.089 199.217 191.917 199.251 191.744 199.25C191.571 199.248 191.399 199.212 191.24 199.142C191.081 199.073 190.937 198.972 190.816 198.845L187.823 195.805V199.674C187.823 200.026 187.685 200.363 187.441 200.612C187.196 200.86 186.864 201 186.518 201C186.172 201 185.84 200.86 185.595 200.612C185.35 200.363 185.212 200.026 185.212 199.674V195.804L182.219 198.844C181.972 199.078 181.644 199.205 181.306 199.199C180.968 199.193 180.646 199.054 180.406 198.811C180.167 198.568 180.03 198.241 180.024 197.897C180.018 197.554 180.144 197.222 180.374 196.97L185.212 192.057V184.296L178.596 188.175L176.824 194.888C176.78 195.056 176.703 195.214 176.599 195.352C176.495 195.49 176.365 195.606 176.216 195.693C176.068 195.78 175.904 195.837 175.734 195.86C175.564 195.882 175.391 195.871 175.226 195.826C175.06 195.781 174.905 195.703 174.769 195.597C174.633 195.491 174.519 195.359 174.433 195.208C174.347 195.058 174.292 194.891 174.269 194.719C174.247 194.546 174.258 194.371 174.303 194.202L175.399 190.049L172.099 191.986C171.799 192.162 171.443 192.209 171.108 192.118C170.774 192.027 170.489 191.805 170.316 191.5C170.143 191.195 170.096 190.833 170.185 190.494C170.275 190.154 170.494 189.864 170.794 189.688L174.094 187.755L170.004 186.641C169.834 186.6 169.674 186.525 169.533 186.42C169.392 186.315 169.274 186.183 169.184 186.03C169.095 185.878 169.036 185.709 169.012 185.533C168.988 185.358 168.999 185.179 169.045 185.008C169.09 184.836 169.169 184.676 169.276 184.536C169.384 184.396 169.518 184.28 169.67 184.193C169.823 184.107 169.991 184.053 170.164 184.034C170.338 184.015 170.514 184.031 170.681 184.082L177.291 185.88L183.907 182L177.291 178.12L170.681 179.92C170.515 179.965 170.343 179.976 170.173 179.953C170.002 179.931 169.839 179.874 169.69 179.787C169.541 179.7 169.411 179.584 169.307 179.445C169.203 179.307 169.126 179.149 169.082 178.981C169.037 178.813 169.026 178.637 169.049 178.465C169.071 178.292 169.127 178.126 169.213 177.975C169.298 177.824 169.413 177.692 169.549 177.586C169.685 177.48 169.84 177.402 170.006 177.357L174.094 176.245L170.794 174.312C170.646 174.225 170.515 174.109 170.411 173.971C170.307 173.832 170.23 173.675 170.185 173.506C170.141 173.338 170.13 173.163 170.152 172.99C170.174 172.817 170.23 172.651 170.316 172.5C170.401 172.349 170.515 172.217 170.651 172.111C170.787 172.005 170.943 171.927 171.108 171.882C171.443 171.791 171.799 171.838 172.099 172.014L175.397 173.951L174.301 169.799C174.211 169.46 174.258 169.097 174.432 168.793C174.605 168.488 174.89 168.266 175.225 168.175C175.56 168.084 175.916 168.132 176.216 168.308C176.516 168.484 176.735 168.774 176.824 169.114L178.594 175.826L185.212 179.702V171.943L180.374 167.03C180.144 166.778 180.018 166.446 180.024 166.103C180.03 165.759 180.167 165.432 180.406 165.189C180.646 164.946 180.968 164.807 181.306 164.801C181.644 164.795 181.972 164.922 182.219 165.156L185.212 168.196V164.326C185.212 163.974 185.35 163.637 185.595 163.388C185.84 163.14 186.172 163 186.518 163Z" fill="#30373E"/>
<path d="M160.762 62.4458C165.202 60.8987 169.872 60.1119 174.573 60.1185C179.315 60.1185 183.875 60.9088 188.131 62.3588M188.131 62.3588C204.357 67.905 216 83.1373 216 101.059C216 123.672 197.454 142 174.573 142H102.073C84.9127 142 71 128.254 71 111.296C71 94.3385 84.9127 80.5925 102.073 80.5853C104.093 80.5855 106.108 80.7797 108.091 81.1653M188.131 62.3588C185.818 41.9065 168.266 26 146.951 26C124.07 26 105.525 44.328 105.525 66.9408C105.519 71.7979 106.388 76.6164 108.091 81.1653M108.091 81.1653C112.102 81.9443 115.921 83.5062 119.329 85.7618" stroke="#30373E" stroke-width="10" stroke-linecap="round"/>
<path d="M84 163L68 202" stroke="#30373E" stroke-width="10"/>
<path d="M109 159L93 198" stroke="#30373E" stroke-width="10"/>
</svg>
