<svg width="187" height="178" viewBox="0 0 187 178" fill="none" xmlns="http://www.w3.org/2000/svg">
<path d="M8.51968 48.834C13.225 66.3944 31.2738 76.8149 48.8342 72.1096C50.3063 71.7151 49.9599 69.4429 48.494 69.0213C45.3751 68.1198 42.5023 66.5205 40.0931 64.3443C37.6839 62.1682 35.8015 59.4723 34.5885 56.4609C33.3755 53.4495 32.8637 50.2015 33.0919 46.963C33.3201 43.7245 34.2822 40.5804 35.9055 37.7688C37.5287 34.9573 39.7705 32.552 42.4611 30.7351C45.1516 28.9182 48.2203 27.7375 51.4348 27.2823C54.6492 26.8271 57.9251 27.1093 61.0143 28.1077C64.1035 29.106 66.925 30.7943 69.2651 33.0446C70.3664 34.1024 72.5042 33.2672 72.1098 31.7951C67.4045 14.2346 49.3557 3.81416 31.7953 8.51946C14.2349 13.2248 3.81438 31.2736 8.51968 48.834Z" fill="#30373E"/>
<path opacity="0.5" d="M143.681 147.6C167.469 147.6 186.75 128.545 186.75 105.036C186.75 86.403 174.637 70.5667 157.768 64.8006C155.371 43.5373 137.116 27 114.963 27C91.1745 27 71.8936 46.0548 71.8936 69.5643C71.8936 74.7651 72.8358 79.7399 74.5619 84.3528C72.5006 83.9522 70.4056 83.7503 68.3057 83.7498C50.4645 83.7574 36 98.0485 36 115.679C36 133.309 50.4645 147.6 68.3057 147.6H143.681Z" fill="#525252"/>
<path d="M93.4812 143.567L102.134 131.847C107.735 124.271 110.531 120.488 113.139 121.294C115.747 122.086 115.747 126.736 115.747 136.022V136.897C115.747 140.251 115.747 141.924 116.817 142.98L116.878 143.032C117.97 144.057 119.712 144.057 123.194 144.057C129.465 144.057 132.601 144.057 133.671 145.964C133.686 145.994 133.702 146.025 133.716 146.055C134.719 147.992 132.902 150.449 129.269 155.364L120.616 167.084C115.016 174.66 112.219 178.451 109.611 177.644C107.003 176.846 107.003 172.202 107.003 162.909V162.034C107.003 158.688 107.003 157.007 105.933 155.959L105.873 155.906C104.78 154.874 103.039 154.874 99.5564 154.874C93.2852 154.874 90.1496 154.874 89.0793 152.974C89.0636 152.942 89.0486 152.909 89.034 152.876C88.0316 150.947 89.8481 148.482 93.4812 143.567Z" fill="#30373E"/>
</svg>
