<svg width="207" height="209" viewBox="0 0 207 209" fill="none" xmlns="http://www.w3.org/2000/svg">
<path d="M61.6143 70.8907C55.0985 74.9462 47.2385 76.2472 39.7635 74.5076C32.2884 72.7679 25.8106 68.1301 21.7551 61.6143L17.7711 64.094C27.5857 79.8625 48.3254 84.6892 64.094 74.8746L61.6143 70.8907ZM21.7551 61.6143C17.6995 55.0985 16.3985 47.2385 18.1381 39.7635C19.8778 32.2884 24.5157 25.8106 31.0314 21.7551L28.5518 17.7711C12.7832 27.5857 7.95649 48.3254 17.7711 64.094L21.7551 61.6143ZM31.0314 21.7551C37.5472 17.6995 45.4072 16.3985 52.8823 18.1382C60.3573 19.8778 66.8351 24.5157 70.8907 31.0315L74.8746 28.5518C65.06 12.7832 44.3203 7.9565 28.5518 17.7711L31.0314 21.7551ZM46.1329 59.3383C43.6118 55.288 42.8031 50.4021 43.8845 45.7554C44.9659 41.1087 47.8489 37.082 51.8993 34.561L49.4196 30.577C44.3126 33.7557 40.6775 38.8329 39.314 44.6917C37.9505 50.5505 38.9702 56.7111 42.1489 61.818L46.1329 59.3383ZM61.6608 67.8217C58.5607 67.8668 55.5016 67.1093 52.7808 65.6228C50.0599 64.1364 47.7698 61.9714 46.1329 59.3383L42.1489 61.818C44.2126 65.1376 47.0995 67.8672 50.5294 69.742C53.9593 71.6167 57.8156 72.5728 61.724 72.5174L61.6608 67.8217ZM51.8993 34.561C54.5307 32.9215 57.5414 31.9904 60.6389 31.8581C63.7365 31.7257 66.8156 32.3966 69.5773 33.8056L71.7047 29.622C68.223 27.8465 64.3413 27.0015 60.4366 27.1688C56.5318 27.3362 52.7367 28.5102 49.4196 30.577L51.8993 34.561ZM70.8907 31.0315C70.7294 30.7582 70.6828 30.4321 70.761 30.1246C70.801 29.9415 70.8976 29.7756 71.0371 29.6506C71.1129 29.5887 71.3552 29.4452 71.7047 29.622L69.5773 33.8056C71.2162 34.639 72.9634 34.1485 74.0292 33.2677C75.1352 32.3509 76.0599 30.4561 74.8746 28.5518L70.8907 31.0315ZM61.724 72.5174C61.3307 72.519 61.1766 72.2833 61.136 72.1943C61.066 72.0205 61.0525 71.829 61.0976 71.6471C61.1631 71.3366 61.3489 71.0647 61.6143 70.8907L64.094 74.8746C65.9983 73.6893 66.0052 71.581 65.4177 70.27C64.8503 69.0091 63.4993 67.7976 61.6608 67.8217L61.724 72.5174Z" fill="#30373E"/>
<path fill-rule="evenodd" clip-rule="evenodd" d="M152.518 168C152.864 168 153.196 168.14 153.441 168.388C153.685 168.637 153.823 168.974 153.823 169.326V173.196L156.816 170.156C157.064 169.922 157.391 169.795 157.729 169.801C158.067 169.807 158.39 169.946 158.629 170.189C158.868 170.432 159.005 170.759 159.011 171.103C159.017 171.446 158.891 171.778 158.661 172.03L153.823 176.943V184.704L160.439 180.825L162.211 174.112C162.255 173.944 162.332 173.786 162.436 173.648C162.541 173.51 162.671 173.394 162.819 173.307C162.968 173.22 163.131 173.163 163.301 173.14C163.471 173.118 163.644 173.129 163.81 173.174C163.975 173.219 164.13 173.297 164.266 173.403C164.402 173.509 164.516 173.641 164.602 173.792C164.688 173.942 164.744 174.109 164.766 174.281C164.788 174.454 164.777 174.629 164.733 174.798L163.636 178.951L166.936 177.016C167.236 176.843 167.59 176.797 167.923 176.889C168.256 176.981 168.539 177.202 168.711 177.505C168.884 177.808 168.931 178.168 168.843 178.507C168.755 178.845 168.539 179.135 168.241 179.312L164.943 181.245L169.033 182.359C169.367 182.45 169.652 182.672 169.825 182.977C169.998 183.281 170.045 183.643 169.955 183.983C169.866 184.323 169.647 184.612 169.347 184.788C169.047 184.963 168.69 185.011 168.356 184.92L161.746 183.12L155.128 187L161.745 190.88L168.354 189.08C168.689 188.989 169.045 189.037 169.345 189.213C169.645 189.389 169.864 189.679 169.954 190.019C170.043 190.359 169.996 190.721 169.823 191.025C169.649 191.33 169.364 191.552 169.03 191.643L164.942 192.755L168.241 194.69C168.391 194.777 168.522 194.892 168.628 195.03C168.733 195.168 168.811 195.326 168.856 195.495C168.901 195.664 168.913 195.84 168.89 196.013C168.868 196.187 168.812 196.354 168.726 196.505C168.64 196.657 168.526 196.789 168.389 196.895C168.252 197.002 168.096 197.079 167.93 197.124C167.763 197.169 167.59 197.18 167.419 197.156C167.249 197.132 167.084 197.074 166.936 196.986L163.636 195.051L164.733 199.202C164.777 199.371 164.788 199.546 164.766 199.719C164.744 199.891 164.688 200.058 164.602 200.208C164.516 200.359 164.402 200.491 164.266 200.597C164.13 200.703 163.975 200.781 163.81 200.826C163.644 200.871 163.471 200.882 163.301 200.86C163.131 200.837 162.968 200.78 162.819 200.693C162.671 200.606 162.541 200.49 162.436 200.352C162.332 200.214 162.255 200.056 162.211 199.888L160.439 193.175L153.823 189.298V197.057L158.661 201.97C158.786 202.092 158.885 202.239 158.954 202.4C159.022 202.562 159.058 202.736 159.06 202.912C159.061 203.088 159.028 203.263 158.963 203.426C158.897 203.588 158.8 203.737 158.678 203.861C158.555 203.986 158.41 204.084 158.249 204.151C158.089 204.217 157.917 204.251 157.744 204.25C157.571 204.248 157.399 204.212 157.24 204.142C157.081 204.073 156.937 203.972 156.816 203.845L153.823 200.805V204.674C153.823 205.026 153.685 205.363 153.441 205.612C153.196 205.86 152.864 206 152.518 206C152.172 206 151.84 205.86 151.595 205.612C151.35 205.363 151.212 205.026 151.212 204.674V200.804L148.219 203.844C147.972 204.078 147.644 204.205 147.306 204.199C146.968 204.193 146.646 204.054 146.406 203.811C146.167 203.568 146.03 203.241 146.024 202.897C146.018 202.554 146.144 202.222 146.374 201.97L151.212 197.057V189.296L144.596 193.175L142.824 199.888C142.78 200.056 142.703 200.214 142.599 200.352C142.495 200.49 142.365 200.606 142.216 200.693C142.068 200.78 141.904 200.837 141.734 200.86C141.564 200.882 141.391 200.871 141.226 200.826C141.06 200.781 140.905 200.703 140.769 200.597C140.633 200.491 140.519 200.359 140.433 200.208C140.347 200.058 140.292 199.891 140.269 199.719C140.247 199.546 140.258 199.371 140.303 199.202L141.399 195.049L138.099 196.986C137.799 197.162 137.443 197.209 137.108 197.118C136.774 197.027 136.489 196.805 136.316 196.5C136.143 196.195 136.096 195.833 136.185 195.494C136.275 195.154 136.494 194.864 136.794 194.688L140.094 192.755L136.004 191.641C135.834 191.6 135.674 191.525 135.533 191.42C135.392 191.315 135.274 191.183 135.184 191.03C135.095 190.878 135.036 190.709 135.012 190.533C134.988 190.358 134.999 190.179 135.045 190.008C135.09 189.836 135.169 189.676 135.276 189.536C135.384 189.396 135.518 189.28 135.67 189.193C135.823 189.107 135.991 189.053 136.164 189.034C136.338 189.015 136.514 189.031 136.681 189.082L143.291 190.88L149.907 187L143.291 183.12L136.681 184.92C136.515 184.965 136.343 184.976 136.173 184.953C136.002 184.931 135.839 184.874 135.69 184.787C135.541 184.7 135.411 184.584 135.307 184.445C135.203 184.307 135.126 184.149 135.082 183.981C135.037 183.813 135.026 183.637 135.049 183.465C135.071 183.292 135.127 183.126 135.213 182.975C135.298 182.824 135.413 182.692 135.549 182.586C135.685 182.48 135.84 182.402 136.006 182.357L140.094 181.245L136.794 179.312C136.646 179.225 136.515 179.109 136.411 178.971C136.307 178.832 136.23 178.675 136.185 178.506C136.141 178.338 136.13 178.163 136.152 177.99C136.174 177.817 136.23 177.651 136.316 177.5C136.401 177.349 136.515 177.217 136.651 177.111C136.787 177.005 136.943 176.927 137.108 176.882C137.443 176.791 137.799 176.838 138.099 177.014L141.397 178.951L140.301 174.799C140.211 174.46 140.258 174.097 140.432 173.793C140.605 173.488 140.89 173.266 141.225 173.175C141.56 173.084 141.916 173.132 142.216 173.308C142.516 173.484 142.735 173.774 142.824 174.114L144.594 180.826L151.212 184.702V176.943L146.374 172.03C146.144 171.778 146.018 171.446 146.024 171.103C146.03 170.759 146.167 170.432 146.406 170.189C146.646 169.946 146.968 169.807 147.306 169.801C147.644 169.795 147.972 169.922 148.219 170.156L151.212 173.196V169.326C151.212 168.974 151.35 168.637 151.595 168.388C151.84 168.14 152.172 168 152.518 168Z" fill="#30373E"/>
<path d="M146.762 67.4458C151.202 65.8987 155.872 65.1119 160.573 65.1185C165.315 65.1185 169.875 65.9088 174.131 67.3588M174.131 67.3588C190.357 72.905 202 88.1373 202 106.059C202 128.672 183.454 147 160.573 147H88.0735C70.9127 147 57 133.254 57 116.296C57 99.3385 70.9127 85.5925 88.0735 85.5853C90.0933 85.5855 92.1084 85.7797 94.091 86.1653M174.131 67.3588C171.818 46.9065 154.266 31 132.951 31C110.07 31 91.5245 49.328 91.5245 71.9408C91.5185 76.7979 92.3879 81.6164 94.091 86.1653M94.091 86.1653C98.1024 86.9443 101.921 88.5062 105.329 90.7618" stroke="#30373E" stroke-width="10" stroke-linecap="round"/>
<path d="M94 168L78 207" stroke="#30373E" stroke-width="10"/>
<path d="M119 164L103 203" stroke="#30373E" stroke-width="10"/>
</svg>
