<svg width="203" height="190" viewBox="0 0 203 190" fill="none" xmlns="http://www.w3.org/2000/svg">
<path d="M61.6143 70.8907C55.0985 74.9462 47.2385 76.2472 39.7635 74.5076C32.2884 72.7679 25.8106 68.1301 21.7551 61.6143L17.7711 64.094C27.5857 79.8625 48.3254 84.6892 64.094 74.8746L61.6143 70.8907ZM21.7551 61.6143C17.6995 55.0985 16.3985 47.2385 18.1381 39.7635C19.8778 32.2884 24.5157 25.8106 31.0314 21.7551L28.5518 17.7711C12.7832 27.5857 7.95649 48.3254 17.7711 64.094L21.7551 61.6143ZM31.0314 21.7551C37.5472 17.6995 45.4072 16.3985 52.8823 18.1382C60.3573 19.8778 66.8351 24.5157 70.8907 31.0315L74.8746 28.5518C65.06 12.7832 44.3203 7.9565 28.5518 17.7711L31.0314 21.7551ZM46.1329 59.3383C43.6118 55.288 42.8031 50.4021 43.8845 45.7554C44.9659 41.1087 47.8489 37.082 51.8993 34.561L49.4196 30.577C44.3126 33.7557 40.6775 38.8329 39.314 44.6917C37.9505 50.5505 38.9702 56.7111 42.1489 61.818L46.1329 59.3383ZM61.6608 67.8217C58.5607 67.8668 55.5016 67.1093 52.7808 65.6228C50.0599 64.1364 47.7698 61.9714 46.1329 59.3383L42.1489 61.818C44.2126 65.1376 47.0995 67.8672 50.5294 69.742C53.9593 71.6167 57.8156 72.5728 61.724 72.5174L61.6608 67.8217ZM51.8993 34.561C54.5307 32.9215 57.5414 31.9904 60.6389 31.8581C63.7365 31.7257 66.8156 32.3966 69.5773 33.8056L71.7047 29.622C68.223 27.8465 64.3413 27.0015 60.4366 27.1688C56.5318 27.3362 52.7367 28.5102 49.4196 30.577L51.8993 34.561ZM70.8907 31.0315C70.7294 30.7582 70.6828 30.4321 70.761 30.1246C70.801 29.9415 70.8976 29.7756 71.0371 29.6506C71.1129 29.5887 71.3552 29.4452 71.7047 29.622L69.5773 33.8056C71.2162 34.639 72.9634 34.1485 74.0292 33.2677C75.1352 32.3509 76.0599 30.4561 74.8746 28.5518L70.8907 31.0315ZM61.724 72.5174C61.3307 72.519 61.1766 72.2833 61.136 72.1943C61.066 72.0205 61.0525 71.829 61.0976 71.6471C61.1631 71.3366 61.3489 71.0647 61.6143 70.8907L64.094 74.8746C65.9983 73.6893 66.0052 71.581 65.4177 70.27C64.8503 69.0091 63.4993 67.7976 61.6608 67.8217L61.724 72.5174Z" fill="#30373E"/>
<path d="M142.762 72.4458C147.202 70.8987 151.872 70.1119 156.573 70.1185C161.315 70.1185 165.875 70.9088 170.131 72.3588M170.131 72.3588C186.357 77.905 198 93.1373 198 111.059C198 133.672 179.454 152 156.573 152H84.0735C66.9127 152 53 138.254 53 121.296C53 104.338 66.9127 90.5925 84.0735 90.5853C86.0933 90.5855 88.1084 90.7797 90.091 91.1653M170.131 72.3588C167.818 51.9065 150.266 36 128.951 36C106.07 36 87.5245 54.328 87.5245 76.9408C87.5185 81.7979 88.3879 86.6164 90.091 91.1653M90.091 91.1653C94.1024 91.9443 97.921 93.5062 101.329 95.7618" stroke="#30373E" stroke-width="10" stroke-linecap="round"/>
<circle cx="110.5" cy="178.5" r="11.5" fill="#30373E"/>
<circle cx="139.5" cy="178.5" r="11.5" fill="#30373E"/>
</svg>
