<svg width="207" height="217" viewBox="0 0 207 217" fill="none" xmlns="http://www.w3.org/2000/svg">
<path d="M61.6143 70.8907C55.0985 74.9462 47.2385 76.2472 39.7635 74.5076C32.2884 72.7679 25.8106 68.1301 21.7551 61.6143L17.7711 64.094C27.5857 79.8625 48.3254 84.6892 64.094 74.8746L61.6143 70.8907ZM21.7551 61.6143C17.6995 55.0985 16.3985 47.2385 18.1381 39.7635C19.8778 32.2884 24.5157 25.8106 31.0314 21.7551L28.5518 17.7711C12.7832 27.5857 7.95649 48.3254 17.7711 64.094L21.7551 61.6143ZM31.0314 21.7551C37.5472 17.6995 45.4072 16.3985 52.8823 18.1382C60.3573 19.8778 66.8351 24.5157 70.8907 31.0315L74.8746 28.5518C65.06 12.7832 44.3203 7.9565 28.5518 17.7711L31.0314 21.7551ZM46.1329 59.3383C43.6118 55.288 42.8031 50.4021 43.8845 45.7554C44.9659 41.1087 47.8489 37.082 51.8993 34.561L49.4196 30.577C44.3126 33.7557 40.6775 38.8329 39.314 44.6917C37.9505 50.5505 38.9702 56.7111 42.1489 61.818L46.1329 59.3383ZM61.6608 67.8217C58.5607 67.8668 55.5016 67.1093 52.7808 65.6228C50.0599 64.1364 47.7698 61.9714 46.1329 59.3383L42.1489 61.818C44.2126 65.1376 47.0995 67.8672 50.5294 69.742C53.9593 71.6167 57.8156 72.5728 61.724 72.5174L61.6608 67.8217ZM51.8993 34.561C54.5307 32.9215 57.5414 31.9904 60.6389 31.8581C63.7365 31.7257 66.8156 32.3966 69.5773 33.8056L71.7047 29.622C68.223 27.8465 64.3413 27.0015 60.4366 27.1688C56.5318 27.3362 52.7367 28.5102 49.4196 30.577L51.8993 34.561ZM70.8907 31.0315C70.7294 30.7582 70.6828 30.4321 70.761 30.1246C70.801 29.9415 70.8976 29.7756 71.0371 29.6506C71.1129 29.5887 71.3552 29.4452 71.7047 29.622L69.5773 33.8056C71.2162 34.639 72.9634 34.1485 74.0292 33.2677C75.1352 32.3509 76.0599 30.4561 74.8746 28.5518L70.8907 31.0315ZM61.724 72.5174C61.3307 72.519 61.1766 72.2833 61.136 72.1943C61.066 72.0205 61.0525 71.829 61.0976 71.6471C61.1631 71.3366 61.3489 71.0647 61.6143 70.8907L64.094 74.8746C65.9983 73.6893 66.0052 71.581 65.4177 70.27C64.8503 69.0091 63.4993 67.7976 61.6608 67.8217L61.724 72.5174Z" fill="#30373E"/>
<path d="M146.762 75.4458C151.202 73.8987 155.872 73.1119 160.573 73.1185C165.315 73.1185 169.875 73.9088 174.131 75.3588M94.091 94.1653C92.1084 93.7797 90.0933 93.5855 88.0735 93.5853C70.9127 93.5925 57 107.338 57 124.296C57 141.254 70.9127 155 88.0735 155H160.573C183.454 155 202 136.672 202 114.059C202 96.1373 190.357 80.905 174.131 75.3588M94.091 94.1653C92.3879 89.6164 91.5185 84.7979 91.5245 79.9408C91.5245 57.328 110.07 39 132.951 39C154.266 39 171.818 54.9065 174.131 75.3588M94.091 94.1653C98.1024 94.9443 101.921 96.5062 105.329 98.7617L94.091 94.1653Z" fill="#808285"/>
<path d="M146.762 75.4458C151.202 73.8987 155.872 73.1119 160.573 73.1185C165.315 73.1185 169.875 73.9088 174.131 75.3588M174.131 75.3588C190.357 80.905 202 96.1373 202 114.059C202 136.672 183.454 155 160.573 155H88.0735C70.9127 155 57 141.254 57 124.296C57 107.338 70.9127 93.5925 88.0735 93.5853C90.0933 93.5855 92.1084 93.7797 94.091 94.1653M174.131 75.3588C171.818 54.9065 154.266 39 132.951 39C110.07 39 91.5245 57.328 91.5245 79.9408C91.5185 84.7979 92.3879 89.6164 94.091 94.1653M94.091 94.1653C98.1024 94.9443 101.921 96.5062 105.329 98.7618" stroke="#3F3F3F" stroke-width="10" stroke-linecap="round"/>
<path d="M94 176L78 215" stroke="#30373E" stroke-width="10"/>
<path d="M144 176L128 215" stroke="#30373E" stroke-width="10"/>
<path d="M119 172L103 211" stroke="#30373E" stroke-width="10"/>
<path d="M169 172L153 211" stroke="#30373E" stroke-width="10"/>
</svg>
