<svg width="196" height="178" viewBox="0 0 196 178" fill="none" xmlns="http://www.w3.org/2000/svg">
<path d="M8.51968 48.834C13.225 66.3944 31.2738 76.8149 48.8342 72.1096C50.3063 71.7151 49.9599 69.4429 48.494 69.0213C45.3751 68.1198 42.5023 66.5205 40.0931 64.3443C37.6839 62.1682 35.8015 59.4723 34.5885 56.4609C33.3755 53.4495 32.8637 50.2015 33.0919 46.963C33.3201 43.7245 34.2822 40.5804 35.9055 37.7688C37.5287 34.9573 39.7705 32.552 42.4611 30.7351C45.1516 28.9182 48.2203 27.7375 51.4348 27.2823C54.6492 26.8271 57.9251 27.1093 61.0143 28.1077C64.1035 29.106 66.925 30.7943 69.2651 33.0446C70.3664 34.1024 72.5042 33.2672 72.1098 31.7951C67.4045 14.2346 49.3557 3.81416 31.7953 8.51946C14.2349 13.2248 3.81438 31.2736 8.51968 48.834Z" fill="#30373E"/>
<path d="M102.481 136.567L111.134 124.847C116.735 117.271 119.531 113.488 122.139 114.294C124.747 115.086 124.747 119.736 124.747 129.022V129.897C124.747 133.251 124.747 134.924 125.817 135.98L125.878 136.032C126.97 137.057 128.712 137.057 132.194 137.057C138.465 137.057 141.601 137.057 142.671 138.964C142.686 138.994 142.702 139.025 142.716 139.055C143.719 140.992 141.902 143.449 138.269 148.364L129.616 160.084C124.016 167.66 121.219 171.451 118.611 170.644C116.003 169.846 116.003 165.202 116.003 155.909V155.034C116.003 151.688 116.003 150.007 114.933 148.959L114.873 148.906C113.78 147.874 112.039 147.874 108.556 147.874C102.285 147.874 99.1496 147.874 98.0793 145.974C98.0636 145.942 98.0486 145.909 98.034 145.876C97.0316 143.947 98.8481 141.482 102.481 136.567Z" fill="#30373E"/>
<path opacity="0.5" d="M152.681 140.6C176.469 140.6 195.75 121.545 195.75 98.0357C195.75 79.403 183.637 63.5667 166.768 57.8006C164.371 36.5373 146.116 20 123.963 20C100.174 20 80.8936 39.0548 80.8936 62.5643C80.8936 67.7651 81.8358 72.7399 83.5619 77.3528C81.5006 76.9522 79.4056 76.7503 77.3057 76.7498C59.4645 76.7574 45 91.0485 45 108.679C45 126.309 59.4645 140.6 77.3057 140.6H152.681Z" fill="#525252"/>
<path fill-rule="evenodd" clip-rule="evenodd" d="M75.5136 149C75.7807 149 76.0368 149.107 76.2256 149.296C76.4144 149.486 76.5205 149.743 76.5205 150.012V152.966L78.8296 150.646C79.0205 150.467 79.2729 150.37 79.5338 150.374C79.7946 150.379 80.0435 150.485 80.228 150.67C80.4125 150.856 80.5182 151.106 80.5228 151.368C80.5274 151.63 80.4305 151.884 80.2527 152.075L76.5205 155.825V161.748L81.6247 158.787L82.9914 153.664C83.0256 153.536 83.0846 153.416 83.1651 153.31C83.2456 153.205 83.3459 153.116 83.4604 153.05C83.5749 152.983 83.7014 152.94 83.8324 152.923C83.9635 152.906 84.0968 152.914 84.2245 152.949C84.3522 152.983 84.472 153.042 84.5769 153.123C84.6818 153.204 84.7698 153.305 84.836 153.42C84.9021 153.535 84.945 153.662 84.9623 153.794C84.9796 153.925 84.9709 154.059 84.9367 154.188L84.0909 157.357L86.6363 155.88C86.8674 155.748 87.1412 155.714 87.3978 155.784C87.6544 155.854 87.873 156.023 88.0059 156.254C88.1389 156.485 88.1754 156.76 88.1074 157.018C88.0394 157.277 87.8726 157.497 87.6432 157.633L85.0991 159.108L88.254 159.958C88.512 160.028 88.7319 160.197 88.8653 160.43C88.9988 160.662 89.0348 160.938 88.9656 161.198C88.8963 161.457 88.7274 161.678 88.496 161.812C88.2647 161.946 87.9898 161.982 87.7318 161.912L82.6329 160.539L77.5274 163.5L82.6316 166.461L87.7304 165.088C87.9886 165.018 88.2636 165.055 88.495 165.189C88.7263 165.323 88.8951 165.544 88.9642 165.804C89.0333 166.063 88.997 166.339 88.8633 166.572C88.7296 166.804 88.5095 166.974 88.2513 167.043L85.0978 167.892L87.6432 169.369C87.7586 169.435 87.8599 169.523 87.9413 169.628C88.0226 169.734 88.0824 169.854 88.1172 169.983C88.152 170.112 88.1611 170.246 88.144 170.379C88.1269 170.511 88.0839 170.639 88.0175 170.754C87.9511 170.87 87.8626 170.971 87.7571 171.052C87.6517 171.133 87.5313 171.192 87.4029 171.226C87.2745 171.26 87.1407 171.269 87.0091 171.251C86.8776 171.232 86.7509 171.188 86.6363 171.121L84.0909 169.644L84.9367 172.812C84.9709 172.941 84.9796 173.075 84.9623 173.206C84.945 173.338 84.9021 173.465 84.836 173.58C84.7698 173.695 84.6818 173.796 84.5769 173.877C84.472 173.958 84.3522 174.017 84.2245 174.051C84.0968 174.086 83.9635 174.094 83.8324 174.077C83.7014 174.06 83.5749 174.017 83.4604 173.95C83.3459 173.884 83.2456 173.795 83.1651 173.69C83.0846 173.584 83.0256 173.464 82.9914 173.336L81.6247 168.213L76.5205 165.253V171.175L80.2527 174.925C80.3489 175.018 80.4256 175.13 80.4785 175.253C80.5313 175.376 80.5591 175.509 80.5604 175.643C80.5616 175.778 80.5362 175.911 80.4856 176.035C80.435 176.16 80.3603 176.273 80.2658 176.368C80.1713 176.463 80.059 176.538 79.9352 176.589C79.8115 176.64 79.6789 176.665 79.5453 176.664C79.4116 176.663 79.2794 176.635 79.1566 176.582C79.0337 176.529 78.9226 176.452 78.8296 176.356L76.5205 174.036V176.988C76.5205 177.257 76.4144 177.514 76.2256 177.704C76.0368 177.893 75.7807 178 75.5136 178C75.2466 178 74.9905 177.893 74.8017 177.704C74.6128 177.514 74.5067 177.257 74.5067 176.988V174.034L72.1976 176.354C72.0068 176.533 71.7543 176.63 71.4935 176.626C71.2326 176.621 70.9837 176.515 70.7992 176.33C70.6148 176.144 70.5091 175.894 70.5045 175.632C70.4999 175.37 70.5967 175.116 70.7746 174.925L74.5067 171.175V165.252L69.4025 168.213L68.0359 173.336C68.0017 173.464 67.9426 173.584 67.8622 173.69C67.7817 173.795 67.6813 173.884 67.5668 173.95C67.4523 174.017 67.3259 174.06 67.1948 174.077C67.0637 174.094 66.9305 174.086 66.8028 174.051C66.675 174.017 66.5553 173.958 66.4504 173.877C66.3455 173.796 66.2574 173.695 66.1913 173.58C66.1252 173.465 66.0822 173.338 66.0649 173.206C66.0477 173.075 66.0564 172.941 66.0906 172.812L66.9363 169.643L64.391 171.121C64.1595 171.255 63.8845 171.291 63.6265 171.222C63.3684 171.152 63.1484 170.983 63.0149 170.75C62.8814 170.517 62.8452 170.241 62.9145 169.982C62.9837 169.723 63.1526 169.502 63.3841 169.367L65.9295 167.892L62.7746 167.042C62.6435 167.011 62.5199 166.953 62.4113 166.873C62.3027 166.793 62.2111 166.692 62.1421 166.576C62.0731 166.46 62.028 166.331 62.0095 166.197C61.991 166.062 61.9995 165.926 62.0345 165.795C62.0694 165.665 62.1302 165.542 62.213 165.435C62.2959 165.329 62.3993 165.24 62.517 165.174C62.6347 165.108 62.7644 165.067 62.8983 165.052C63.0323 165.037 63.1678 165.05 63.2968 165.089L68.3957 166.461L73.4999 163.5L68.3957 160.539L63.2968 161.912C63.169 161.947 63.0357 161.956 62.9045 161.938C62.7733 161.921 62.6469 161.878 62.5323 161.811C62.4177 161.745 62.3173 161.656 62.2368 161.55C62.1563 161.445 62.0972 161.325 62.063 161.196C62.0288 161.068 62.0201 160.934 62.0375 160.802C62.0548 160.67 62.0978 160.543 62.164 160.428C62.2302 160.313 62.3183 160.212 62.4233 160.131C62.5283 160.05 62.6481 159.991 62.7759 159.957L65.9295 159.108L63.3841 157.633C63.2695 157.566 63.169 157.478 63.0885 157.372C63.0079 157.267 62.9488 157.146 62.9145 157.018C62.8802 156.89 62.8714 156.756 62.8886 156.624C62.9059 156.492 62.9488 156.365 63.0149 156.25C63.081 156.135 63.169 156.034 63.274 155.953C63.3789 155.872 63.4987 155.813 63.6265 155.778C63.8845 155.709 64.1595 155.745 64.391 155.879L66.935 157.357L66.0892 154.189C66.0201 153.93 66.0565 153.653 66.1901 153.421C66.3238 153.188 66.544 153.019 66.8021 152.949C67.0602 152.88 67.3352 152.916 67.5666 153.051C67.798 153.185 67.9668 153.406 68.0359 153.666L69.4012 158.789L74.5067 161.747V155.825L70.7746 152.075C70.5967 151.884 70.4999 151.63 70.5045 151.368C70.5091 151.106 70.6148 150.856 70.7992 150.67C70.9837 150.485 71.2326 150.379 71.4935 150.374C71.7543 150.37 72.0068 150.467 72.1976 150.646L74.5067 152.966V150.012C74.5067 149.743 74.6128 149.486 74.8017 149.296C74.9905 149.107 75.2466 149 75.5136 149Z" fill="#30373E"/>
</svg>
