<svg width="155" height="185" viewBox="0 0 155 185" fill="none" xmlns="http://www.w3.org/2000/svg">
<path fill-rule="evenodd" clip-rule="evenodd" d="M75.1079 133.45C76.0384 134.379 76.5611 135.639 76.5611 136.953C76.5611 138.267 76.0384 139.527 75.1079 140.457L61.8574 153.677C61.4025 154.164 60.8539 154.554 60.2444 154.825C59.6349 155.096 58.9769 155.242 58.3097 155.254C57.6425 155.266 56.9798 155.143 56.3611 154.894C55.7424 154.644 55.1803 154.273 54.7085 153.803C54.2367 153.332 53.8647 152.771 53.6148 152.154C53.3649 151.536 53.2421 150.875 53.2539 150.21C53.2657 149.544 53.4117 148.887 53.6833 148.279C53.9549 147.671 54.3464 147.124 54.8346 146.67L68.0851 133.45C69.0168 132.521 70.2798 132 71.5965 132C72.9133 132 74.1762 132.521 75.1079 133.45ZM104.922 133.45C105.852 134.379 106.375 135.639 106.375 136.953C106.375 138.267 105.852 139.527 104.922 140.457L91.671 153.677C91.2161 154.164 90.6676 154.554 90.0581 154.825C89.4485 155.096 88.7906 155.242 88.1234 155.254C87.4562 155.266 86.7935 155.143 86.1748 154.894C85.556 154.644 84.994 154.273 84.5221 153.803C84.0503 153.332 83.6783 152.771 83.4284 152.154C83.1785 151.536 83.0558 150.875 83.0675 150.21C83.0793 149.544 83.2254 148.887 83.4969 148.279C83.7685 147.671 84.1601 147.124 84.6483 146.67L97.8988 133.45C98.8305 132.521 100.093 132 101.41 132C102.727 132 103.99 132.521 104.922 133.45ZM48.6069 156.585C49.5374 157.515 50.0601 158.775 50.0601 160.089C50.0601 161.402 49.5374 162.662 48.6069 163.592L35.3564 176.812C34.4144 177.688 33.1686 178.164 31.8813 178.142C30.594 178.119 29.3658 177.599 28.4554 176.691C27.545 175.782 27.0235 174.557 27.0008 173.272C26.9781 171.988 27.4559 170.745 28.3336 169.805L41.5841 156.585C42.5158 155.657 43.7787 155.135 45.0955 155.135C46.4123 155.135 47.6752 155.657 48.6069 156.585ZM111.547 156.585C112.477 157.515 113 158.775 113 160.089C113 161.402 112.477 162.662 111.547 163.592L98.2963 176.812C97.8414 177.299 97.2928 177.69 96.6833 177.961C96.0738 178.232 95.4158 178.377 94.7486 178.389C94.0814 178.401 93.4187 178.278 92.8 178.029C92.1813 177.78 91.6192 177.409 91.1474 176.938C90.6756 176.467 90.3036 175.906 90.0537 175.289C89.8038 174.672 89.681 174.011 89.6928 173.345C89.7046 172.679 89.8506 172.023 90.1222 171.415C90.3938 170.807 90.7853 170.259 91.2735 169.805L104.524 156.585C105.456 155.657 106.719 155.135 108.035 155.135C109.352 155.135 110.615 155.657 111.547 156.585ZM78.4205 163.195C79.3511 164.125 79.8737 165.385 79.8737 166.699C79.8737 168.012 79.3511 169.272 78.4205 170.202L65.17 183.422C64.7151 183.909 64.1665 184.3 63.557 184.571C62.9475 184.842 62.2895 184.987 61.6224 184.999C60.9552 185.011 60.2925 184.889 59.6737 184.639C59.055 184.39 58.493 184.019 58.0211 183.548C57.5493 183.077 57.1773 182.516 56.9274 181.899C56.6775 181.282 56.5548 180.621 56.5665 179.955C56.5783 179.289 56.7243 178.633 56.9959 178.025C57.2675 177.417 57.6591 176.869 58.1473 176.415L71.3978 163.195C72.3294 162.267 73.5924 161.745 74.9092 161.745C76.2259 161.745 77.4889 162.267 78.4205 163.195Z" fill="#30373E"/>
<path d="M94.7622 70.4458C99.2023 68.8987 103.872 68.1119 108.573 68.1185C113.315 68.1185 117.875 68.9088 122.131 70.3588M122.131 70.3588C138.357 75.905 150 91.1373 150 109.059C150 131.672 131.454 150 108.573 150H36.0735C18.9127 150 5 136.254 5 119.296C5 102.338 18.9127 88.5925 36.0735 88.5853C38.0933 88.5855 40.1084 88.7797 42.091 89.1653M122.131 70.3588C119.818 49.9065 102.266 34 80.951 34C58.07 34 39.5245 52.328 39.5245 74.9408C39.5185 79.7979 40.3879 84.6164 42.091 89.1653M42.091 89.1653C46.1024 89.9443 49.921 91.5062 53.3285 93.7618" stroke="#30373E" stroke-width="10" stroke-linecap="round"/>
<path opacity="0.5" d="M48.4999 23.125C42.7365 23.1225 37.144 25.082 32.6426 28.6811C28.1412 32.2801 24.9991 37.3044 23.7334 42.927C22.4676 48.5496 23.1535 54.4356 25.6784 59.6164C28.2032 64.7973 32.4165 68.9643 37.6249 71.4318M48.4999 23.125C53.8939 23.125 58.8891 24.807 62.9999 27.6708M48.4999 23.125C43.1059 23.125 38.1106 24.807 33.9998 27.6708M48.4999 23.125C55.4164 23.125 61.6804 25.8873 66.2624 30.375M48.4999 23.125C41.5834 23.125 35.3194 25.8873 30.7374 30.375M48.4999 23.125C57.7291 23.125 65.8129 28.055 70.2499 35.421" stroke="#30373E" stroke-width="10"/>
<path opacity="0.5" d="M44.875 5V8.625M8.625 44.875H5M73.0702 16.6798L71.5043 18.2457M18.2457 71.5043L16.6798 73.0702M18.2457 18.2457L16.6798 16.6798" stroke="#30373E" stroke-width="10" stroke-linecap="round"/>
</svg>
