<svg width="155" height="155" viewBox="0 0 155 155" fill="none" xmlns="http://www.w3.org/2000/svg">
<path d="M94.7622 70.4458C99.2023 68.8987 103.872 68.1119 108.573 68.1185C113.315 68.1185 117.875 68.9088 122.131 70.3588M122.131 70.3588C138.357 75.905 150 91.1373 150 109.059C150 131.672 131.454 150 108.573 150H36.0735C18.9127 150 5 136.254 5 119.296C5 102.338 18.9127 88.5925 36.0735 88.5853C38.0933 88.5855 40.1084 88.7797 42.091 89.1653M122.131 70.3588C119.818 49.9065 102.266 34 80.951 34C58.07 34 39.5245 52.328 39.5245 74.9408C39.5185 79.7979 40.3879 84.6164 42.091 89.1653M42.091 89.1653C46.1024 89.9443 49.921 91.5062 53.3285 93.7618" stroke="#30373E" stroke-width="10" stroke-linecap="round"/>
<path opacity="0.5" d="M48.4999 23.125C42.7365 23.1225 37.144 25.082 32.6426 28.6811C28.1412 32.2801 24.9991 37.3044 23.7334 42.927C22.4676 48.5496 23.1535 54.4356 25.6784 59.6164C28.2032 64.7973 32.4165 68.9643 37.6249 71.4318M48.4999 23.125C53.8939 23.125 58.8891 24.807 62.9999 27.6708M48.4999 23.125C43.1059 23.125 38.1106 24.807 33.9998 27.6708M48.4999 23.125C55.4164 23.125 61.6804 25.8873 66.2624 30.375M48.4999 23.125C41.5834 23.125 35.3194 25.8873 30.7374 30.375M48.4999 23.125C57.7291 23.125 65.8129 28.055 70.2499 35.421" stroke="#30373E" stroke-width="10"/>
<path opacity="0.5" d="M44.875 5V8.625M8.625 44.875H5M73.0702 16.6798L71.5043 18.2457M18.2457 71.5043L16.6798 73.0702M18.2457 18.2457L16.6798 16.6798" stroke="#30373E" stroke-width="10" stroke-linecap="round"/>
</svg>
