<svg width="176" height="169" viewBox="0 0 176 169" fill="none" xmlns="http://www.w3.org/2000/svg">
<path d="M170.417 94.7168C170.417 113.993 156.695 130.107 138.373 134.024M58.5199 134.928C41.6649 134.928 28 121.427 28 104.771C28 88.1087 41.6649 74.6076 58.5199 74.6076C60.5422 74.6076 62.5218 74.807 64.4302 75.1773M116.163 56.7913C120.524 55.2718 125.11 54.499 129.728 54.5055C134.385 54.5055 138.864 55.2817 143.044 56.7058M143.044 56.7058C140.773 36.618 123.533 20.9949 102.598 20.9949C80.1245 20.9949 61.9094 38.9963 61.9023 61.2062C61.8964 65.9768 62.7503 70.7095 64.423 75.1773C68.363 75.9425 72.1135 77.4765 75.4603 79.6919M143.044 56.7058C147.849 58.3485 152.298 60.8747 156.175 64.1542" stroke="#30373E" stroke-width="10" stroke-linecap="round"/>
<path d="M51.4251 24.3438C45.2743 24.3411 39.3057 26.4323 34.5016 30.2734C29.6976 34.1145 26.3442 39.4765 24.9933 45.4772C23.6424 51.4779 24.3745 57.7597 27.0691 63.2889C29.7637 68.8181 34.2602 73.2653 39.8189 75.8987M51.4251 24.3438C57.1818 24.3438 62.5129 26.1389 66.9001 29.1952M51.4251 24.3438C45.6684 24.3438 40.3373 26.1389 35.9501 29.1952M51.4251 24.3438C58.8067 24.3438 65.4919 27.2917 70.382 32.0813M51.4251 24.3438C44.0435 24.3438 37.3583 27.2917 32.4682 32.0813M51.4251 24.3438C61.2749 24.3438 69.9023 29.6053 74.6376 37.4666" stroke="#30373E" stroke-width="10"/>
<path d="M82.3032 131.033L90.4779 119.974C95.7687 112.818 98.4105 109.243 100.874 110.005C103.338 110.76 103.338 115.146 103.338 123.912V124.738C103.338 127.907 103.338 129.488 104.349 130.478L104.406 130.527C105.439 131.503 107.084 131.503 110.374 131.503C116.298 131.503 119.26 131.503 120.271 133.297L120.314 133.39C121.261 135.213 119.545 137.534 116.113 142.177L107.938 153.236C102.647 160.392 100.006 163.967 97.5418 163.205C95.078 162.457 95.078 158.071 95.078 149.298V148.472C95.078 145.303 95.078 143.722 94.0668 142.733L94.0099 142.683C92.9774 141.707 91.3324 141.707 88.0426 141.707C82.1181 141.707 79.1558 141.707 78.1447 139.913C78.1299 139.882 78.1157 139.851 78.1019 139.82C77.1549 137.997 78.871 135.676 82.3032 131.033Z" stroke="#30373E" stroke-width="10"/>
<path d="M47.5562 5V8.86875M8.86875 47.5562H5M77.6474 17.4651L75.9761 19.1364M19.1364 75.9761L17.4651 77.6474M19.1364 19.1364L17.4651 17.4651" stroke="#30373E" stroke-width="10" stroke-linecap="round"/>
</svg>
