<svg width="175" height="189" viewBox="0 0 175 189" fill="none" xmlns="http://www.w3.org/2000/svg">
<path d="M51.4251 24.3438C45.2743 24.3411 39.3057 26.4323 34.5016 30.2734C29.6976 34.1145 26.3442 39.4765 24.9933 45.4772C23.6424 51.4779 24.3745 57.7597 27.0691 63.2889C29.7637 68.8181 34.2602 73.2653 39.8189 75.8987M51.4251 24.3438C57.1818 24.3438 62.5129 26.1389 66.9001 29.1952M51.4251 24.3438C45.6684 24.3438 40.3373 26.1389 35.9501 29.1952M51.4251 24.3438C58.8067 24.3438 65.4919 27.2917 70.382 32.0813M51.4251 24.3438C44.0435 24.3438 37.3583 27.2917 32.4682 32.0813M51.4251 24.3438C61.2749 24.3438 69.9023 29.6053 74.6376 37.4666" stroke="#30373E" stroke-width="10"/>
<path d="M47.5562 5V8.86875M8.86875 47.5562H5M77.6474 17.4651L75.9761 19.1364M19.1364 75.9761L17.4651 77.6474M19.1364 19.1364L17.4651 17.4651" stroke="#30373E" stroke-width="10" stroke-linecap="round"/>
<path fill-rule="evenodd" clip-rule="evenodd" d="M72.5177 151C72.8638 151 73.1958 151.14 73.4406 151.388C73.6854 151.637 73.8229 151.974 73.8229 152.326V156.196L76.8162 153.156C77.0636 152.922 77.3909 152.795 77.729 152.801C78.0671 152.807 78.3898 152.946 78.6289 153.189C78.868 153.432 79.005 153.759 79.011 154.103C79.017 154.446 78.8914 154.778 78.6609 155.03L73.8229 159.943V167.704L80.4395 163.825L82.2111 157.112C82.2554 156.944 82.3319 156.786 82.4362 156.648C82.5406 156.51 82.6707 156.394 82.8191 156.307C82.9675 156.22 83.1314 156.163 83.3013 156.14C83.4713 156.118 83.6439 156.129 83.8095 156.174C83.9751 156.219 84.1303 156.297 84.2663 156.403C84.4023 156.509 84.5165 156.641 84.6022 156.792C84.6879 156.942 84.7436 157.109 84.766 157.281C84.7884 157.454 84.7771 157.629 84.7327 157.798L83.6364 161.951L86.936 160.016C87.2356 159.843 87.5904 159.797 87.923 159.889C88.2557 159.981 88.5391 160.202 88.7114 160.505C88.8837 160.808 88.931 161.168 88.8429 161.507C88.7548 161.845 88.5385 162.135 88.2412 162.312L84.9433 164.245L89.033 165.359C89.3674 165.45 89.6524 165.672 89.8254 165.977C89.9984 166.281 90.0451 166.643 89.9554 166.983C89.8656 167.323 89.6466 167.612 89.3467 167.788C89.0468 167.963 88.6904 168.011 88.356 167.92L81.7464 166.12L75.1281 170L81.7447 173.88L88.3543 172.08C88.6889 171.989 89.0454 172.037 89.3453 172.213C89.6453 172.389 89.8641 172.679 89.9536 173.019C90.0432 173.359 89.9961 173.721 89.8228 174.025C89.6495 174.33 89.3641 174.552 89.0295 174.643L84.9416 175.755L88.2412 177.69C88.3908 177.777 88.5221 177.892 88.6276 178.03C88.7331 178.168 88.8106 178.326 88.8557 178.495C88.9008 178.664 88.9126 178.84 88.8904 179.013C88.8682 179.187 88.8125 179.354 88.7264 179.505C88.6403 179.657 88.5256 179.789 88.3889 179.895C88.2522 180.002 88.0961 180.079 87.9297 180.124C87.7633 180.169 87.5898 180.18 87.4192 180.156C87.2487 180.132 87.0844 180.074 86.936 179.986L83.6364 178.051L84.7327 182.202C84.7771 182.371 84.7884 182.546 84.766 182.719C84.7436 182.891 84.6879 183.058 84.6022 183.208C84.5165 183.359 84.4023 183.491 84.2663 183.597C84.1303 183.703 83.9751 183.781 83.8095 183.826C83.6439 183.871 83.4713 183.882 83.3013 183.86C83.1314 183.837 82.9675 183.78 82.8191 183.693C82.6707 183.606 82.5406 183.49 82.4362 183.352C82.3319 183.214 82.2554 183.056 82.2111 182.888L80.4395 176.175L73.8229 172.298V180.057L78.6609 184.97C78.7856 185.092 78.8851 185.239 78.9536 185.4C79.0221 185.562 79.0581 185.736 79.0597 185.912C79.0613 186.088 79.0284 186.263 78.9628 186.426C78.8973 186.588 78.8004 186.737 78.6779 186.861C78.5554 186.986 78.4098 187.084 78.2494 187.151C78.089 187.217 77.9172 187.251 77.7438 187.25C77.5705 187.248 77.3993 187.212 77.24 187.142C77.0807 187.073 76.9366 186.972 76.8162 186.845L73.8229 183.805V187.674C73.8229 188.026 73.6854 188.363 73.4406 188.612C73.1958 188.86 72.8638 189 72.5177 189C72.1715 189 71.8395 188.86 71.5947 188.612C71.35 188.363 71.2125 188.026 71.2125 187.674V183.804L68.2192 186.844C67.9717 187.078 67.6445 187.205 67.3063 187.199C66.9682 187.193 66.6456 187.054 66.4064 186.811C66.1673 186.568 66.0303 186.241 66.0243 185.897C66.0184 185.554 66.1439 185.222 66.3745 184.97L71.2125 180.057V172.296L64.5959 176.175L62.8243 182.888C62.7799 183.056 62.7034 183.214 62.5991 183.352C62.4948 183.49 62.3647 183.606 62.2162 183.693C62.0678 183.78 61.9039 183.837 61.734 183.86C61.5641 183.882 61.3914 183.871 61.2258 183.826C61.0602 183.781 60.905 183.703 60.769 183.597C60.633 183.491 60.5189 183.359 60.4331 183.208C60.3474 183.058 60.2918 182.891 60.2694 182.719C60.247 182.546 60.2583 182.371 60.3026 182.202L61.399 178.049L58.0994 179.986C57.7994 180.162 57.4429 180.209 57.1084 180.118C56.7738 180.027 56.4887 179.805 56.3156 179.5C56.1425 179.195 56.0957 178.833 56.1854 178.494C56.2752 178.154 56.4942 177.864 56.7942 177.688L60.0938 175.755L56.0041 174.641C55.8341 174.6 55.674 174.525 55.5332 174.42C55.3923 174.315 55.2737 174.183 55.1842 174.03C55.0948 173.878 55.0363 173.709 55.0123 173.533C54.9884 173.358 54.9994 173.179 55.0447 173.008C55.09 172.836 55.1687 172.676 55.2762 172.536C55.3836 172.396 55.5176 172.28 55.6702 172.193C55.8228 172.107 55.9909 172.053 56.1645 172.034C56.3381 172.015 56.5138 172.031 56.681 172.082L63.2907 173.88L69.9072 170L63.2907 166.12L56.681 167.92C56.5154 167.965 56.3426 167.976 56.1725 167.953C56.0025 167.931 55.8385 167.874 55.69 167.787C55.5415 167.7 55.4113 167.584 55.307 167.445C55.2026 167.307 55.1261 167.149 55.0817 166.981C55.0374 166.813 55.0261 166.637 55.0486 166.465C55.071 166.292 55.1267 166.126 55.2125 165.975C55.2983 165.824 55.4126 165.692 55.5487 165.586C55.6848 165.48 55.8401 165.402 56.0058 165.357L60.0938 164.245L56.7942 162.312C56.6456 162.225 56.5154 162.109 56.411 161.971C56.3065 161.832 56.2299 161.675 56.1854 161.506C56.141 161.338 56.1296 161.163 56.152 160.99C56.1743 160.817 56.2299 160.651 56.3156 160.5C56.4013 160.349 56.5154 160.217 56.6514 160.111C56.7875 160.005 56.9427 159.927 57.1084 159.882C57.4429 159.791 57.7994 159.838 58.0994 160.014L61.3972 161.951L60.3008 157.799C60.2113 157.46 60.2584 157.097 60.4317 156.793C60.605 156.488 60.8903 156.266 61.2249 156.175C61.5596 156.084 61.9161 156.132 62.216 156.308C62.5159 156.484 62.7347 156.774 62.8243 157.114L64.5941 163.826L71.2125 167.702V159.943L66.3745 155.03C66.1439 154.778 66.0184 154.446 66.0243 154.103C66.0303 153.759 66.1673 153.432 66.4064 153.189C66.6456 152.946 66.9682 152.807 67.3063 152.801C67.6445 152.795 67.9717 152.922 68.2192 153.156L71.2125 156.196V152.326C71.2125 151.974 71.35 151.637 71.5947 151.388C71.8395 151.14 72.1715 151 72.5177 151Z" fill="#30373E"/>
<path fill-rule="evenodd" clip-rule="evenodd" d="M119.518 151C119.864 151 120.196 151.14 120.441 151.388C120.685 151.637 120.823 151.974 120.823 152.326V156.196L123.816 153.156C124.064 152.922 124.391 152.795 124.729 152.801C125.067 152.807 125.39 152.946 125.629 153.189C125.868 153.432 126.005 153.759 126.011 154.103C126.017 154.446 125.891 154.778 125.661 155.03L120.823 159.943V167.704L127.439 163.825L129.211 157.112C129.255 156.944 129.332 156.786 129.436 156.648C129.541 156.51 129.671 156.394 129.819 156.307C129.968 156.22 130.131 156.163 130.301 156.14C130.471 156.118 130.644 156.129 130.81 156.174C130.975 156.219 131.13 156.297 131.266 156.403C131.402 156.509 131.516 156.641 131.602 156.792C131.688 156.942 131.744 157.109 131.766 157.281C131.788 157.454 131.777 157.629 131.733 157.798L130.636 161.951L133.936 160.016C134.236 159.843 134.59 159.797 134.923 159.889C135.256 159.981 135.539 160.202 135.711 160.505C135.884 160.808 135.931 161.168 135.843 161.507C135.755 161.845 135.539 162.135 135.241 162.312L131.943 164.245L136.033 165.359C136.367 165.45 136.652 165.672 136.825 165.977C136.998 166.281 137.045 166.643 136.955 166.983C136.866 167.323 136.647 167.612 136.347 167.788C136.047 167.963 135.69 168.011 135.356 167.92L128.746 166.12L122.128 170L128.745 173.88L135.354 172.08C135.689 171.989 136.045 172.037 136.345 172.213C136.645 172.389 136.864 172.679 136.954 173.019C137.043 173.359 136.996 173.721 136.823 174.025C136.649 174.33 136.364 174.552 136.03 174.643L131.942 175.755L135.241 177.69C135.391 177.777 135.522 177.892 135.628 178.03C135.733 178.168 135.811 178.326 135.856 178.495C135.901 178.664 135.913 178.84 135.89 179.013C135.868 179.187 135.812 179.354 135.726 179.505C135.64 179.657 135.526 179.789 135.389 179.895C135.252 180.002 135.096 180.079 134.93 180.124C134.763 180.169 134.59 180.18 134.419 180.156C134.249 180.132 134.084 180.074 133.936 179.986L130.636 178.051L131.733 182.202C131.777 182.371 131.788 182.546 131.766 182.719C131.744 182.891 131.688 183.058 131.602 183.208C131.516 183.359 131.402 183.491 131.266 183.597C131.13 183.703 130.975 183.781 130.81 183.826C130.644 183.871 130.471 183.882 130.301 183.86C130.131 183.837 129.968 183.78 129.819 183.693C129.671 183.606 129.541 183.49 129.436 183.352C129.332 183.214 129.255 183.056 129.211 182.888L127.439 176.175L120.823 172.298V180.057L125.661 184.97C125.786 185.092 125.885 185.239 125.954 185.4C126.022 185.562 126.058 185.736 126.06 185.912C126.061 186.088 126.028 186.263 125.963 186.426C125.897 186.588 125.8 186.737 125.678 186.861C125.555 186.986 125.41 187.084 125.249 187.151C125.089 187.217 124.917 187.251 124.744 187.25C124.571 187.248 124.399 187.212 124.24 187.142C124.081 187.073 123.937 186.972 123.816 186.845L120.823 183.805V187.674C120.823 188.026 120.685 188.363 120.441 188.612C120.196 188.86 119.864 189 119.518 189C119.172 189 118.84 188.86 118.595 188.612C118.35 188.363 118.212 188.026 118.212 187.674V183.804L115.219 186.844C114.972 187.078 114.644 187.205 114.306 187.199C113.968 187.193 113.646 187.054 113.406 186.811C113.167 186.568 113.03 186.241 113.024 185.897C113.018 185.554 113.144 185.222 113.374 184.97L118.212 180.057V172.296L111.596 176.175L109.824 182.888C109.78 183.056 109.703 183.214 109.599 183.352C109.495 183.49 109.365 183.606 109.216 183.693C109.068 183.78 108.904 183.837 108.734 183.86C108.564 183.882 108.391 183.871 108.226 183.826C108.06 183.781 107.905 183.703 107.769 183.597C107.633 183.491 107.519 183.359 107.433 183.208C107.347 183.058 107.292 182.891 107.269 182.719C107.247 182.546 107.258 182.371 107.303 182.202L108.399 178.049L105.099 179.986C104.799 180.162 104.443 180.209 104.108 180.118C103.774 180.027 103.489 179.805 103.316 179.5C103.143 179.195 103.096 178.833 103.185 178.494C103.275 178.154 103.494 177.864 103.794 177.688L107.094 175.755L103.004 174.641C102.834 174.6 102.674 174.525 102.533 174.42C102.392 174.315 102.274 174.183 102.184 174.03C102.095 173.878 102.036 173.709 102.012 173.533C101.988 173.358 101.999 173.179 102.045 173.008C102.09 172.836 102.169 172.676 102.276 172.536C102.384 172.396 102.518 172.28 102.67 172.193C102.823 172.107 102.991 172.053 103.164 172.034C103.338 172.015 103.514 172.031 103.681 172.082L110.291 173.88L116.907 170L110.291 166.12L103.681 167.92C103.515 167.965 103.343 167.976 103.173 167.953C103.002 167.931 102.839 167.874 102.69 167.787C102.541 167.7 102.411 167.584 102.307 167.445C102.203 167.307 102.126 167.149 102.082 166.981C102.037 166.813 102.026 166.637 102.049 166.465C102.071 166.292 102.127 166.126 102.213 165.975C102.298 165.824 102.413 165.692 102.549 165.586C102.685 165.48 102.84 165.402 103.006 165.357L107.094 164.245L103.794 162.312C103.646 162.225 103.515 162.109 103.411 161.971C103.307 161.832 103.23 161.675 103.185 161.506C103.141 161.338 103.13 161.163 103.152 160.99C103.174 160.817 103.23 160.651 103.316 160.5C103.401 160.349 103.515 160.217 103.651 160.111C103.787 160.005 103.943 159.927 104.108 159.882C104.443 159.791 104.799 159.838 105.099 160.014L108.397 161.951L107.301 157.799C107.211 157.46 107.258 157.097 107.432 156.793C107.605 156.488 107.89 156.266 108.225 156.175C108.56 156.084 108.916 156.132 109.216 156.308C109.516 156.484 109.735 156.774 109.824 157.114L111.594 163.826L118.212 167.702V159.943L113.374 155.03C113.144 154.778 113.018 154.446 113.024 154.103C113.03 153.759 113.167 153.432 113.406 153.189C113.646 152.946 113.968 152.807 114.306 152.801C114.644 152.795 114.972 152.922 115.219 153.156L118.212 156.196V152.326C118.212 151.974 118.35 151.637 118.595 151.388C118.84 151.14 119.172 151 119.518 151Z" fill="#30373E"/>
<path d="M114.762 56.4458C119.202 54.8987 123.872 54.1119 128.573 54.1185C133.315 54.1185 137.875 54.9088 142.131 56.3588M142.131 56.3588C158.357 61.905 170 77.1373 170 95.0593C170 117.672 151.454 136 128.573 136H56.0735C38.9127 136 25 122.254 25 105.296C25 88.3385 38.9127 74.5925 56.0735 74.5853C58.0933 74.5855 60.1084 74.7797 62.091 75.1653M142.131 56.3588C139.818 35.9065 122.266 20 100.951 20C78.07 20 59.5245 38.328 59.5245 60.9408C59.5185 65.7979 60.3879 70.6164 62.091 75.1653M62.091 75.1653C66.1024 75.9443 69.921 77.5062 73.3285 79.7618" stroke="#30373E" stroke-width="10" stroke-linecap="round"/>
</svg>
