<svg width="151" height="150" viewBox="0 0 151 150" fill="none" xmlns="http://www.w3.org/2000/svg">
<path opacity="0.5" d="M107.681 120.6C131.469 120.6 150.75 101.545 150.75 78.0357C150.75 59.403 138.637 43.5667 121.768 37.8006C119.371 16.5373 101.116 0 78.9628 0C55.1745 0 35.8936 19.0548 35.8936 42.5643C35.8936 47.7651 36.8358 52.7399 38.5619 57.3528C36.5006 56.9522 34.4056 56.7503 32.3057 56.7498C14.4645 56.7574 0 71.0485 0 88.6787C0 106.309 14.4645 120.6 32.3057 120.6H107.681Z" fill="#525252"/>
<path d="M56.7204 115.38L65.3735 103.659C70.9738 96.0841 73.7702 92.3003 76.3782 93.1068C78.9862 93.8983 78.9862 98.5489 78.9862 107.835V108.709C78.9862 112.064 78.9862 113.737 80.0565 114.792L80.1168 114.845C81.2098 115.87 82.9509 115.87 86.4332 115.87C92.7044 115.87 95.84 115.87 96.9104 117.777C96.9257 117.807 96.9408 117.837 96.9556 117.868C97.9581 119.805 96.1415 122.262 92.5085 127.176L83.8554 138.897C78.2551 146.472 75.4586 150.264 72.8507 149.457C70.2427 148.658 70.2427 144.015 70.2427 134.721V133.847C70.2427 130.5 70.2427 128.819 69.1724 127.772L69.1121 127.719C68.0191 126.686 66.278 126.686 62.7956 126.686C56.5244 126.686 53.3888 126.686 52.3185 124.787C52.3029 124.755 52.2878 124.722 52.2733 124.689C51.2708 122.759 53.0873 120.295 56.7204 115.38Z" fill="#30373E"/>
</svg>
