<svg width="175" height="194" viewBox="0 0 175 194" fill="none" xmlns="http://www.w3.org/2000/svg">
<path d="M51.4251 24.3438C45.2743 24.3411 39.3057 26.4323 34.5016 30.2734C29.6976 34.1145 26.3442 39.4765 24.9933 45.4772C23.6424 51.4779 24.3745 57.7597 27.0691 63.2889C29.7637 68.8181 34.2602 73.2653 39.8189 75.8987M51.4251 24.3438C57.1818 24.3438 62.5129 26.1389 66.9001 29.1952M51.4251 24.3438C45.6684 24.3438 40.3373 26.1389 35.9501 29.1952M51.4251 24.3438C58.8067 24.3438 65.4919 27.2917 70.382 32.0813M51.4251 24.3438C44.0435 24.3438 37.3583 27.2917 32.4682 32.0813M51.4251 24.3438C61.2749 24.3438 69.9023 29.6053 74.6376 37.4666" stroke="#30373E" stroke-width="10"/>
<path d="M47.5562 5V8.86875M8.86875 47.5562H5M77.6474 17.4651L75.9761 19.1364M19.1364 75.9761L17.4651 77.6474M19.1364 19.1364L17.4651 17.4651" stroke="#30373E" stroke-width="10" stroke-linecap="round"/>
<path d="M114.762 56.4458C119.202 54.8987 123.872 54.1119 128.573 54.1185C133.315 54.1185 137.875 54.9088 142.131 56.3588M142.131 56.3588C158.357 61.905 170 77.1373 170 95.0593C170 117.672 151.454 136 128.573 136H56.0735C38.9127 136 25 122.254 25 105.296C25 88.3385 38.9127 74.5925 56.0735 74.5853C58.0933 74.5855 60.1084 74.7797 62.091 75.1653M142.131 56.3588C139.818 35.9065 122.266 20 100.951 20C78.07 20 59.5245 38.328 59.5245 60.9408C59.5185 65.7979 60.3879 70.6164 62.091 75.1653M62.091 75.1653C66.1024 75.9443 69.921 77.5062 73.3285 79.7618" stroke="#30373E" stroke-width="10" stroke-linecap="round"/>
<path d="M87 153L71 192" stroke="#30373E" stroke-width="10"/>
<path d="M112 149L96 188" stroke="#30373E" stroke-width="10"/>
</svg>
