<svg width="155" height="181" viewBox="0 0 155 181" fill="none" xmlns="http://www.w3.org/2000/svg">
<path fill-rule="evenodd" clip-rule="evenodd" d="M99.5177 141C99.8638 141 100.196 141.14 100.441 141.388C100.685 141.637 100.823 141.974 100.823 142.326V146.196L103.816 143.156C104.064 142.922 104.391 142.795 104.729 142.801C105.067 142.807 105.39 142.946 105.629 143.189C105.868 143.432 106.005 143.759 106.011 144.103C106.017 144.446 105.891 144.778 105.661 145.03L100.823 149.943V157.704L107.439 153.825L109.211 147.112C109.255 146.944 109.332 146.786 109.436 146.648C109.541 146.51 109.671 146.394 109.819 146.307C109.968 146.22 110.131 146.163 110.301 146.14C110.471 146.118 110.644 146.129 110.81 146.174C110.975 146.219 111.13 146.297 111.266 146.403C111.402 146.509 111.516 146.641 111.602 146.792C111.688 146.942 111.744 147.109 111.766 147.281C111.788 147.454 111.777 147.629 111.733 147.798L110.636 151.951L113.936 150.016C114.236 149.843 114.59 149.797 114.923 149.889C115.256 149.981 115.539 150.202 115.711 150.505C115.884 150.808 115.931 151.168 115.843 151.507C115.755 151.845 115.539 152.135 115.241 152.312L111.943 154.245L116.033 155.359C116.367 155.45 116.652 155.672 116.825 155.977C116.998 156.281 117.045 156.643 116.955 156.983C116.866 157.323 116.647 157.612 116.347 157.788C116.047 157.963 115.69 158.011 115.356 157.92L108.746 156.12L102.128 160L108.745 163.88L115.354 162.08C115.689 161.989 116.045 162.037 116.345 162.213C116.645 162.389 116.864 162.679 116.954 163.019C117.043 163.359 116.996 163.721 116.823 164.025C116.649 164.33 116.364 164.552 116.03 164.643L111.942 165.755L115.241 167.69C115.391 167.777 115.522 167.892 115.628 168.03C115.733 168.168 115.811 168.326 115.856 168.495C115.901 168.664 115.913 168.84 115.89 169.013C115.868 169.187 115.812 169.354 115.726 169.505C115.64 169.657 115.526 169.789 115.389 169.895C115.252 170.002 115.096 170.079 114.93 170.124C114.763 170.169 114.59 170.18 114.419 170.156C114.249 170.132 114.084 170.074 113.936 169.986L110.636 168.051L111.733 172.202C111.777 172.371 111.788 172.546 111.766 172.719C111.744 172.891 111.688 173.058 111.602 173.208C111.516 173.359 111.402 173.491 111.266 173.597C111.13 173.703 110.975 173.781 110.81 173.826C110.644 173.871 110.471 173.882 110.301 173.86C110.131 173.837 109.968 173.78 109.819 173.693C109.671 173.606 109.541 173.49 109.436 173.352C109.332 173.214 109.255 173.056 109.211 172.888L107.439 166.175L100.823 162.298V170.057L105.661 174.97C105.786 175.092 105.885 175.239 105.954 175.4C106.022 175.562 106.058 175.736 106.06 175.912C106.061 176.088 106.028 176.263 105.963 176.426C105.897 176.588 105.8 176.737 105.678 176.861C105.555 176.986 105.41 177.084 105.249 177.151C105.089 177.217 104.917 177.251 104.744 177.25C104.571 177.248 104.399 177.212 104.24 177.142C104.081 177.073 103.937 176.972 103.816 176.845L100.823 173.805V177.674C100.823 178.026 100.685 178.363 100.441 178.612C100.196 178.86 99.8638 179 99.5177 179C99.1715 179 98.8395 178.86 98.5947 178.612C98.35 178.363 98.2125 178.026 98.2125 177.674V173.804L95.2192 176.844C94.9717 177.078 94.6445 177.205 94.3063 177.199C93.9682 177.193 93.6456 177.054 93.4064 176.811C93.1673 176.568 93.0303 176.241 93.0243 175.897C93.0184 175.554 93.1439 175.222 93.3745 174.97L98.2125 170.057V162.296L91.5959 166.175L89.8243 172.888C89.7799 173.056 89.7034 173.214 89.5991 173.352C89.4948 173.49 89.3647 173.606 89.2162 173.693C89.0678 173.78 88.9039 173.837 88.734 173.86C88.5641 173.882 88.3914 173.871 88.2258 173.826C88.0602 173.781 87.905 173.703 87.769 173.597C87.633 173.491 87.5189 173.359 87.4331 173.208C87.3474 173.058 87.2918 172.891 87.2694 172.719C87.247 172.546 87.2583 172.371 87.3026 172.202L88.399 168.049L85.0994 169.986C84.7994 170.162 84.4429 170.209 84.1084 170.118C83.7738 170.027 83.4887 169.805 83.3156 169.5C83.1425 169.195 83.0957 168.833 83.1854 168.494C83.2752 168.154 83.4942 167.864 83.7942 167.688L87.0938 165.755L83.0041 164.641C82.8341 164.6 82.674 164.525 82.5332 164.42C82.3923 164.315 82.2737 164.183 82.1842 164.03C82.0948 163.878 82.0363 163.709 82.0123 163.533C81.9884 163.358 81.9994 163.179 82.0447 163.008C82.09 162.836 82.1687 162.676 82.2762 162.536C82.3836 162.396 82.5176 162.28 82.6702 162.193C82.8228 162.107 82.9909 162.053 83.1645 162.034C83.3381 162.015 83.5138 162.031 83.681 162.082L90.2907 163.88L96.9072 160L90.2907 156.12L83.681 157.92C83.5154 157.965 83.3426 157.976 83.1725 157.953C83.0025 157.931 82.8385 157.874 82.69 157.787C82.5415 157.7 82.4113 157.584 82.307 157.445C82.2026 157.307 82.1261 157.149 82.0817 156.981C82.0374 156.813 82.0261 156.637 82.0486 156.465C82.071 156.292 82.1267 156.126 82.2125 155.975C82.2983 155.824 82.4126 155.692 82.5487 155.586C82.6848 155.48 82.8401 155.402 83.0058 155.357L87.0938 154.245L83.7942 152.312C83.6456 152.225 83.5154 152.109 83.411 151.971C83.3065 151.832 83.2299 151.675 83.1854 151.506C83.141 151.338 83.1296 151.163 83.152 150.99C83.1743 150.817 83.2299 150.651 83.3156 150.5C83.4013 150.349 83.5154 150.217 83.6514 150.111C83.7875 150.005 83.9427 149.927 84.1084 149.882C84.4429 149.791 84.7994 149.838 85.0994 150.014L88.3972 151.951L87.3008 147.799C87.2113 147.46 87.2584 147.097 87.4317 146.793C87.605 146.488 87.8903 146.266 88.2249 146.175C88.5596 146.084 88.9161 146.132 89.216 146.308C89.5159 146.484 89.7347 146.774 89.8243 147.114L91.5941 153.826L98.2125 157.702V149.943L93.3745 145.03C93.1439 144.778 93.0184 144.446 93.0243 144.103C93.0303 143.759 93.1673 143.432 93.4064 143.189C93.6456 142.946 93.9682 142.807 94.3063 142.801C94.6445 142.795 94.9717 142.922 95.2192 143.156L98.2125 146.196V142.326C98.2125 141.974 98.35 141.637 98.5947 141.388C98.8395 141.14 99.1715 141 99.5177 141Z" fill="#30373E"/>
<path d="M94.7622 41.4458C99.2023 39.8987 103.872 39.1119 108.573 39.1185C113.315 39.1185 117.875 39.9088 122.131 41.3588M122.131 41.3588C138.357 46.905 150 62.1373 150 80.0593C150 102.672 131.454 121 108.573 121H36.0735C18.9127 121 5 107.254 5 90.2962C5 73.3385 18.9127 59.5925 36.0735 59.5853C38.0933 59.5855 40.1084 59.7797 42.091 60.1653M122.131 41.3588C119.818 20.9065 102.266 5 80.951 5C58.07 5 39.5245 23.328 39.5245 45.9408C39.5185 50.7979 40.3879 55.6164 42.091 60.1653M42.091 60.1653C46.1024 60.9443 49.921 62.5062 53.3285 64.7618" stroke="#30373E" stroke-width="10" stroke-linecap="round"/>
<path d="M40 138L24 177" stroke="#30373E" stroke-width="10"/>
<path d="M65 140L49 179" stroke="#30373E" stroke-width="10"/>
</svg>
