<svg width="175" height="198" viewBox="0 0 175 198" fill="none" xmlns="http://www.w3.org/2000/svg">
<path d="M51.4251 24.3438C45.2743 24.3411 39.3057 26.4323 34.5016 30.2734C29.6976 34.1145 26.3442 39.4765 24.9933 45.4772C23.6424 51.4779 24.3745 57.7597 27.0691 63.2889C29.7637 68.8181 34.2602 73.2653 39.8189 75.8987M51.4251 24.3438C57.1818 24.3438 62.5129 26.1389 66.9001 29.1952M51.4251 24.3438C45.6684 24.3438 40.3373 26.1389 35.9501 29.1952M51.4251 24.3438C58.8067 24.3438 65.4919 27.2917 70.382 32.0813M51.4251 24.3438C44.0435 24.3438 37.3583 27.2917 32.4682 32.0813M51.4251 24.3438C61.2749 24.3438 69.9023 29.6053 74.6376 37.4666" stroke="#30373E" stroke-width="10"/>
<path d="M47.5562 5V8.86875M8.86875 47.5562H5M77.6474 17.4651L75.9761 19.1364M19.1364 75.9761L17.4651 77.6474M19.1364 19.1364L17.4651 17.4651" stroke="#30373E" stroke-width="10" stroke-linecap="round"/>
<path fill-rule="evenodd" clip-rule="evenodd" d="M96.5177 157C96.8638 157 97.1958 157.14 97.4406 157.388C97.6854 157.637 97.8229 157.974 97.8229 158.326V162.196L100.816 159.156C101.064 158.922 101.391 158.795 101.729 158.801C102.067 158.807 102.39 158.946 102.629 159.189C102.868 159.432 103.005 159.759 103.011 160.103C103.017 160.446 102.891 160.778 102.661 161.03L97.8229 165.943V173.704L104.439 169.825L106.211 163.112C106.255 162.944 106.332 162.786 106.436 162.648C106.541 162.51 106.671 162.394 106.819 162.307C106.968 162.22 107.131 162.163 107.301 162.14C107.471 162.118 107.644 162.129 107.81 162.174C107.975 162.219 108.13 162.297 108.266 162.403C108.402 162.509 108.516 162.641 108.602 162.792C108.688 162.942 108.744 163.109 108.766 163.281C108.788 163.454 108.777 163.629 108.733 163.798L107.636 167.951L110.936 166.016C111.236 165.843 111.59 165.797 111.923 165.889C112.256 165.981 112.539 166.202 112.711 166.505C112.884 166.808 112.931 167.168 112.843 167.507C112.755 167.845 112.539 168.135 112.241 168.312L108.943 170.245L113.033 171.359C113.367 171.45 113.652 171.672 113.825 171.977C113.998 172.281 114.045 172.643 113.955 172.983C113.866 173.323 113.647 173.612 113.347 173.788C113.047 173.963 112.69 174.011 112.356 173.92L105.746 172.12L99.1281 176L105.745 179.88L112.354 178.08C112.689 177.989 113.045 178.037 113.345 178.213C113.645 178.389 113.864 178.679 113.954 179.019C114.043 179.359 113.996 179.721 113.823 180.025C113.649 180.33 113.364 180.552 113.03 180.643L108.942 181.755L112.241 183.69C112.391 183.777 112.522 183.892 112.628 184.03C112.733 184.168 112.811 184.326 112.856 184.495C112.901 184.664 112.913 184.84 112.89 185.013C112.868 185.187 112.812 185.354 112.726 185.505C112.64 185.657 112.526 185.789 112.389 185.895C112.252 186.002 112.096 186.079 111.93 186.124C111.763 186.169 111.59 186.18 111.419 186.156C111.249 186.132 111.084 186.074 110.936 185.986L107.636 184.051L108.733 188.202C108.777 188.371 108.788 188.546 108.766 188.719C108.744 188.891 108.688 189.058 108.602 189.208C108.516 189.359 108.402 189.491 108.266 189.597C108.13 189.703 107.975 189.781 107.81 189.826C107.644 189.871 107.471 189.882 107.301 189.86C107.131 189.837 106.968 189.78 106.819 189.693C106.671 189.606 106.541 189.49 106.436 189.352C106.332 189.214 106.255 189.056 106.211 188.888L104.439 182.175L97.8229 178.298V186.057L102.661 190.97C102.786 191.092 102.885 191.239 102.954 191.4C103.022 191.562 103.058 191.736 103.06 191.912C103.061 192.088 103.028 192.263 102.963 192.426C102.897 192.588 102.8 192.737 102.678 192.861C102.555 192.986 102.41 193.084 102.249 193.151C102.089 193.217 101.917 193.251 101.744 193.25C101.571 193.248 101.399 193.212 101.24 193.142C101.081 193.073 100.937 192.972 100.816 192.845L97.8229 189.805V193.674C97.8229 194.026 97.6854 194.363 97.4406 194.612C97.1958 194.86 96.8638 195 96.5177 195C96.1715 195 95.8395 194.86 95.5947 194.612C95.35 194.363 95.2125 194.026 95.2125 193.674V189.804L92.2192 192.844C91.9717 193.078 91.6445 193.205 91.3063 193.199C90.9682 193.193 90.6456 193.054 90.4064 192.811C90.1673 192.568 90.0303 192.241 90.0243 191.897C90.0184 191.554 90.1439 191.222 90.3745 190.97L95.2125 186.057V178.296L88.5959 182.175L86.8243 188.888C86.7799 189.056 86.7034 189.214 86.5991 189.352C86.4948 189.49 86.3647 189.606 86.2162 189.693C86.0678 189.78 85.9039 189.837 85.734 189.86C85.5641 189.882 85.3914 189.871 85.2258 189.826C85.0602 189.781 84.905 189.703 84.769 189.597C84.633 189.491 84.5189 189.359 84.4331 189.208C84.3474 189.058 84.2918 188.891 84.2694 188.719C84.247 188.546 84.2583 188.371 84.3026 188.202L85.399 184.049L82.0994 185.986C81.7994 186.162 81.4429 186.209 81.1084 186.118C80.7738 186.027 80.4887 185.805 80.3156 185.5C80.1425 185.195 80.0957 184.833 80.1854 184.494C80.2752 184.154 80.4942 183.864 80.7942 183.688L84.0938 181.755L80.0041 180.641C79.8341 180.6 79.674 180.525 79.5332 180.42C79.3923 180.315 79.2737 180.183 79.1842 180.03C79.0948 179.878 79.0363 179.709 79.0123 179.533C78.9884 179.358 78.9994 179.179 79.0447 179.008C79.09 178.836 79.1687 178.676 79.2762 178.536C79.3836 178.396 79.5176 178.28 79.6702 178.193C79.8228 178.107 79.9909 178.053 80.1645 178.034C80.3381 178.015 80.5138 178.031 80.681 178.082L87.2907 179.88L93.9072 176L87.2907 172.12L80.681 173.92C80.5154 173.965 80.3426 173.976 80.1725 173.953C80.0025 173.931 79.8385 173.874 79.69 173.787C79.5415 173.7 79.4113 173.584 79.307 173.445C79.2026 173.307 79.1261 173.149 79.0817 172.981C79.0374 172.813 79.0261 172.637 79.0486 172.465C79.071 172.292 79.1267 172.126 79.2125 171.975C79.2983 171.824 79.4126 171.692 79.5487 171.586C79.6848 171.48 79.8401 171.402 80.0058 171.357L84.0938 170.245L80.7942 168.312C80.6456 168.225 80.5154 168.109 80.411 167.971C80.3065 167.832 80.2299 167.675 80.1854 167.506C80.141 167.338 80.1296 167.163 80.152 166.99C80.1743 166.817 80.2299 166.651 80.3156 166.5C80.4013 166.349 80.5154 166.217 80.6514 166.111C80.7875 166.005 80.9427 165.927 81.1084 165.882C81.4429 165.791 81.7994 165.838 82.0994 166.014L85.3972 167.951L84.3008 163.799C84.2113 163.46 84.2584 163.097 84.4317 162.793C84.605 162.488 84.8903 162.266 85.2249 162.175C85.5596 162.084 85.9161 162.132 86.216 162.308C86.5159 162.484 86.7347 162.774 86.8243 163.114L88.5941 169.826L95.2125 173.702V165.943L90.3745 161.03C90.1439 160.778 90.0184 160.446 90.0243 160.103C90.0303 159.759 90.1673 159.432 90.4064 159.189C90.6456 158.946 90.9682 158.807 91.3063 158.801C91.6445 158.795 91.9717 158.922 92.2192 159.156L95.2125 162.196V158.326C95.2125 157.974 95.35 157.637 95.5947 157.388C95.8395 157.14 96.1715 157 96.5177 157Z" fill="#30373E"/>
<path fill-rule="evenodd" clip-rule="evenodd" d="M140.518 157C140.864 157 141.196 157.14 141.441 157.388C141.685 157.637 141.823 157.974 141.823 158.326V162.196L144.816 159.156C145.064 158.922 145.391 158.795 145.729 158.801C146.067 158.807 146.39 158.946 146.629 159.189C146.868 159.432 147.005 159.759 147.011 160.103C147.017 160.446 146.891 160.778 146.661 161.03L141.823 165.943V173.704L148.439 169.825L150.211 163.112C150.255 162.944 150.332 162.786 150.436 162.648C150.541 162.51 150.671 162.394 150.819 162.307C150.968 162.22 151.131 162.163 151.301 162.14C151.471 162.118 151.644 162.129 151.81 162.174C151.975 162.219 152.13 162.297 152.266 162.403C152.402 162.509 152.516 162.641 152.602 162.792C152.688 162.942 152.744 163.109 152.766 163.281C152.788 163.454 152.777 163.629 152.733 163.798L151.636 167.951L154.936 166.016C155.236 165.843 155.59 165.797 155.923 165.889C156.256 165.981 156.539 166.202 156.711 166.505C156.884 166.808 156.931 167.168 156.843 167.507C156.755 167.845 156.539 168.135 156.241 168.312L152.943 170.245L157.033 171.359C157.367 171.45 157.652 171.672 157.825 171.977C157.998 172.281 158.045 172.643 157.955 172.983C157.866 173.323 157.647 173.612 157.347 173.788C157.047 173.963 156.69 174.011 156.356 173.92L149.746 172.12L143.128 176L149.745 179.88L156.354 178.08C156.689 177.989 157.045 178.037 157.345 178.213C157.645 178.389 157.864 178.679 157.954 179.019C158.043 179.359 157.996 179.721 157.823 180.025C157.649 180.33 157.364 180.552 157.03 180.643L152.942 181.755L156.241 183.69C156.391 183.777 156.522 183.892 156.628 184.03C156.733 184.168 156.811 184.326 156.856 184.495C156.901 184.664 156.913 184.84 156.89 185.013C156.868 185.187 156.812 185.354 156.726 185.505C156.64 185.657 156.526 185.789 156.389 185.895C156.252 186.002 156.096 186.079 155.93 186.124C155.763 186.169 155.59 186.18 155.419 186.156C155.249 186.132 155.084 186.074 154.936 185.986L151.636 184.051L152.733 188.202C152.777 188.371 152.788 188.546 152.766 188.719C152.744 188.891 152.688 189.058 152.602 189.208C152.516 189.359 152.402 189.491 152.266 189.597C152.13 189.703 151.975 189.781 151.81 189.826C151.644 189.871 151.471 189.882 151.301 189.86C151.131 189.837 150.968 189.78 150.819 189.693C150.671 189.606 150.541 189.49 150.436 189.352C150.332 189.214 150.255 189.056 150.211 188.888L148.439 182.175L141.823 178.298V186.057L146.661 190.97C146.786 191.092 146.885 191.239 146.954 191.4C147.022 191.562 147.058 191.736 147.06 191.912C147.061 192.088 147.028 192.263 146.963 192.426C146.897 192.588 146.8 192.737 146.678 192.861C146.555 192.986 146.41 193.084 146.249 193.151C146.089 193.217 145.917 193.251 145.744 193.25C145.571 193.248 145.399 193.212 145.24 193.142C145.081 193.073 144.937 192.972 144.816 192.845L141.823 189.805V193.674C141.823 194.026 141.685 194.363 141.441 194.612C141.196 194.86 140.864 195 140.518 195C140.172 195 139.84 194.86 139.595 194.612C139.35 194.363 139.212 194.026 139.212 193.674V189.804L136.219 192.844C135.972 193.078 135.644 193.205 135.306 193.199C134.968 193.193 134.646 193.054 134.406 192.811C134.167 192.568 134.03 192.241 134.024 191.897C134.018 191.554 134.144 191.222 134.374 190.97L139.212 186.057V178.296L132.596 182.175L130.824 188.888C130.78 189.056 130.703 189.214 130.599 189.352C130.495 189.49 130.365 189.606 130.216 189.693C130.068 189.78 129.904 189.837 129.734 189.86C129.564 189.882 129.391 189.871 129.226 189.826C129.06 189.781 128.905 189.703 128.769 189.597C128.633 189.491 128.519 189.359 128.433 189.208C128.347 189.058 128.292 188.891 128.269 188.719C128.247 188.546 128.258 188.371 128.303 188.202L129.399 184.049L126.099 185.986C125.799 186.162 125.443 186.209 125.108 186.118C124.774 186.027 124.489 185.805 124.316 185.5C124.143 185.195 124.096 184.833 124.185 184.494C124.275 184.154 124.494 183.864 124.794 183.688L128.094 181.755L124.004 180.641C123.834 180.6 123.674 180.525 123.533 180.42C123.392 180.315 123.274 180.183 123.184 180.03C123.095 179.878 123.036 179.709 123.012 179.533C122.988 179.358 122.999 179.179 123.045 179.008C123.09 178.836 123.169 178.676 123.276 178.536C123.384 178.396 123.518 178.28 123.67 178.193C123.823 178.107 123.991 178.053 124.164 178.034C124.338 178.015 124.514 178.031 124.681 178.082L131.291 179.88L137.907 176L131.291 172.12L124.681 173.92C124.515 173.965 124.343 173.976 124.173 173.953C124.002 173.931 123.839 173.874 123.69 173.787C123.541 173.7 123.411 173.584 123.307 173.445C123.203 173.307 123.126 173.149 123.082 172.981C123.037 172.813 123.026 172.637 123.049 172.465C123.071 172.292 123.127 172.126 123.213 171.975C123.298 171.824 123.413 171.692 123.549 171.586C123.685 171.48 123.84 171.402 124.006 171.357L128.094 170.245L124.794 168.312C124.646 168.225 124.515 168.109 124.411 167.971C124.307 167.832 124.23 167.675 124.185 167.506C124.141 167.338 124.13 167.163 124.152 166.99C124.174 166.817 124.23 166.651 124.316 166.5C124.401 166.349 124.515 166.217 124.651 166.111C124.787 166.005 124.943 165.927 125.108 165.882C125.443 165.791 125.799 165.838 126.099 166.014L129.397 167.951L128.301 163.799C128.211 163.46 128.258 163.097 128.432 162.793C128.605 162.488 128.89 162.266 129.225 162.175C129.56 162.084 129.916 162.132 130.216 162.308C130.516 162.484 130.735 162.774 130.824 163.114L132.594 169.826L139.212 173.702V165.943L134.374 161.03C134.144 160.778 134.018 160.446 134.024 160.103C134.03 159.759 134.167 159.432 134.406 159.189C134.646 158.946 134.968 158.807 135.306 158.801C135.644 158.795 135.972 158.922 136.219 159.156L139.212 162.196V158.326C139.212 157.974 139.35 157.637 139.595 157.388C139.84 157.14 140.172 157 140.518 157Z" fill="#30373E"/>
<path d="M114.762 56.4458C119.202 54.8987 123.872 54.1119 128.573 54.1185C133.315 54.1185 137.875 54.9088 142.131 56.3588M142.131 56.3588C158.357 61.905 170 77.1373 170 95.0593C170 117.672 151.454 136 128.573 136H56.0735C38.9127 136 25 122.254 25 105.296C25 88.3385 38.9127 74.5925 56.0735 74.5853C58.0933 74.5855 60.1084 74.7797 62.091 75.1653M142.131 56.3588C139.818 35.9065 122.266 20 100.951 20C78.07 20 59.5245 38.328 59.5245 60.9408C59.5185 65.7979 60.3879 70.6164 62.091 75.1653M62.091 75.1653C66.1024 75.9443 69.921 77.5062 73.3285 79.7618" stroke="#30373E" stroke-width="10" stroke-linecap="round"/>
<path d="M38 157L22 196" stroke="#30373E" stroke-width="10"/>
<path d="M63 153L47 192" stroke="#30373E" stroke-width="10"/>
</svg>
