<svg width="170" height="189" viewBox="0 0 170 189" fill="none" xmlns="http://www.w3.org/2000/svg">
<path d="M76.4809 147.567L85.134 135.847C90.7343 128.271 93.5307 124.488 96.1387 125.294C98.7467 126.086 98.7467 130.736 98.7467 140.022V140.897C98.7467 144.251 98.7467 145.924 99.817 146.98L99.8773 147.032C100.97 148.057 102.711 148.057 106.194 148.057C112.465 148.057 115.601 148.057 116.671 149.964C116.686 149.994 116.701 150.025 116.716 150.055C117.719 151.992 115.902 154.449 112.269 159.364L103.616 171.084C98.0156 178.66 95.2191 182.451 92.6112 181.644C90.0032 180.846 90.0032 176.202 90.0032 166.909V166.034C90.0032 162.688 90.0032 161.007 88.9329 159.959L88.8726 159.906C87.7796 158.874 86.0385 158.874 82.5561 158.874C76.2849 158.874 73.1493 158.874 72.079 156.974C72.0634 156.942 72.0483 156.909 72.0338 156.876C71.0313 154.947 72.8478 152.482 76.4809 147.567Z" fill="#30373E"/>
<path opacity="0.5" d="M92 60.5C92 68.8543 88.6813 76.8665 82.7739 82.7739C76.8665 88.6813 68.8543 92 60.5 92C52.1457 92 44.1335 88.6813 38.2261 82.7739C32.3187 76.8665 29 68.8543 29 60.5C29 52.1457 32.3187 44.1335 38.2261 38.2261C44.1335 32.3187 52.1457 29 60.5 29C68.8543 29 76.8665 32.3187 82.7739 38.2261C88.6813 44.1335 92 52.1457 92 60.5Z" fill="#746800"/>
<path opacity="0.5" fill-rule="evenodd" clip-rule="evenodd" d="M55.6763 0C57.4482 0 59.1476 0.704491 60.4006 1.95849C61.6535 3.2125 62.3574 4.91329 62.3574 6.68671V11.1445C62.3574 12.918 61.6535 14.6187 60.4006 15.8727C59.1476 17.1267 57.4482 17.8312 55.6763 17.8312C53.9043 17.8312 52.2049 17.1267 50.952 15.8727C49.699 14.6187 48.9951 12.918 48.9951 11.1445V6.68671C48.9951 4.91329 49.699 3.2125 50.952 1.95849C52.2049 0.704491 53.9043 0 55.6763 0ZM16.302 16.3156C16.9226 15.6929 17.6599 15.1988 18.4716 14.8617C19.2833 14.5246 20.1535 14.3511 21.0323 14.3511C21.9111 14.3511 22.7812 14.5246 23.5929 14.8617C24.4046 15.1988 25.1419 15.6929 25.7625 16.3156L27.6867 18.2503C28.9031 19.512 29.5758 21.2014 29.5597 22.9546C29.5437 24.7078 28.8403 26.3846 27.6009 27.6238C26.3616 28.863 24.6855 29.5655 22.9337 29.5799C21.182 29.5943 19.4946 28.9195 18.2351 27.7008L16.3109 25.7751C15.0598 24.5213 14.357 22.8218 14.357 21.0498C14.357 19.2778 15.0598 17.5783 16.3109 16.3245L16.302 16.3156ZM95.0416 16.3156C95.6625 16.9366 96.155 17.6739 96.491 18.4854C96.827 19.297 97 20.1668 97 21.0453C97 21.9238 96.827 22.7937 96.491 23.6052C96.155 24.4168 95.6625 25.1541 95.0416 25.7751L93.1174 27.7008C92.5058 28.3578 91.7682 28.8847 90.9486 29.2502C90.1291 29.6157 89.2444 29.8122 88.3473 29.828C87.4502 29.8439 86.5591 29.6787 85.7272 29.3424C84.8953 29.0061 84.1396 28.5055 83.5052 27.8706C82.8707 27.2356 82.3706 26.4793 82.0346 25.6466C81.6985 24.814 81.5335 23.9222 81.5493 23.0244C81.5652 22.1266 81.7615 21.2411 82.1267 20.4209C82.4918 19.6007 83.0183 18.8624 83.6747 18.2503L85.59 16.3245C86.2105 15.7031 86.9472 15.2102 87.7581 14.8739C88.5689 14.5376 89.4381 14.3645 90.3158 14.3645C91.1936 14.3645 92.0627 14.5376 92.8736 14.8739C93.6844 15.2102 94.4212 15.7031 95.0416 16.3245V16.3156ZM0 55.7226C0 53.9492 0.703905 52.2484 1.95686 50.9944C3.20982 49.7404 4.9092 49.0359 6.68115 49.0359H11.1353C12.9072 49.0359 14.6066 49.7404 15.8595 50.9944C17.1125 52.2484 17.8164 53.9492 17.8164 55.7226C17.8164 57.496 17.1125 59.1968 15.8595 60.4508C14.6066 61.7048 12.9072 62.4093 11.1353 62.4093H6.68115C4.9092 62.4093 3.20982 61.7048 1.95686 60.4508C0.703905 59.1968 0 57.496 0 55.7226ZM27.6867 83.7444C28.9379 84.9982 29.6406 86.6977 29.6406 88.4697C29.6406 90.2417 28.9379 91.9412 27.6867 93.195L25.7625 95.1207C24.503 96.3394 22.8157 97.0142 21.0639 96.9998C19.3121 96.9854 17.636 96.2829 16.3967 95.0437C15.1574 93.8045 14.4539 92.1278 14.4379 90.3745C14.4218 88.6213 15.0945 86.9319 16.3109 85.6702L18.2351 83.7444C19.4878 82.4922 21.1859 81.7889 22.9564 81.7889C24.7269 81.7889 26.434 82.4922 27.6867 83.7444Z" fill="#746800"/>
<path opacity="0.5" d="M126.681 151.6C150.469 151.6 169.75 132.545 169.75 109.036C169.75 90.403 157.637 74.5667 140.768 68.8006C138.371 47.5373 120.116 31 97.9628 31C74.1745 31 54.8936 50.0548 54.8936 73.5643C54.8936 78.7651 55.8358 83.7399 57.5619 88.3528C55.5006 87.9522 53.4056 87.7503 51.3057 87.7498C33.4645 87.7574 19 102.048 19 119.679C19 137.309 33.4645 151.6 51.3057 151.6H126.681Z" fill="#525252"/>
<path fill-rule="evenodd" clip-rule="evenodd" d="M49.5136 160C49.7807 160 50.0368 160.107 50.2256 160.296C50.4144 160.486 50.5205 160.743 50.5205 161.012V163.966L52.8296 161.646C53.0205 161.467 53.2729 161.37 53.5338 161.374C53.7946 161.379 54.0435 161.485 54.228 161.67C54.4125 161.856 54.5182 162.106 54.5228 162.368C54.5274 162.63 54.4305 162.884 54.2527 163.075L50.5205 166.825V172.748L55.6247 169.787L56.9914 164.664C57.0256 164.536 57.0846 164.416 57.1651 164.31C57.2456 164.205 57.3459 164.116 57.4604 164.05C57.5749 163.983 57.7014 163.94 57.8324 163.923C57.9635 163.906 58.0968 163.914 58.2245 163.949C58.3522 163.983 58.472 164.042 58.5769 164.123C58.6818 164.204 58.7698 164.305 58.836 164.42C58.9021 164.535 58.945 164.662 58.9623 164.794C58.9796 164.925 58.9709 165.059 58.9367 165.188L58.0909 168.357L60.6363 166.88C60.8674 166.748 61.1412 166.714 61.3978 166.784C61.6544 166.854 61.873 167.023 62.0059 167.254C62.1389 167.485 62.1754 167.76 62.1074 168.018C62.0394 168.277 61.8726 168.497 61.6432 168.633L59.0991 170.108L62.254 170.958C62.512 171.028 62.7319 171.197 62.8653 171.43C62.9988 171.662 63.0348 171.938 62.9656 172.198C62.8963 172.457 62.7274 172.678 62.496 172.812C62.2647 172.946 61.9898 172.982 61.7318 172.912L56.6329 171.539L51.5274 174.5L56.6316 177.461L61.7304 176.088C61.9886 176.018 62.2636 176.055 62.495 176.189C62.7263 176.323 62.8951 176.544 62.9642 176.804C63.0333 177.063 62.997 177.339 62.8633 177.572C62.7296 177.804 62.5095 177.974 62.2513 178.043L59.0978 178.892L61.6432 180.369C61.7586 180.435 61.8599 180.523 61.9413 180.628C62.0226 180.734 62.0824 180.854 62.1172 180.983C62.152 181.112 62.1611 181.246 62.144 181.379C62.1269 181.511 62.0839 181.639 62.0175 181.754C61.9511 181.87 61.8626 181.971 61.7571 182.052C61.6517 182.133 61.5313 182.192 61.4029 182.226C61.2745 182.26 61.1407 182.269 61.0091 182.251C60.8776 182.232 60.7509 182.188 60.6363 182.121L58.0909 180.644L58.9367 183.812C58.9709 183.941 58.9796 184.075 58.9623 184.206C58.945 184.338 58.9021 184.465 58.836 184.58C58.7698 184.695 58.6818 184.796 58.5769 184.877C58.472 184.958 58.3522 185.017 58.2245 185.051C58.0968 185.086 57.9635 185.094 57.8324 185.077C57.7014 185.06 57.5749 185.017 57.4604 184.95C57.3459 184.884 57.2456 184.795 57.1651 184.69C57.0846 184.584 57.0256 184.464 56.9914 184.336L55.6247 179.213L50.5205 176.253V182.175L54.2527 185.925C54.3489 186.018 54.4256 186.13 54.4785 186.253C54.5313 186.376 54.5591 186.509 54.5604 186.643C54.5616 186.778 54.5362 186.911 54.4856 187.035C54.435 187.16 54.3603 187.273 54.2658 187.368C54.1713 187.463 54.059 187.538 53.9352 187.589C53.8115 187.64 53.6789 187.665 53.5453 187.664C53.4116 187.663 53.2794 187.635 53.1566 187.582C53.0337 187.529 52.9226 187.452 52.8296 187.356L50.5205 185.036V187.988C50.5205 188.257 50.4144 188.514 50.2256 188.704C50.0368 188.893 49.7807 189 49.5136 189C49.2466 189 48.9905 188.893 48.8017 188.704C48.6128 188.514 48.5067 188.257 48.5067 187.988V185.034L46.1976 187.354C46.0068 187.533 45.7543 187.63 45.4935 187.626C45.2326 187.621 44.9837 187.515 44.7992 187.33C44.6148 187.144 44.5091 186.894 44.5045 186.632C44.4999 186.37 44.5967 186.116 44.7746 185.925L48.5067 182.175V176.252L43.4025 179.213L42.0359 184.336C42.0017 184.464 41.9426 184.584 41.8622 184.69C41.7817 184.795 41.6813 184.884 41.5668 184.95C41.4523 185.017 41.3259 185.06 41.1948 185.077C41.0637 185.094 40.9305 185.086 40.8028 185.051C40.675 185.017 40.5553 184.958 40.4504 184.877C40.3455 184.796 40.2574 184.695 40.1913 184.58C40.1252 184.465 40.0822 184.338 40.0649 184.206C40.0477 184.075 40.0564 183.941 40.0906 183.812L40.9363 180.643L38.391 182.121C38.1595 182.255 37.8845 182.291 37.6265 182.222C37.3684 182.152 37.1484 181.983 37.0149 181.75C36.8814 181.517 36.8452 181.241 36.9145 180.982C36.9837 180.723 37.1526 180.502 37.3841 180.367L39.9295 178.892L36.7746 178.042C36.6435 178.011 36.5199 177.953 36.4113 177.873C36.3027 177.793 36.2111 177.692 36.1421 177.576C36.0731 177.46 36.028 177.331 36.0095 177.197C35.991 177.062 35.9995 176.926 36.0345 176.795C36.0694 176.665 36.1302 176.542 36.213 176.435C36.2959 176.329 36.3993 176.24 36.517 176.174C36.6347 176.108 36.7644 176.067 36.8983 176.052C37.0323 176.037 37.1678 176.05 37.2968 176.089L42.3957 177.461L47.4999 174.5L42.3957 171.539L37.2968 172.912C37.169 172.947 37.0357 172.956 36.9045 172.938C36.7733 172.921 36.6469 172.878 36.5323 172.811C36.4177 172.745 36.3173 172.656 36.2368 172.55C36.1563 172.445 36.0972 172.325 36.063 172.196C36.0288 172.068 36.0201 171.934 36.0375 171.802C36.0548 171.67 36.0978 171.543 36.164 171.428C36.2302 171.313 36.3183 171.212 36.4233 171.131C36.5283 171.05 36.6481 170.991 36.7759 170.957L39.9295 170.108L37.3841 168.633C37.2695 168.566 37.169 168.478 37.0885 168.372C37.0079 168.267 36.9488 168.146 36.9145 168.018C36.8802 167.89 36.8714 167.756 36.8886 167.624C36.9059 167.492 36.9488 167.365 37.0149 167.25C37.081 167.135 37.169 167.034 37.274 166.953C37.3789 166.872 37.4987 166.813 37.6265 166.778C37.8845 166.709 38.1595 166.745 38.391 166.879L40.935 168.357L40.0892 165.189C40.0201 164.93 40.0565 164.653 40.1901 164.421C40.3238 164.188 40.544 164.019 40.8021 163.949C41.0602 163.88 41.3352 163.916 41.5666 164.051C41.798 164.185 41.9668 164.406 42.0359 164.666L43.4012 169.789L48.5067 172.747V166.825L44.7746 163.075C44.5967 162.884 44.4999 162.63 44.5045 162.368C44.5091 162.106 44.6148 161.856 44.7992 161.67C44.9837 161.485 45.2326 161.379 45.4935 161.374C45.7543 161.37 46.0068 161.467 46.1976 161.646L48.5067 163.966V161.012C48.5067 160.743 48.6128 160.486 48.8017 160.296C48.9905 160.107 49.2466 160 49.5136 160Z" fill="#30373E"/>
</svg>
