<svg width="175" height="195" viewBox="0 0 175 195" fill="none" xmlns="http://www.w3.org/2000/svg">
<path d="M51.4251 24.3438C45.2743 24.3411 39.3057 26.4323 34.5016 30.2734C29.6976 34.1145 26.3442 39.4765 24.9933 45.4772C23.6424 51.4779 24.3745 57.7597 27.0691 63.2889C29.7637 68.8181 34.2602 73.2653 39.8189 75.8987M51.4251 24.3438C57.1818 24.3438 62.5129 26.1389 66.9001 29.1952M51.4251 24.3438C45.6684 24.3438 40.3373 26.1389 35.9501 29.1952M51.4251 24.3438C58.8067 24.3438 65.4919 27.2917 70.382 32.0813M51.4251 24.3438C44.0435 24.3438 37.3583 27.2917 32.4682 32.0813M51.4251 24.3438C61.2749 24.3438 69.9023 29.6053 74.6376 37.4666" stroke="#30373E" stroke-width="10"/>
<path d="M47.5562 5V8.86875M8.86875 47.5562H5M77.6474 17.4651L75.9761 19.1364M19.1364 75.9761L17.4651 77.6474M19.1364 19.1364L17.4651 17.4651" stroke="#30373E" stroke-width="10" stroke-linecap="round"/>
<path fill-rule="evenodd" clip-rule="evenodd" d="M116.518 157C116.864 157 117.196 157.14 117.441 157.388C117.685 157.637 117.823 157.974 117.823 158.326V162.196L120.816 159.156C121.064 158.922 121.391 158.795 121.729 158.801C122.067 158.807 122.39 158.946 122.629 159.189C122.868 159.432 123.005 159.759 123.011 160.103C123.017 160.446 122.891 160.778 122.661 161.03L117.823 165.943V173.704L124.439 169.825L126.211 163.112C126.255 162.944 126.332 162.786 126.436 162.648C126.541 162.51 126.671 162.394 126.819 162.307C126.968 162.22 127.131 162.163 127.301 162.14C127.471 162.118 127.644 162.129 127.81 162.174C127.975 162.219 128.13 162.297 128.266 162.403C128.402 162.509 128.516 162.641 128.602 162.792C128.688 162.942 128.744 163.109 128.766 163.281C128.788 163.454 128.777 163.629 128.733 163.798L127.636 167.951L130.936 166.016C131.236 165.843 131.59 165.797 131.923 165.889C132.256 165.981 132.539 166.202 132.711 166.505C132.884 166.808 132.931 167.168 132.843 167.507C132.755 167.845 132.539 168.135 132.241 168.312L128.943 170.245L133.033 171.359C133.367 171.45 133.652 171.672 133.825 171.977C133.998 172.281 134.045 172.643 133.955 172.983C133.866 173.323 133.647 173.612 133.347 173.788C133.047 173.963 132.69 174.011 132.356 173.92L125.746 172.12L119.128 176L125.745 179.88L132.354 178.08C132.689 177.989 133.045 178.037 133.345 178.213C133.645 178.389 133.864 178.679 133.954 179.019C134.043 179.359 133.996 179.721 133.823 180.025C133.649 180.33 133.364 180.552 133.03 180.643L128.942 181.755L132.241 183.69C132.391 183.777 132.522 183.892 132.628 184.03C132.733 184.168 132.811 184.326 132.856 184.495C132.901 184.664 132.913 184.84 132.89 185.013C132.868 185.187 132.812 185.354 132.726 185.505C132.64 185.657 132.526 185.789 132.389 185.895C132.252 186.002 132.096 186.079 131.93 186.124C131.763 186.169 131.59 186.18 131.419 186.156C131.249 186.132 131.084 186.074 130.936 185.986L127.636 184.051L128.733 188.202C128.777 188.371 128.788 188.546 128.766 188.719C128.744 188.891 128.688 189.058 128.602 189.208C128.516 189.359 128.402 189.491 128.266 189.597C128.13 189.703 127.975 189.781 127.81 189.826C127.644 189.871 127.471 189.882 127.301 189.86C127.131 189.837 126.968 189.78 126.819 189.693C126.671 189.606 126.541 189.49 126.436 189.352C126.332 189.214 126.255 189.056 126.211 188.888L124.439 182.175L117.823 178.298V186.057L122.661 190.97C122.786 191.092 122.885 191.239 122.954 191.4C123.022 191.562 123.058 191.736 123.06 191.912C123.061 192.088 123.028 192.263 122.963 192.426C122.897 192.588 122.8 192.737 122.678 192.861C122.555 192.986 122.41 193.084 122.249 193.151C122.089 193.217 121.917 193.251 121.744 193.25C121.571 193.248 121.399 193.212 121.24 193.142C121.081 193.073 120.937 192.972 120.816 192.845L117.823 189.805V193.674C117.823 194.026 117.685 194.363 117.441 194.612C117.196 194.86 116.864 195 116.518 195C116.172 195 115.84 194.86 115.595 194.612C115.35 194.363 115.212 194.026 115.212 193.674V189.804L112.219 192.844C111.972 193.078 111.644 193.205 111.306 193.199C110.968 193.193 110.646 193.054 110.406 192.811C110.167 192.568 110.03 192.241 110.024 191.897C110.018 191.554 110.144 191.222 110.374 190.97L115.212 186.057V178.296L108.596 182.175L106.824 188.888C106.78 189.056 106.703 189.214 106.599 189.352C106.495 189.49 106.365 189.606 106.216 189.693C106.068 189.78 105.904 189.837 105.734 189.86C105.564 189.882 105.391 189.871 105.226 189.826C105.06 189.781 104.905 189.703 104.769 189.597C104.633 189.491 104.519 189.359 104.433 189.208C104.347 189.058 104.292 188.891 104.269 188.719C104.247 188.546 104.258 188.371 104.303 188.202L105.399 184.049L102.099 185.986C101.799 186.162 101.443 186.209 101.108 186.118C100.774 186.027 100.489 185.805 100.316 185.5C100.143 185.195 100.096 184.833 100.185 184.494C100.275 184.154 100.494 183.864 100.794 183.688L104.094 181.755L100.004 180.641C99.8341 180.6 99.674 180.525 99.5332 180.42C99.3923 180.315 99.2737 180.183 99.1842 180.03C99.0948 179.878 99.0363 179.709 99.0123 179.533C98.9884 179.358 98.9994 179.179 99.0447 179.008C99.09 178.836 99.1687 178.676 99.2762 178.536C99.3836 178.396 99.5176 178.28 99.6702 178.193C99.8228 178.107 99.9909 178.053 100.164 178.034C100.338 178.015 100.514 178.031 100.681 178.082L107.291 179.88L113.907 176L107.291 172.12L100.681 173.92C100.515 173.965 100.343 173.976 100.173 173.953C100.002 173.931 99.8385 173.874 99.69 173.787C99.5415 173.7 99.4113 173.584 99.307 173.445C99.2026 173.307 99.1261 173.149 99.0817 172.981C99.0374 172.813 99.0261 172.637 99.0486 172.465C99.071 172.292 99.1267 172.126 99.2125 171.975C99.2983 171.824 99.4126 171.692 99.5487 171.586C99.6848 171.48 99.8401 171.402 100.006 171.357L104.094 170.245L100.794 168.312C100.646 168.225 100.515 168.109 100.411 167.971C100.307 167.832 100.23 167.675 100.185 167.506C100.141 167.338 100.13 167.163 100.152 166.99C100.174 166.817 100.23 166.651 100.316 166.5C100.401 166.349 100.515 166.217 100.651 166.111C100.787 166.005 100.943 165.927 101.108 165.882C101.443 165.791 101.799 165.838 102.099 166.014L105.397 167.951L104.301 163.799C104.211 163.46 104.258 163.097 104.432 162.793C104.605 162.488 104.89 162.266 105.225 162.175C105.56 162.084 105.916 162.132 106.216 162.308C106.516 162.484 106.735 162.774 106.824 163.114L108.594 169.826L115.212 173.702V165.943L110.374 161.03C110.144 160.778 110.018 160.446 110.024 160.103C110.03 159.759 110.167 159.432 110.406 159.189C110.646 158.946 110.968 158.807 111.306 158.801C111.644 158.795 111.972 158.922 112.219 159.156L115.212 162.196V158.326C115.212 157.974 115.35 157.637 115.595 157.388C115.84 157.14 116.172 157 116.518 157Z" fill="#30373E"/>
<path fill-rule="evenodd" clip-rule="evenodd" d="M70.5177 157C70.8638 157 71.1958 157.14 71.4406 157.388C71.6854 157.637 71.8229 157.974 71.8229 158.326V162.196L74.8162 159.156C75.0636 158.922 75.3909 158.795 75.729 158.801C76.0671 158.807 76.3898 158.946 76.6289 159.189C76.868 159.432 77.005 159.759 77.011 160.103C77.017 160.446 76.8914 160.778 76.6609 161.03L71.8229 165.943V173.704L78.4395 169.825L80.2111 163.112C80.2554 162.944 80.3319 162.786 80.4362 162.648C80.5406 162.51 80.6707 162.394 80.8191 162.307C80.9675 162.22 81.1314 162.163 81.3013 162.14C81.4713 162.118 81.6439 162.129 81.8095 162.174C81.9751 162.219 82.1303 162.297 82.2663 162.403C82.4023 162.509 82.5165 162.641 82.6022 162.792C82.6879 162.942 82.7436 163.109 82.766 163.281C82.7884 163.454 82.7771 163.629 82.7327 163.798L81.6364 167.951L84.936 166.016C85.2356 165.843 85.5904 165.797 85.923 165.889C86.2557 165.981 86.5391 166.202 86.7114 166.505C86.8837 166.808 86.931 167.168 86.8429 167.507C86.7548 167.845 86.5385 168.135 86.2412 168.312L82.9433 170.245L87.033 171.359C87.3674 171.45 87.6524 171.672 87.8254 171.977C87.9984 172.281 88.0451 172.643 87.9554 172.983C87.8656 173.323 87.6466 173.612 87.3467 173.788C87.0468 173.963 86.6904 174.011 86.356 173.92L79.7464 172.12L73.1281 176L79.7447 179.88L86.3543 178.08C86.6889 177.989 87.0454 178.037 87.3453 178.213C87.6453 178.389 87.8641 178.679 87.9536 179.019C88.0432 179.359 87.9961 179.721 87.8228 180.025C87.6495 180.33 87.3641 180.552 87.0295 180.643L82.9416 181.755L86.2412 183.69C86.3908 183.777 86.5221 183.892 86.6276 184.03C86.7331 184.168 86.8106 184.326 86.8557 184.495C86.9008 184.664 86.9126 184.84 86.8904 185.013C86.8682 185.187 86.8125 185.354 86.7264 185.505C86.6403 185.657 86.5256 185.789 86.3889 185.895C86.2522 186.002 86.0961 186.079 85.9297 186.124C85.7633 186.169 85.5898 186.18 85.4192 186.156C85.2487 186.132 85.0844 186.074 84.936 185.986L81.6364 184.051L82.7327 188.202C82.7771 188.371 82.7884 188.546 82.766 188.719C82.7436 188.891 82.6879 189.058 82.6022 189.208C82.5165 189.359 82.4023 189.491 82.2663 189.597C82.1303 189.703 81.9751 189.781 81.8095 189.826C81.6439 189.871 81.4713 189.882 81.3013 189.86C81.1314 189.837 80.9675 189.78 80.8191 189.693C80.6707 189.606 80.5406 189.49 80.4362 189.352C80.3319 189.214 80.2554 189.056 80.2111 188.888L78.4395 182.175L71.8229 178.298V186.057L76.6609 190.97C76.7856 191.092 76.8851 191.239 76.9536 191.4C77.0221 191.562 77.0581 191.736 77.0597 191.912C77.0613 192.088 77.0284 192.263 76.9628 192.426C76.8973 192.588 76.8004 192.737 76.6779 192.861C76.5554 192.986 76.4098 193.084 76.2494 193.151C76.089 193.217 75.9172 193.251 75.7438 193.25C75.5705 193.248 75.3993 193.212 75.24 193.142C75.0807 193.073 74.9366 192.972 74.8162 192.845L71.8229 189.805V193.674C71.8229 194.026 71.6854 194.363 71.4406 194.612C71.1958 194.86 70.8638 195 70.5177 195C70.1715 195 69.8395 194.86 69.5947 194.612C69.35 194.363 69.2125 194.026 69.2125 193.674V189.804L66.2192 192.844C65.9717 193.078 65.6445 193.205 65.3063 193.199C64.9682 193.193 64.6456 193.054 64.4064 192.811C64.1673 192.568 64.0303 192.241 64.0243 191.897C64.0184 191.554 64.1439 191.222 64.3745 190.97L69.2125 186.057V178.296L62.5959 182.175L60.8243 188.888C60.7799 189.056 60.7034 189.214 60.5991 189.352C60.4948 189.49 60.3647 189.606 60.2162 189.693C60.0678 189.78 59.9039 189.837 59.734 189.86C59.5641 189.882 59.3914 189.871 59.2258 189.826C59.0602 189.781 58.905 189.703 58.769 189.597C58.633 189.491 58.5189 189.359 58.4331 189.208C58.3474 189.058 58.2918 188.891 58.2694 188.719C58.247 188.546 58.2583 188.371 58.3026 188.202L59.399 184.049L56.0994 185.986C55.7994 186.162 55.4429 186.209 55.1084 186.118C54.7738 186.027 54.4887 185.805 54.3156 185.5C54.1425 185.195 54.0957 184.833 54.1854 184.494C54.2752 184.154 54.4942 183.864 54.7942 183.688L58.0938 181.755L54.0041 180.641C53.8341 180.6 53.674 180.525 53.5332 180.42C53.3923 180.315 53.2737 180.183 53.1842 180.03C53.0948 179.878 53.0363 179.709 53.0123 179.533C52.9884 179.358 52.9994 179.179 53.0447 179.008C53.09 178.836 53.1687 178.676 53.2762 178.536C53.3836 178.396 53.5176 178.28 53.6702 178.193C53.8228 178.107 53.9909 178.053 54.1645 178.034C54.3381 178.015 54.5138 178.031 54.681 178.082L61.2907 179.88L67.9072 176L61.2907 172.12L54.681 173.92C54.5154 173.965 54.3426 173.976 54.1725 173.953C54.0025 173.931 53.8385 173.874 53.69 173.787C53.5415 173.7 53.4113 173.584 53.307 173.445C53.2026 173.307 53.1261 173.149 53.0817 172.981C53.0374 172.813 53.0261 172.637 53.0486 172.465C53.071 172.292 53.1267 172.126 53.2125 171.975C53.2983 171.824 53.4126 171.692 53.5487 171.586C53.6848 171.48 53.8401 171.402 54.0058 171.357L58.0938 170.245L54.7942 168.312C54.6456 168.225 54.5154 168.109 54.411 167.971C54.3065 167.832 54.2299 167.675 54.1854 167.506C54.141 167.338 54.1296 167.163 54.152 166.99C54.1743 166.817 54.2299 166.651 54.3156 166.5C54.4013 166.349 54.5154 166.217 54.6514 166.111C54.7875 166.005 54.9427 165.927 55.1084 165.882C55.4429 165.791 55.7994 165.838 56.0994 166.014L59.3972 167.951L58.3008 163.799C58.2113 163.46 58.2584 163.097 58.4317 162.793C58.605 162.488 58.8903 162.266 59.2249 162.175C59.5596 162.084 59.9161 162.132 60.216 162.308C60.5159 162.484 60.7347 162.774 60.8243 163.114L62.5941 169.826L69.2125 173.702V165.943L64.3745 161.03C64.1439 160.778 64.0184 160.446 64.0243 160.103C64.0303 159.759 64.1673 159.432 64.4064 159.189C64.6456 158.946 64.9682 158.807 65.3063 158.801C65.6445 158.795 65.9717 158.922 66.2192 159.156L69.2125 162.196V158.326C69.2125 157.974 69.35 157.637 69.5947 157.388C69.8395 157.14 70.1715 157 70.5177 157Z" fill="#30373E"/>
<path d="M114.762 56.4458C119.202 54.8987 123.872 54.1119 128.573 54.1185C133.315 54.1185 137.875 54.9088 142.131 56.3588M142.131 56.3588C158.357 61.905 170 77.1373 170 95.0593C170 117.672 151.454 136 128.573 136H56.0735C38.9127 136 25 122.254 25 105.296C25 88.3385 38.9127 74.5925 56.0735 74.5853C58.0933 74.5855 60.1084 74.7797 62.091 75.1653M142.131 56.3588C139.818 35.9065 122.266 20 100.951 20C78.07 20 59.5245 38.328 59.5245 60.9408C59.5185 65.7979 60.3879 70.6164 62.091 75.1653M62.091 75.1653C66.1024 75.9443 69.921 77.5062 73.3285 79.7618" stroke="#30373E" stroke-width="10" stroke-linecap="round"/>
</svg>
