<svg width="175" height="189" viewBox="0 0 175 189" fill="none" xmlns="http://www.w3.org/2000/svg">
<path d="M51.4251 24.3438C45.2743 24.3411 39.3057 26.4323 34.5016 30.2734C29.6976 34.1145 26.3442 39.4765 24.9933 45.4772C23.6424 51.4779 24.3745 57.7597 27.0691 63.2889C29.7637 68.8181 34.2602 73.2653 39.8189 75.8987M51.4251 24.3438C57.1818 24.3438 62.5129 26.1389 66.9001 29.1952M51.4251 24.3438C45.6684 24.3438 40.3373 26.1389 35.9501 29.1952M51.4251 24.3438C58.8067 24.3438 65.4919 27.2917 70.382 32.0813M51.4251 24.3438C44.0435 24.3438 37.3583 27.2917 32.4682 32.0813M51.4251 24.3438C61.2749 24.3438 69.9023 29.6053 74.6376 37.4666" stroke="#30373E" stroke-width="10"/>
<path d="M47.5562 5V8.86875M8.86875 47.5562H5M77.6474 17.4651L75.9761 19.1364M19.1364 75.9761L17.4651 77.6474M19.1364 19.1364L17.4651 17.4651" stroke="#30373E" stroke-width="10" stroke-linecap="round"/>
<path fill-rule="evenodd" clip-rule="evenodd" d="M97.5177 151C97.8638 151 98.1958 151.14 98.4406 151.388C98.6854 151.637 98.8229 151.974 98.8229 152.326V156.196L101.816 153.156C102.064 152.922 102.391 152.795 102.729 152.801C103.067 152.807 103.39 152.946 103.629 153.189C103.868 153.432 104.005 153.759 104.011 154.103C104.017 154.446 103.891 154.778 103.661 155.03L98.8229 159.943V167.704L105.439 163.825L107.211 157.112C107.255 156.944 107.332 156.786 107.436 156.648C107.541 156.51 107.671 156.394 107.819 156.307C107.968 156.22 108.131 156.163 108.301 156.14C108.471 156.118 108.644 156.129 108.81 156.174C108.975 156.219 109.13 156.297 109.266 156.403C109.402 156.509 109.516 156.641 109.602 156.792C109.688 156.942 109.744 157.109 109.766 157.281C109.788 157.454 109.777 157.629 109.733 157.798L108.636 161.951L111.936 160.016C112.236 159.843 112.59 159.797 112.923 159.889C113.256 159.981 113.539 160.202 113.711 160.505C113.884 160.808 113.931 161.168 113.843 161.507C113.755 161.845 113.539 162.135 113.241 162.312L109.943 164.245L114.033 165.359C114.367 165.45 114.652 165.672 114.825 165.977C114.998 166.281 115.045 166.643 114.955 166.983C114.866 167.323 114.647 167.612 114.347 167.788C114.047 167.963 113.69 168.011 113.356 167.92L106.746 166.12L100.128 170L106.745 173.88L113.354 172.08C113.689 171.989 114.045 172.037 114.345 172.213C114.645 172.389 114.864 172.679 114.954 173.019C115.043 173.359 114.996 173.721 114.823 174.025C114.649 174.33 114.364 174.552 114.03 174.643L109.942 175.755L113.241 177.69C113.391 177.777 113.522 177.892 113.628 178.03C113.733 178.168 113.811 178.326 113.856 178.495C113.901 178.664 113.913 178.84 113.89 179.013C113.868 179.187 113.812 179.354 113.726 179.505C113.64 179.657 113.526 179.789 113.389 179.895C113.252 180.002 113.096 180.079 112.93 180.124C112.763 180.169 112.59 180.18 112.419 180.156C112.249 180.132 112.084 180.074 111.936 179.986L108.636 178.051L109.733 182.202C109.777 182.371 109.788 182.546 109.766 182.719C109.744 182.891 109.688 183.058 109.602 183.208C109.516 183.359 109.402 183.491 109.266 183.597C109.13 183.703 108.975 183.781 108.81 183.826C108.644 183.871 108.471 183.882 108.301 183.86C108.131 183.837 107.968 183.78 107.819 183.693C107.671 183.606 107.541 183.49 107.436 183.352C107.332 183.214 107.255 183.056 107.211 182.888L105.439 176.175L98.8229 172.298V180.057L103.661 184.97C103.786 185.092 103.885 185.239 103.954 185.4C104.022 185.562 104.058 185.736 104.06 185.912C104.061 186.088 104.028 186.263 103.963 186.426C103.897 186.588 103.8 186.737 103.678 186.861C103.555 186.986 103.41 187.084 103.249 187.151C103.089 187.217 102.917 187.251 102.744 187.25C102.571 187.248 102.399 187.212 102.24 187.142C102.081 187.073 101.937 186.972 101.816 186.845L98.8229 183.805V187.674C98.8229 188.026 98.6854 188.363 98.4406 188.612C98.1958 188.86 97.8638 189 97.5177 189C97.1715 189 96.8395 188.86 96.5947 188.612C96.35 188.363 96.2125 188.026 96.2125 187.674V183.804L93.2192 186.844C92.9717 187.078 92.6445 187.205 92.3063 187.199C91.9682 187.193 91.6456 187.054 91.4064 186.811C91.1673 186.568 91.0303 186.241 91.0243 185.897C91.0184 185.554 91.1439 185.222 91.3745 184.97L96.2125 180.057V172.296L89.5959 176.175L87.8243 182.888C87.7799 183.056 87.7034 183.214 87.5991 183.352C87.4948 183.49 87.3647 183.606 87.2162 183.693C87.0678 183.78 86.9039 183.837 86.734 183.86C86.5641 183.882 86.3914 183.871 86.2258 183.826C86.0602 183.781 85.905 183.703 85.769 183.597C85.633 183.491 85.5189 183.359 85.4331 183.208C85.3474 183.058 85.2918 182.891 85.2694 182.719C85.247 182.546 85.2583 182.371 85.3026 182.202L86.399 178.049L83.0994 179.986C82.7994 180.162 82.4429 180.209 82.1084 180.118C81.7738 180.027 81.4887 179.805 81.3156 179.5C81.1425 179.195 81.0957 178.833 81.1854 178.494C81.2752 178.154 81.4942 177.864 81.7942 177.688L85.0938 175.755L81.0041 174.641C80.8341 174.6 80.674 174.525 80.5332 174.42C80.3923 174.315 80.2737 174.183 80.1842 174.03C80.0948 173.878 80.0363 173.709 80.0123 173.533C79.9884 173.358 79.9994 173.179 80.0447 173.008C80.09 172.836 80.1687 172.676 80.2762 172.536C80.3836 172.396 80.5176 172.28 80.6702 172.193C80.8228 172.107 80.9909 172.053 81.1645 172.034C81.3381 172.015 81.5138 172.031 81.681 172.082L88.2907 173.88L94.9072 170L88.2907 166.12L81.681 167.92C81.5154 167.965 81.3426 167.976 81.1725 167.953C81.0025 167.931 80.8385 167.874 80.69 167.787C80.5415 167.7 80.4113 167.584 80.307 167.445C80.2026 167.307 80.1261 167.149 80.0817 166.981C80.0374 166.813 80.0261 166.637 80.0486 166.465C80.071 166.292 80.1267 166.126 80.2125 165.975C80.2983 165.824 80.4126 165.692 80.5487 165.586C80.6848 165.48 80.8401 165.402 81.0058 165.357L85.0938 164.245L81.7942 162.312C81.6456 162.225 81.5154 162.109 81.411 161.971C81.3065 161.832 81.2299 161.675 81.1854 161.506C81.141 161.338 81.1296 161.163 81.152 160.99C81.1743 160.817 81.2299 160.651 81.3156 160.5C81.4013 160.349 81.5154 160.217 81.6514 160.111C81.7875 160.005 81.9427 159.927 82.1084 159.882C82.4429 159.791 82.7994 159.838 83.0994 160.014L86.3972 161.951L85.3008 157.799C85.2113 157.46 85.2584 157.097 85.4317 156.793C85.605 156.488 85.8903 156.266 86.2249 156.175C86.5596 156.084 86.9161 156.132 87.216 156.308C87.5159 156.484 87.7347 156.774 87.8243 157.114L89.5941 163.826L96.2125 167.702V159.943L91.3745 155.03C91.1439 154.778 91.0184 154.446 91.0243 154.103C91.0303 153.759 91.1673 153.432 91.4064 153.189C91.6456 152.946 91.9682 152.807 92.3063 152.801C92.6445 152.795 92.9717 152.922 93.2192 153.156L96.2125 156.196V152.326C96.2125 151.974 96.35 151.637 96.5947 151.388C96.8395 151.14 97.1715 151 97.5177 151Z" fill="#30373E"/>
<path d="M114.762 56.4458C119.202 54.8987 123.872 54.1119 128.573 54.1185C133.315 54.1185 137.875 54.9088 142.131 56.3588M142.131 56.3588C158.357 61.905 170 77.1373 170 95.0593C170 117.672 151.454 136 128.573 136H56.0735C38.9127 136 25 122.254 25 105.296C25 88.3385 38.9127 74.5925 56.0735 74.5853C58.0933 74.5855 60.1084 74.7797 62.091 75.1653M142.131 56.3588C139.818 35.9065 122.266 20 100.951 20C78.07 20 59.5245 38.328 59.5245 60.9408C59.5185 65.7979 60.3879 70.6164 62.091 75.1653M62.091 75.1653C66.1024 75.9443 69.921 77.5062 73.3285 79.7618" stroke="#30373E" stroke-width="10" stroke-linecap="round"/>
</svg>
