<svg width="175" height="198" viewBox="0 0 175 198" fill="none" xmlns="http://www.w3.org/2000/svg">
<path d="M51.4251 24.3438C45.2743 24.3411 39.3057 26.4323 34.5016 30.2734C29.6976 34.1145 26.3442 39.4765 24.9933 45.4772C23.6424 51.4779 24.3745 57.7597 27.0691 63.2889C29.7637 68.8181 34.2602 73.2653 39.8189 75.8987M51.4251 24.3438C57.1818 24.3438 62.5129 26.1389 66.9001 29.1952M51.4251 24.3438C45.6684 24.3438 40.3373 26.1389 35.9501 29.1952M51.4251 24.3438C58.8067 24.3438 65.4919 27.2917 70.382 32.0813M51.4251 24.3438C44.0435 24.3438 37.3583 27.2917 32.4682 32.0813M51.4251 24.3438C61.2749 24.3438 69.9023 29.6053 74.6376 37.4666" stroke="#30373E" stroke-width="10"/>
<path d="M47.5562 5V8.86875M8.86875 47.5562H5M77.6474 17.4651L75.9761 19.1364M19.1364 75.9761L17.4651 77.6474M19.1364 19.1364L17.4651 17.4651" stroke="#30373E" stroke-width="10" stroke-linecap="round"/>
<path fill-rule="evenodd" clip-rule="evenodd" d="M120.518 157C120.864 157 121.196 157.14 121.441 157.388C121.685 157.637 121.823 157.974 121.823 158.326V162.196L124.816 159.156C125.064 158.922 125.391 158.795 125.729 158.801C126.067 158.807 126.39 158.946 126.629 159.189C126.868 159.432 127.005 159.759 127.011 160.103C127.017 160.446 126.891 160.778 126.661 161.03L121.823 165.943V173.704L128.439 169.825L130.211 163.112C130.255 162.944 130.332 162.786 130.436 162.648C130.541 162.51 130.671 162.394 130.819 162.307C130.968 162.22 131.131 162.163 131.301 162.14C131.471 162.118 131.644 162.129 131.81 162.174C131.975 162.219 132.13 162.297 132.266 162.403C132.402 162.509 132.516 162.641 132.602 162.792C132.688 162.942 132.744 163.109 132.766 163.281C132.788 163.454 132.777 163.629 132.733 163.798L131.636 167.951L134.936 166.016C135.236 165.843 135.59 165.797 135.923 165.889C136.256 165.981 136.539 166.202 136.711 166.505C136.884 166.808 136.931 167.168 136.843 167.507C136.755 167.845 136.539 168.135 136.241 168.312L132.943 170.245L137.033 171.359C137.367 171.45 137.652 171.672 137.825 171.977C137.998 172.281 138.045 172.643 137.955 172.983C137.866 173.323 137.647 173.612 137.347 173.788C137.047 173.963 136.69 174.011 136.356 173.92L129.746 172.12L123.128 176L129.745 179.88L136.354 178.08C136.689 177.989 137.045 178.037 137.345 178.213C137.645 178.389 137.864 178.679 137.954 179.019C138.043 179.359 137.996 179.721 137.823 180.025C137.649 180.33 137.364 180.552 137.03 180.643L132.942 181.755L136.241 183.69C136.391 183.777 136.522 183.892 136.628 184.03C136.733 184.168 136.811 184.326 136.856 184.495C136.901 184.664 136.913 184.84 136.89 185.013C136.868 185.187 136.812 185.354 136.726 185.505C136.64 185.657 136.526 185.789 136.389 185.895C136.252 186.002 136.096 186.079 135.93 186.124C135.763 186.169 135.59 186.18 135.419 186.156C135.249 186.132 135.084 186.074 134.936 185.986L131.636 184.051L132.733 188.202C132.777 188.371 132.788 188.546 132.766 188.719C132.744 188.891 132.688 189.058 132.602 189.208C132.516 189.359 132.402 189.491 132.266 189.597C132.13 189.703 131.975 189.781 131.81 189.826C131.644 189.871 131.471 189.882 131.301 189.86C131.131 189.837 130.968 189.78 130.819 189.693C130.671 189.606 130.541 189.49 130.436 189.352C130.332 189.214 130.255 189.056 130.211 188.888L128.439 182.175L121.823 178.298V186.057L126.661 190.97C126.786 191.092 126.885 191.239 126.954 191.4C127.022 191.562 127.058 191.736 127.06 191.912C127.061 192.088 127.028 192.263 126.963 192.426C126.897 192.588 126.8 192.737 126.678 192.861C126.555 192.986 126.41 193.084 126.249 193.151C126.089 193.217 125.917 193.251 125.744 193.25C125.571 193.248 125.399 193.212 125.24 193.142C125.081 193.073 124.937 192.972 124.816 192.845L121.823 189.805V193.674C121.823 194.026 121.685 194.363 121.441 194.612C121.196 194.86 120.864 195 120.518 195C120.172 195 119.84 194.86 119.595 194.612C119.35 194.363 119.212 194.026 119.212 193.674V189.804L116.219 192.844C115.972 193.078 115.644 193.205 115.306 193.199C114.968 193.193 114.646 193.054 114.406 192.811C114.167 192.568 114.03 192.241 114.024 191.897C114.018 191.554 114.144 191.222 114.374 190.97L119.212 186.057V178.296L112.596 182.175L110.824 188.888C110.78 189.056 110.703 189.214 110.599 189.352C110.495 189.49 110.365 189.606 110.216 189.693C110.068 189.78 109.904 189.837 109.734 189.86C109.564 189.882 109.391 189.871 109.226 189.826C109.06 189.781 108.905 189.703 108.769 189.597C108.633 189.491 108.519 189.359 108.433 189.208C108.347 189.058 108.292 188.891 108.269 188.719C108.247 188.546 108.258 188.371 108.303 188.202L109.399 184.049L106.099 185.986C105.799 186.162 105.443 186.209 105.108 186.118C104.774 186.027 104.489 185.805 104.316 185.5C104.143 185.195 104.096 184.833 104.185 184.494C104.275 184.154 104.494 183.864 104.794 183.688L108.094 181.755L104.004 180.641C103.834 180.6 103.674 180.525 103.533 180.42C103.392 180.315 103.274 180.183 103.184 180.03C103.095 179.878 103.036 179.709 103.012 179.533C102.988 179.358 102.999 179.179 103.045 179.008C103.09 178.836 103.169 178.676 103.276 178.536C103.384 178.396 103.518 178.28 103.67 178.193C103.823 178.107 103.991 178.053 104.164 178.034C104.338 178.015 104.514 178.031 104.681 178.082L111.291 179.88L117.907 176L111.291 172.12L104.681 173.92C104.515 173.965 104.343 173.976 104.173 173.953C104.002 173.931 103.839 173.874 103.69 173.787C103.541 173.7 103.411 173.584 103.307 173.445C103.203 173.307 103.126 173.149 103.082 172.981C103.037 172.813 103.026 172.637 103.049 172.465C103.071 172.292 103.127 172.126 103.213 171.975C103.298 171.824 103.413 171.692 103.549 171.586C103.685 171.48 103.84 171.402 104.006 171.357L108.094 170.245L104.794 168.312C104.646 168.225 104.515 168.109 104.411 167.971C104.307 167.832 104.23 167.675 104.185 167.506C104.141 167.338 104.13 167.163 104.152 166.99C104.174 166.817 104.23 166.651 104.316 166.5C104.401 166.349 104.515 166.217 104.651 166.111C104.787 166.005 104.943 165.927 105.108 165.882C105.443 165.791 105.799 165.838 106.099 166.014L109.397 167.951L108.301 163.799C108.211 163.46 108.258 163.097 108.432 162.793C108.605 162.488 108.89 162.266 109.225 162.175C109.56 162.084 109.916 162.132 110.216 162.308C110.516 162.484 110.735 162.774 110.824 163.114L112.594 169.826L119.212 173.702V165.943L114.374 161.03C114.144 160.778 114.018 160.446 114.024 160.103C114.03 159.759 114.167 159.432 114.406 159.189C114.646 158.946 114.968 158.807 115.306 158.801C115.644 158.795 115.972 158.922 116.219 159.156L119.212 162.196V158.326C119.212 157.974 119.35 157.637 119.595 157.388C119.84 157.14 120.172 157 120.518 157Z" fill="#30373E"/>
<path d="M114.762 56.4458C119.202 54.8987 123.872 54.1119 128.573 54.1185C133.315 54.1185 137.875 54.9088 142.131 56.3588M142.131 56.3588C158.357 61.905 170 77.1373 170 95.0593C170 117.672 151.454 136 128.573 136H56.0735C38.9127 136 25 122.254 25 105.296C25 88.3385 38.9127 74.5925 56.0735 74.5853C58.0933 74.5855 60.1084 74.7797 62.091 75.1653M142.131 56.3588C139.818 35.9065 122.266 20 100.951 20C78.07 20 59.5245 38.328 59.5245 60.9408C59.5185 65.7979 60.3879 70.6164 62.091 75.1653M62.091 75.1653C66.1024 75.9443 69.921 77.5062 73.3285 79.7618" stroke="#30373E" stroke-width="10" stroke-linecap="round"/>
<path d="M62 157L46 196" stroke="#30373E" stroke-width="10"/>
<path d="M87 153L71 192" stroke="#30373E" stroke-width="10"/>
</svg>
