<svg width="175" height="195" viewBox="0 0 175 195" fill="none" xmlns="http://www.w3.org/2000/svg">
<path d="M51.4251 24.3438C45.2743 24.3411 39.3057 26.4323 34.5016 30.2734C29.6976 34.1145 26.3442 39.4765 24.9933 45.4772C23.6424 51.4779 24.3745 57.7597 27.0691 63.2889C29.7637 68.8181 34.2602 73.2653 39.8189 75.8987M51.4251 24.3438C57.1818 24.3438 62.5129 26.1389 66.9001 29.1952M51.4251 24.3438C45.6684 24.3438 40.3373 26.1389 35.9501 29.1952M51.4251 24.3438C58.8067 24.3438 65.4919 27.2917 70.382 32.0813M51.4251 24.3438C44.0435 24.3438 37.3583 27.2917 32.4682 32.0813M51.4251 24.3438C61.2749 24.3438 69.9023 29.6053 74.6376 37.4666" stroke="#30373E" stroke-width="10"/>
<path d="M47.5562 5V8.86875M8.86875 47.5562H5M77.6474 17.4651L75.9761 19.1364M19.1364 75.9761L17.4651 77.6474M19.1364 19.1364L17.4651 17.4651" stroke="#30373E" stroke-width="10" stroke-linecap="round"/>
<path fill-rule="evenodd" clip-rule="evenodd" d="M95.5177 157C95.8638 157 96.1958 157.14 96.4406 157.388C96.6854 157.637 96.8229 157.974 96.8229 158.326V162.196L99.8162 159.156C100.064 158.922 100.391 158.795 100.729 158.801C101.067 158.807 101.39 158.946 101.629 159.189C101.868 159.432 102.005 159.759 102.011 160.103C102.017 160.446 101.891 160.778 101.661 161.03L96.8229 165.943V173.704L103.439 169.825L105.211 163.112C105.255 162.944 105.332 162.786 105.436 162.648C105.541 162.51 105.671 162.394 105.819 162.307C105.968 162.22 106.131 162.163 106.301 162.14C106.471 162.118 106.644 162.129 106.81 162.174C106.975 162.219 107.13 162.297 107.266 162.403C107.402 162.509 107.516 162.641 107.602 162.792C107.688 162.942 107.744 163.109 107.766 163.281C107.788 163.454 107.777 163.629 107.733 163.798L106.636 167.951L109.936 166.016C110.236 165.843 110.59 165.797 110.923 165.889C111.256 165.981 111.539 166.202 111.711 166.505C111.884 166.808 111.931 167.168 111.843 167.507C111.755 167.845 111.539 168.135 111.241 168.312L107.943 170.245L112.033 171.359C112.367 171.45 112.652 171.672 112.825 171.977C112.998 172.281 113.045 172.643 112.955 172.983C112.866 173.323 112.647 173.612 112.347 173.788C112.047 173.963 111.69 174.011 111.356 173.92L104.746 172.12L98.1281 176L104.745 179.88L111.354 178.08C111.689 177.989 112.045 178.037 112.345 178.213C112.645 178.389 112.864 178.679 112.954 179.019C113.043 179.359 112.996 179.721 112.823 180.025C112.649 180.33 112.364 180.552 112.03 180.643L107.942 181.755L111.241 183.69C111.391 183.777 111.522 183.892 111.628 184.03C111.733 184.168 111.811 184.326 111.856 184.495C111.901 184.664 111.913 184.84 111.89 185.013C111.868 185.187 111.812 185.354 111.726 185.505C111.64 185.657 111.526 185.789 111.389 185.895C111.252 186.002 111.096 186.079 110.93 186.124C110.763 186.169 110.59 186.18 110.419 186.156C110.249 186.132 110.084 186.074 109.936 185.986L106.636 184.051L107.733 188.202C107.777 188.371 107.788 188.546 107.766 188.719C107.744 188.891 107.688 189.058 107.602 189.208C107.516 189.359 107.402 189.491 107.266 189.597C107.13 189.703 106.975 189.781 106.81 189.826C106.644 189.871 106.471 189.882 106.301 189.86C106.131 189.837 105.968 189.78 105.819 189.693C105.671 189.606 105.541 189.49 105.436 189.352C105.332 189.214 105.255 189.056 105.211 188.888L103.439 182.175L96.8229 178.298V186.057L101.661 190.97C101.786 191.092 101.885 191.239 101.954 191.4C102.022 191.562 102.058 191.736 102.06 191.912C102.061 192.088 102.028 192.263 101.963 192.426C101.897 192.588 101.8 192.737 101.678 192.861C101.555 192.986 101.41 193.084 101.249 193.151C101.089 193.217 100.917 193.251 100.744 193.25C100.571 193.248 100.399 193.212 100.24 193.142C100.081 193.073 99.9366 192.972 99.8162 192.845L96.8229 189.805V193.674C96.8229 194.026 96.6854 194.363 96.4406 194.612C96.1958 194.86 95.8638 195 95.5177 195C95.1715 195 94.8395 194.86 94.5947 194.612C94.35 194.363 94.2125 194.026 94.2125 193.674V189.804L91.2192 192.844C90.9717 193.078 90.6445 193.205 90.3063 193.199C89.9682 193.193 89.6456 193.054 89.4064 192.811C89.1673 192.568 89.0303 192.241 89.0243 191.897C89.0184 191.554 89.1439 191.222 89.3745 190.97L94.2125 186.057V178.296L87.5959 182.175L85.8243 188.888C85.7799 189.056 85.7034 189.214 85.5991 189.352C85.4948 189.49 85.3647 189.606 85.2162 189.693C85.0678 189.78 84.9039 189.837 84.734 189.86C84.5641 189.882 84.3914 189.871 84.2258 189.826C84.0602 189.781 83.905 189.703 83.769 189.597C83.633 189.491 83.5189 189.359 83.4331 189.208C83.3474 189.058 83.2918 188.891 83.2694 188.719C83.247 188.546 83.2583 188.371 83.3026 188.202L84.399 184.049L81.0994 185.986C80.7994 186.162 80.4429 186.209 80.1084 186.118C79.7738 186.027 79.4887 185.805 79.3156 185.5C79.1425 185.195 79.0957 184.833 79.1854 184.494C79.2752 184.154 79.4942 183.864 79.7942 183.688L83.0938 181.755L79.0041 180.641C78.8341 180.6 78.674 180.525 78.5332 180.42C78.3923 180.315 78.2737 180.183 78.1842 180.03C78.0948 179.878 78.0363 179.709 78.0123 179.533C77.9884 179.358 77.9994 179.179 78.0447 179.008C78.09 178.836 78.1687 178.676 78.2762 178.536C78.3836 178.396 78.5176 178.28 78.6702 178.193C78.8228 178.107 78.9909 178.053 79.1645 178.034C79.3381 178.015 79.5138 178.031 79.681 178.082L86.2907 179.88L92.9072 176L86.2907 172.12L79.681 173.92C79.5154 173.965 79.3426 173.976 79.1725 173.953C79.0025 173.931 78.8385 173.874 78.69 173.787C78.5415 173.7 78.4113 173.584 78.307 173.445C78.2026 173.307 78.1261 173.149 78.0817 172.981C78.0374 172.813 78.0261 172.637 78.0486 172.465C78.071 172.292 78.1267 172.126 78.2125 171.975C78.2983 171.824 78.4126 171.692 78.5487 171.586C78.6848 171.48 78.8401 171.402 79.0058 171.357L83.0938 170.245L79.7942 168.312C79.6456 168.225 79.5154 168.109 79.411 167.971C79.3065 167.832 79.2299 167.675 79.1854 167.506C79.141 167.338 79.1296 167.163 79.152 166.99C79.1743 166.817 79.2299 166.651 79.3156 166.5C79.4013 166.349 79.5154 166.217 79.6514 166.111C79.7875 166.005 79.9427 165.927 80.1084 165.882C80.4429 165.791 80.7994 165.838 81.0994 166.014L84.3972 167.951L83.3008 163.799C83.2113 163.46 83.2584 163.097 83.4317 162.793C83.605 162.488 83.8903 162.266 84.2249 162.175C84.5596 162.084 84.9161 162.132 85.216 162.308C85.5159 162.484 85.7347 162.774 85.8243 163.114L87.5941 169.826L94.2125 173.702V165.943L89.3745 161.03C89.1439 160.778 89.0184 160.446 89.0243 160.103C89.0303 159.759 89.1673 159.432 89.4064 159.189C89.6456 158.946 89.9682 158.807 90.3063 158.801C90.6445 158.795 90.9717 158.922 91.2192 159.156L94.2125 162.196V158.326C94.2125 157.974 94.35 157.637 94.5947 157.388C94.8395 157.14 95.1715 157 95.5177 157Z" fill="#30373E"/>
<path d="M114.762 56.4458C119.202 54.8987 123.872 54.1119 128.573 54.1185C133.315 54.1185 137.875 54.9088 142.131 56.3588M142.131 56.3588C158.357 61.905 170 77.1373 170 95.0593C170 117.672 151.454 136 128.573 136H56.0735C38.9127 136 25 122.254 25 105.296C25 88.3385 38.9127 74.5925 56.0735 74.5853C58.0933 74.5855 60.1084 74.7797 62.091 75.1653M142.131 56.3588C139.818 35.9065 122.266 20 100.951 20C78.07 20 59.5245 38.328 59.5245 60.9408C59.5185 65.7979 60.3879 70.6164 62.091 75.1653M62.091 75.1653C66.1024 75.9443 69.921 77.5062 73.3285 79.7618" stroke="#30373E" stroke-width="10" stroke-linecap="round"/>
</svg>
