<svg width="155" height="210" viewBox="0 0 155 210" fill="none" xmlns="http://www.w3.org/2000/svg">
<path fill-rule="evenodd" clip-rule="evenodd" d="M77.5237 160C77.9886 160 78.4344 160.184 78.7631 160.511C79.0918 160.838 79.2764 161.282 79.2764 161.744V166.837L83.296 162.837C83.6283 162.529 84.0677 162.361 84.5218 162.369C84.9759 162.377 85.4091 162.56 85.7302 162.88C86.0514 163.2 86.2353 163.631 86.2433 164.083C86.2513 164.534 86.0828 164.972 85.7732 165.302L79.2764 171.767V181.979L88.1616 176.874L90.5406 168.042C90.6001 167.821 90.7029 167.613 90.843 167.431C90.9831 167.25 91.1577 167.097 91.3571 166.983C91.5564 166.868 91.7764 166.794 92.0046 166.764C92.2328 166.734 92.4647 166.749 92.6871 166.808C92.9094 166.867 93.1179 166.97 93.3005 167.109C93.4831 167.248 93.6364 167.422 93.7515 167.621C93.8666 167.819 93.9414 168.038 93.9715 168.265C94.0015 168.492 93.9864 168.723 93.9268 168.944L92.4545 174.409L96.8854 171.863C97.2878 171.635 97.7643 171.575 98.2109 171.696C98.6576 171.816 99.0382 172.108 99.2696 172.507C99.501 172.906 99.5645 173.38 99.4462 173.825C99.3279 174.27 99.0374 174.651 98.6381 174.884L94.2096 177.428L99.7015 178.893C100.151 179.013 100.533 179.306 100.766 179.706C100.998 180.107 101.061 180.583 100.94 181.03C100.819 181.477 100.525 181.858 100.123 182.089C99.72 182.32 99.2414 182.383 98.7924 182.263L89.9166 179.895L81.0292 185L89.9143 190.105L98.79 187.737C99.2394 187.618 99.7181 187.68 100.121 187.912C100.524 188.144 100.817 188.525 100.938 188.972C101.058 189.419 100.995 189.896 100.762 190.296C100.529 190.697 100.146 190.99 99.6968 191.109L94.2073 192.572L98.6381 195.119C98.8391 195.232 99.0154 195.384 99.1571 195.566C99.2987 195.748 99.4028 195.956 99.4633 196.178C99.5239 196.4 99.5397 196.632 99.5099 196.86C99.4802 197.088 99.4053 197.308 99.2897 197.507C99.1742 197.706 99.0201 197.881 98.8365 198.02C98.6529 198.16 98.4433 198.262 98.2198 198.321C97.9964 198.38 97.7634 198.394 97.5344 198.363C97.3054 198.332 97.0848 198.256 96.8854 198.14L92.4545 195.593L93.9268 201.056C93.9864 201.277 94.0015 201.508 93.9715 201.735C93.9414 201.962 93.8666 202.181 93.7515 202.379C93.6364 202.578 93.4831 202.752 93.3005 202.891C93.1179 203.03 92.9094 203.133 92.6871 203.192C92.4647 203.251 92.2328 203.266 92.0046 203.236C91.7764 203.206 91.5564 203.132 91.3571 203.017C91.1577 202.903 90.9831 202.75 90.843 202.569C90.7029 202.387 90.6001 202.179 90.5406 201.958L88.1616 193.126L79.2764 188.023V198.233L85.7732 204.698C85.9407 204.858 86.0743 205.051 86.1662 205.264C86.2582 205.476 86.3067 205.705 86.3088 205.937C86.3109 206.168 86.2667 206.398 86.1786 206.613C86.0906 206.827 85.9606 207.022 85.7961 207.186C85.6316 207.349 85.436 207.479 85.2206 207.567C85.0052 207.655 84.7745 207.699 84.5417 207.697C84.309 207.695 84.079 207.647 83.8651 207.556C83.6512 207.464 83.4578 207.332 83.296 207.165L79.2764 203.165V208.256C79.2764 208.718 79.0918 209.162 78.7631 209.489C78.4344 209.816 77.9886 210 77.5237 210C77.0589 210 76.6131 209.816 76.2844 209.489C75.9557 209.162 75.771 208.718 75.771 208.256V203.163L71.7514 207.163C71.4192 207.471 70.9797 207.639 70.5257 207.631C70.0716 207.623 69.6383 207.44 69.3172 207.12C68.9961 206.8 68.8121 206.369 68.8041 205.917C68.7961 205.466 68.9647 205.028 69.2743 204.698L75.771 198.233V188.021L66.8859 193.126L64.5069 201.958C64.4473 202.179 64.3446 202.387 64.2045 202.569C64.0644 202.75 63.8897 202.903 63.6904 203.017C63.4911 203.132 63.271 203.206 63.0428 203.236C62.8146 203.266 62.5827 203.251 62.3604 203.192C62.138 203.133 61.9296 203.03 61.747 202.891C61.5643 202.752 61.4111 202.578 61.2959 202.379C61.1808 202.181 61.1061 201.962 61.076 201.735C61.0459 201.508 61.0611 201.277 61.1206 201.056L62.5929 195.591L58.162 198.14C57.7592 198.371 57.2805 198.433 56.8312 198.313C56.382 198.194 55.9991 197.901 55.7666 197.5C55.5342 197.099 55.4714 196.623 55.5919 196.176C55.7124 195.729 56.0064 195.348 56.4093 195.116L60.8402 192.572L55.3483 191.107C55.1201 191.053 54.9051 190.954 54.716 190.816C54.5269 190.678 54.3675 190.504 54.2474 190.303C54.1272 190.103 54.0488 189.88 54.0166 189.649C53.9844 189.418 53.9992 189.183 54.06 188.957C54.1209 188.732 54.2266 188.521 54.3708 188.337C54.5151 188.153 54.695 188 54.8999 187.886C55.1048 187.772 55.3306 187.701 55.5637 187.676C55.7969 187.651 56.0328 187.672 56.2574 187.74L65.1332 190.105L74.0183 185L65.1332 179.895L56.2574 182.263C56.0349 182.322 55.8029 182.337 55.5745 182.307C55.3462 182.277 55.126 182.203 54.9266 182.088C54.7271 181.973 54.5524 181.821 54.4122 181.639C54.2721 181.457 54.1693 181.249 54.1097 181.028C54.0502 180.806 54.0351 180.576 54.0652 180.348C54.0954 180.121 54.1702 179.902 54.2854 179.704C54.4006 179.505 54.554 179.331 54.7368 179.192C54.9196 179.052 55.1282 178.95 55.3507 178.891L60.8402 177.428L56.4093 174.884C56.2098 174.769 56.035 174.617 55.8947 174.435C55.7545 174.253 55.6516 174.046 55.5919 173.824C55.5322 173.603 55.5169 173.372 55.5469 173.145C55.5769 172.918 55.6516 172.699 55.7666 172.5C55.8817 172.301 56.035 172.127 56.2176 171.988C56.4003 171.848 56.6088 171.746 56.8312 171.687C57.2805 171.567 57.7592 171.629 58.162 171.86L62.5906 174.409L61.1183 168.947C60.998 168.499 61.0612 168.023 61.2939 167.622C61.5267 167.221 61.9098 166.929 62.3592 166.809C62.8086 166.69 63.2873 166.753 63.69 166.984C64.0928 167.216 64.3866 167.597 64.5069 168.044L66.8836 176.877L75.771 181.977V171.767L69.2743 165.302C68.9647 164.972 68.7961 164.534 68.8041 164.083C68.8121 163.631 68.9961 163.2 69.3172 162.88C69.6383 162.56 70.0716 162.377 70.5257 162.369C70.9797 162.361 71.4192 162.529 71.7514 162.837L75.771 166.837V161.744C75.771 161.282 75.9557 160.838 76.2844 160.511C76.6131 160.184 77.0589 160 77.5237 160Z" fill="#30373E"/>
<path d="M94.7622 70.4458C99.2023 68.8987 103.872 68.1119 108.573 68.1185C113.315 68.1185 117.875 68.9088 122.131 70.3588M122.131 70.3588C138.357 75.905 150 91.1373 150 109.059C150 131.672 131.454 150 108.573 150H36.0735C18.9127 150 5 136.254 5 119.296C5 102.338 18.9127 88.5925 36.0735 88.5853C38.0933 88.5855 40.1084 88.7797 42.091 89.1653M122.131 70.3588C119.818 49.9065 102.266 34 80.951 34C58.07 34 39.5245 52.328 39.5245 74.9408C39.5185 79.7979 40.3879 84.6164 42.091 89.1653M42.091 89.1653C46.1024 89.9443 49.921 91.5062 53.3285 93.7618" stroke="#30373E" stroke-width="10" stroke-linecap="round"/>
<path opacity="0.5" d="M48.4999 23.125C42.7365 23.1225 37.144 25.082 32.6426 28.6811C28.1412 32.2801 24.9991 37.3044 23.7334 42.927C22.4676 48.5496 23.1535 54.4356 25.6784 59.6164C28.2032 64.7973 32.4165 68.9643 37.6249 71.4318M48.4999 23.125C53.8939 23.125 58.8891 24.807 62.9999 27.6708M48.4999 23.125C43.1059 23.125 38.1106 24.807 33.9998 27.6708M48.4999 23.125C55.4164 23.125 61.6804 25.8873 66.2624 30.375M48.4999 23.125C41.5834 23.125 35.3194 25.8873 30.7374 30.375M48.4999 23.125C57.7291 23.125 65.8129 28.055 70.2499 35.421" stroke="#30373E" stroke-width="10"/>
<path opacity="0.5" d="M44.875 5V8.625M8.625 44.875H5M73.0702 16.6798L71.5043 18.2457M18.2457 71.5043L16.6798 73.0702M18.2457 18.2457L16.6798 16.6798" stroke="#30373E" stroke-width="10" stroke-linecap="round"/>
</svg>
