<svg width="155" height="201" viewBox="0 0 155 201" fill="none" xmlns="http://www.w3.org/2000/svg">
<path fill-rule="evenodd" clip-rule="evenodd" d="M104.019 161C104.395 161 104.755 161.147 105.021 161.409C105.287 161.67 105.436 162.025 105.436 162.395V166.47L108.686 163.27C108.955 163.023 109.31 162.889 109.677 162.895C110.044 162.902 110.395 163.048 110.654 163.304C110.914 163.56 111.063 163.905 111.069 164.266C111.076 164.627 110.939 164.977 110.689 165.242L105.436 170.414V178.583L112.62 174.5L114.543 167.433C114.592 167.256 114.675 167.091 114.788 166.945C114.901 166.8 115.042 166.678 115.204 166.586C115.365 166.494 115.543 166.435 115.727 166.411C115.912 166.387 116.099 166.399 116.279 166.447C116.459 166.494 116.627 166.576 116.775 166.687C116.923 166.799 117.046 166.938 117.14 167.097C117.233 167.255 117.293 167.43 117.317 167.612C117.342 167.794 117.329 167.978 117.281 168.155L116.091 172.527L119.673 170.49C119.999 170.308 120.384 170.26 120.745 170.357C121.106 170.453 121.414 170.686 121.601 171.006C121.788 171.325 121.839 171.704 121.744 172.06C121.648 172.416 121.413 172.721 121.09 172.907L117.51 174.942L121.95 176.114C122.313 176.21 122.623 176.444 122.81 176.765C122.998 177.086 123.049 177.467 122.952 177.824C122.854 178.182 122.616 178.486 122.291 178.671C121.965 178.856 121.578 178.906 121.215 178.81L114.039 176.916L106.853 181L114.037 185.084L121.213 183.19C121.577 183.094 121.964 183.144 122.289 183.33C122.615 183.515 122.852 183.82 122.95 184.178C123.047 184.535 122.996 184.917 122.808 185.237C122.619 185.558 122.31 185.792 121.946 185.887L117.508 187.058L121.09 189.095C121.253 189.186 121.395 189.308 121.51 189.453C121.624 189.598 121.709 189.765 121.758 189.942C121.807 190.12 121.819 190.305 121.795 190.488C121.771 190.67 121.711 190.846 121.617 191.006C121.524 191.165 121.399 191.305 121.251 191.416C121.102 191.528 120.933 191.61 120.752 191.657C120.572 191.704 120.383 191.715 120.198 191.69C120.013 191.665 119.835 191.605 119.673 191.512L116.091 189.474L117.281 193.845C117.329 194.022 117.342 194.206 117.317 194.388C117.293 194.57 117.233 194.745 117.14 194.903C117.046 195.062 116.923 195.201 116.775 195.313C116.627 195.424 116.459 195.506 116.279 195.553C116.099 195.601 115.912 195.613 115.727 195.589C115.543 195.565 115.365 195.506 115.204 195.414C115.042 195.322 114.901 195.2 114.788 195.055C114.675 194.909 114.592 194.744 114.543 194.567L112.62 187.5L105.436 183.419V191.586L110.689 196.758C110.824 196.887 110.932 197.041 111.007 197.211C111.081 197.381 111.12 197.564 111.122 197.749C111.124 197.935 111.088 198.118 111.017 198.29C110.946 198.462 110.84 198.617 110.707 198.748C110.574 198.88 110.416 198.983 110.242 199.053C110.068 199.124 109.881 199.159 109.693 199.158C109.505 199.156 109.319 199.118 109.146 199.045C108.973 198.972 108.817 198.865 108.686 198.732L105.436 195.532V199.605C105.436 199.975 105.287 200.33 105.021 200.591C104.755 200.853 104.395 201 104.019 201C103.643 201 103.283 200.853 103.017 200.591C102.751 200.33 102.602 199.975 102.602 199.605V195.53L99.3522 198.73C99.0836 198.977 98.7283 199.111 98.3612 199.105C97.994 199.098 97.6438 198.952 97.3841 198.696C97.1245 198.44 96.9758 198.095 96.9693 197.734C96.9628 197.373 97.0991 197.023 97.3494 196.758L102.602 191.586V183.417L95.4184 187.5L93.4949 194.567C93.4468 194.744 93.3637 194.909 93.2504 195.055C93.1372 195.2 92.9959 195.322 92.8348 195.414C92.6736 195.506 92.4957 195.565 92.3112 195.589C92.1267 195.613 91.9392 195.601 91.7595 195.553C91.5797 195.506 91.4112 195.424 91.2635 195.313C91.1158 195.201 90.9919 195.062 90.8988 194.903C90.8058 194.745 90.7453 194.57 90.721 194.388C90.6967 194.206 90.709 194.022 90.7571 193.845L91.9475 189.473L88.365 191.512C88.0393 191.697 87.6523 191.747 87.2891 191.651C86.9259 191.555 86.6163 191.321 86.4284 191C86.2404 190.679 86.1896 190.298 86.2871 189.941C86.3845 189.583 86.6222 189.278 86.948 189.093L90.5304 187.058L86.0901 185.886C85.9056 185.843 85.7318 185.763 85.5789 185.653C85.426 185.543 85.2971 185.403 85.2 185.243C85.1029 185.082 85.0394 184.904 85.0134 184.719C84.9874 184.534 84.9993 184.346 85.0485 184.166C85.0977 183.986 85.1832 183.817 85.2998 183.67C85.4165 183.522 85.5619 183.4 85.7276 183.309C85.8933 183.218 86.0758 183.161 86.2643 183.141C86.4528 183.121 86.6435 183.138 86.8251 183.192L94.0013 185.084L101.185 181L94.0013 176.916L86.8251 178.81C86.6452 178.858 86.4576 178.87 86.273 178.846C86.0884 178.822 85.9104 178.762 85.7491 178.67C85.5879 178.579 85.4466 178.457 85.3333 178.311C85.22 178.166 85.1369 177.999 85.0887 177.822C85.0406 177.645 85.0284 177.46 85.0527 177.279C85.0771 177.097 85.1376 176.922 85.2308 176.763C85.3239 176.604 85.4479 176.465 85.5957 176.353C85.7435 176.242 85.9121 176.16 86.092 176.113L90.5304 174.942L86.948 172.907C86.7867 172.815 86.6453 172.693 86.5319 172.548C86.4185 172.403 86.3353 172.237 86.2871 172.059C86.2388 171.882 86.2264 171.698 86.2507 171.516C86.2749 171.334 86.3353 171.159 86.4284 171C86.5214 170.841 86.6453 170.702 86.793 170.59C86.9407 170.479 87.1092 170.397 87.2891 170.349C87.6523 170.253 88.0393 170.303 88.365 170.488L91.9456 172.527L90.7552 168.157C90.658 167.799 90.7091 167.418 90.8972 167.098C91.0854 166.777 91.3952 166.543 91.7585 166.447C92.1218 166.352 92.5089 166.402 92.8345 166.587C93.1601 166.773 93.3977 167.078 93.4949 167.435L95.4165 174.501L102.602 178.581V170.414L97.3494 165.242C97.0991 164.977 96.9628 164.627 96.9693 164.266C96.9758 163.905 97.1245 163.56 97.3841 163.304C97.6438 163.048 97.994 162.902 98.3612 162.895C98.7283 162.889 99.0836 163.023 99.3522 163.27L102.602 166.47V162.395C102.602 162.025 102.751 161.67 103.017 161.409C103.283 161.147 103.643 161 104.019 161Z" fill="#30373E"/>
<path fill-rule="evenodd" clip-rule="evenodd" d="M44.3606 162.094C45.0639 162.796 45.459 163.747 45.459 164.738C45.459 165.73 45.0639 166.681 44.3606 167.382L34.3457 177.36C34.0019 177.727 33.5873 178.022 33.1266 178.227C32.6659 178.431 32.1686 178.541 31.6643 178.55C31.1601 178.559 30.6592 178.467 30.1915 178.278C29.7239 178.09 29.2991 177.81 28.9425 177.455C28.5858 177.099 28.3047 176.676 28.1158 176.21C27.9269 175.744 27.8342 175.245 27.8431 174.743C27.852 174.241 27.9623 173.745 28.1676 173.286C28.3729 172.827 28.6688 172.414 29.0378 172.072L39.0527 162.094C39.7569 161.394 40.7114 161 41.7067 161C42.7019 161 43.6565 161.394 44.3606 162.094ZM66.8942 162.094C67.5975 162.796 67.9925 163.747 67.9925 164.738C67.9925 165.73 67.5975 166.681 66.8942 167.382L56.8793 177.36C56.5355 177.727 56.1208 178.022 55.6602 178.227C55.1995 178.431 54.7022 178.541 54.1979 178.55C53.6936 178.559 53.1927 178.467 52.7251 178.278C52.2575 178.09 51.8327 177.81 51.476 177.455C51.1194 177.099 50.8383 176.676 50.6494 176.21C50.4605 175.744 50.3677 175.245 50.3766 174.743C50.3855 174.241 50.4959 173.745 50.7012 173.286C50.9064 172.827 51.2024 172.414 51.5714 172.072L61.5863 162.094C62.2905 161.394 63.245 161 64.2403 161C65.2355 161 66.19 161.394 66.8942 162.094ZM24.3308 179.555C25.0341 180.256 25.4291 181.207 25.4291 182.199C25.4291 183.19 25.0341 184.141 24.3308 184.843L14.3159 194.82C13.6039 195.481 12.6623 195.841 11.6893 195.824C10.7164 195.807 9.78808 195.414 9.09999 194.729C8.4119 194.043 8.01775 193.118 8.00059 192.149C7.98342 191.18 8.34457 190.242 9.00796 189.532L19.0229 179.555C19.7271 178.854 20.6816 178.461 21.6768 178.461C22.6721 178.461 23.6266 178.854 24.3308 179.555ZM71.9017 179.555C72.605 180.256 73 181.207 73 182.199C73 183.19 72.605 184.141 71.9017 184.843L61.8867 194.82C61.5429 195.188 61.1283 195.483 60.6676 195.687C60.2069 195.892 59.7096 196.002 59.2054 196.011C58.7011 196.02 58.2002 195.927 57.7326 195.739C57.2649 195.551 56.8401 195.271 56.4835 194.915C56.1269 194.56 55.8457 194.137 55.6568 193.671C55.468 193.205 55.3752 192.706 55.3841 192.204C55.393 191.701 55.5034 191.206 55.7086 190.747C55.9139 190.288 56.2099 189.875 56.5788 189.532L66.5938 179.555C67.2979 178.854 68.2525 178.461 69.2477 178.461C70.2429 178.461 71.1975 178.854 71.9017 179.555ZM46.8644 184.544C47.5677 185.245 47.9627 186.196 47.9627 187.188C47.9627 188.179 47.5677 189.13 46.8644 189.832L36.8494 199.809C36.5056 200.177 36.091 200.472 35.6303 200.676C35.1696 200.881 34.6723 200.991 34.1681 200.999C33.6638 201.008 33.1629 200.916 32.6953 200.728C32.2276 200.54 31.8028 200.259 31.4462 199.904C31.0896 199.549 30.8084 199.126 30.6195 198.66C30.4307 198.194 30.3379 197.695 30.3468 197.192C30.3557 196.69 30.4661 196.195 30.6713 195.736C30.8766 195.277 31.1726 194.864 31.5415 194.521L41.5565 184.544C42.2606 183.843 43.2152 183.449 44.2104 183.449C45.2056 183.449 46.1602 183.843 46.8644 184.544Z" fill="#30373E"/>
<path d="M94.7622 70.4458C99.2023 68.8987 103.872 68.1119 108.573 68.1185C113.315 68.1185 117.875 68.9088 122.131 70.3588M122.131 70.3588C138.357 75.905 150 91.1373 150 109.059C150 131.672 131.454 150 108.573 150H36.0735C18.9127 150 5 136.254 5 119.296C5 102.338 18.9127 88.5925 36.0735 88.5853C38.0933 88.5855 40.1084 88.7797 42.091 89.1653M122.131 70.3588C119.818 49.9065 102.266 34 80.951 34C58.07 34 39.5245 52.328 39.5245 74.9408C39.5185 79.7979 40.3879 84.6164 42.091 89.1653M42.091 89.1653C46.1024 89.9443 49.921 91.5062 53.3285 93.7618" stroke="#30373E" stroke-width="10" stroke-linecap="round"/>
<path opacity="0.5" d="M48.4999 23.125C42.7365 23.1225 37.144 25.082 32.6426 28.6811C28.1412 32.2801 24.9991 37.3044 23.7334 42.927C22.4676 48.5496 23.1535 54.4356 25.6784 59.6164C28.2032 64.7973 32.4165 68.9643 37.6249 71.4318M48.4999 23.125C53.8939 23.125 58.8891 24.807 62.9999 27.6708M48.4999 23.125C43.1059 23.125 38.1106 24.807 33.9998 27.6708M48.4999 23.125C55.4164 23.125 61.6804 25.8873 66.2624 30.375M48.4999 23.125C41.5834 23.125 35.3194 25.8873 30.7374 30.375M48.4999 23.125C57.7291 23.125 65.8129 28.055 70.2499 35.421" stroke="#30373E" stroke-width="10"/>
<path opacity="0.5" d="M44.875 5V8.625M8.625 44.875H5M73.0702 16.6798L71.5043 18.2457M18.2457 71.5043L16.6798 73.0702M18.2457 18.2457L16.6798 16.6798" stroke="#30373E" stroke-width="10" stroke-linecap="round"/>
</svg>
