<svg width="155" height="174" viewBox="0 0 155 174" fill="none" xmlns="http://www.w3.org/2000/svg">
<path fill-rule="evenodd" clip-rule="evenodd" d="M53.5177 136C53.8638 136 54.1958 136.14 54.4406 136.388C54.6854 136.637 54.8229 136.974 54.8229 137.326V141.196L57.8162 138.156C58.0636 137.922 58.3909 137.795 58.729 137.801C59.0671 137.807 59.3898 137.946 59.6289 138.189C59.868 138.432 60.005 138.759 60.011 139.103C60.017 139.446 59.8914 139.778 59.6609 140.03L54.8229 144.943V152.704L61.4395 148.825L63.2111 142.112C63.2554 141.944 63.3319 141.786 63.4362 141.648C63.5406 141.51 63.6707 141.394 63.8191 141.307C63.9675 141.22 64.1314 141.163 64.3013 141.14C64.4713 141.118 64.6439 141.129 64.8095 141.174C64.9751 141.219 65.1303 141.297 65.2663 141.403C65.4023 141.509 65.5165 141.641 65.6022 141.792C65.6879 141.942 65.7436 142.109 65.766 142.281C65.7884 142.454 65.7771 142.629 65.7327 142.798L64.6364 146.951L67.936 145.016C68.2356 144.843 68.5904 144.797 68.923 144.889C69.2557 144.981 69.5391 145.202 69.7114 145.505C69.8837 145.808 69.931 146.168 69.8429 146.507C69.7548 146.845 69.5385 147.135 69.2412 147.312L65.9433 149.245L70.033 150.359C70.3674 150.45 70.6524 150.672 70.8254 150.977C70.9984 151.281 71.0451 151.643 70.9554 151.983C70.8656 152.323 70.6466 152.612 70.3467 152.788C70.0468 152.963 69.6904 153.011 69.356 152.92L62.7464 151.12L56.1281 155L62.7447 158.88L69.3543 157.08C69.6889 156.989 70.0454 157.037 70.3453 157.213C70.6453 157.389 70.8641 157.679 70.9536 158.019C71.0432 158.359 70.9961 158.721 70.8228 159.025C70.6495 159.33 70.3641 159.552 70.0295 159.643L65.9416 160.755L69.2412 162.69C69.3908 162.777 69.5221 162.892 69.6276 163.03C69.7331 163.168 69.8106 163.326 69.8557 163.495C69.9008 163.664 69.9126 163.84 69.8904 164.013C69.8682 164.187 69.8125 164.354 69.7264 164.505C69.6403 164.657 69.5256 164.789 69.3889 164.895C69.2522 165.002 69.0961 165.079 68.9297 165.124C68.7633 165.169 68.5898 165.18 68.4192 165.156C68.2487 165.132 68.0844 165.074 67.936 164.986L64.6364 163.051L65.7327 167.202C65.7771 167.371 65.7884 167.546 65.766 167.719C65.7436 167.891 65.6879 168.058 65.6022 168.208C65.5165 168.359 65.4023 168.491 65.2663 168.597C65.1303 168.703 64.9751 168.781 64.8095 168.826C64.6439 168.871 64.4713 168.882 64.3013 168.86C64.1314 168.837 63.9675 168.78 63.8191 168.693C63.6707 168.606 63.5406 168.49 63.4362 168.352C63.3319 168.214 63.2554 168.056 63.2111 167.888L61.4395 161.175L54.8229 157.298V165.057L59.6609 169.97C59.7856 170.092 59.8851 170.239 59.9536 170.4C60.0221 170.562 60.0581 170.736 60.0597 170.912C60.0613 171.088 60.0284 171.263 59.9628 171.426C59.8973 171.588 59.8004 171.737 59.6779 171.861C59.5554 171.986 59.4098 172.084 59.2494 172.151C59.089 172.217 58.9172 172.251 58.7438 172.25C58.5705 172.248 58.3993 172.212 58.24 172.142C58.0807 172.073 57.9366 171.972 57.8162 171.845L54.8229 168.805V172.674C54.8229 173.026 54.6854 173.363 54.4406 173.612C54.1958 173.86 53.8638 174 53.5177 174C53.1715 174 52.8395 173.86 52.5947 173.612C52.35 173.363 52.2125 173.026 52.2125 172.674V168.804L49.2192 171.844C48.9717 172.078 48.6445 172.205 48.3063 172.199C47.9682 172.193 47.6456 172.054 47.4064 171.811C47.1673 171.568 47.0303 171.241 47.0243 170.897C47.0184 170.554 47.1439 170.222 47.3745 169.97L52.2125 165.057V157.296L45.5959 161.175L43.8243 167.888C43.7799 168.056 43.7034 168.214 43.5991 168.352C43.4948 168.49 43.3647 168.606 43.2162 168.693C43.0678 168.78 42.9039 168.837 42.734 168.86C42.5641 168.882 42.3914 168.871 42.2258 168.826C42.0602 168.781 41.905 168.703 41.769 168.597C41.633 168.491 41.5189 168.359 41.4331 168.208C41.3474 168.058 41.2918 167.891 41.2694 167.719C41.247 167.546 41.2583 167.371 41.3026 167.202L42.399 163.049L39.0994 164.986C38.7994 165.162 38.4429 165.209 38.1084 165.118C37.7738 165.027 37.4887 164.805 37.3156 164.5C37.1425 164.195 37.0957 163.833 37.1854 163.494C37.2752 163.154 37.4942 162.864 37.7942 162.688L41.0938 160.755L37.0041 159.641C36.8341 159.6 36.674 159.525 36.5332 159.42C36.3923 159.315 36.2737 159.183 36.1842 159.03C36.0948 158.878 36.0363 158.709 36.0123 158.533C35.9884 158.358 35.9994 158.179 36.0447 158.008C36.09 157.836 36.1687 157.676 36.2762 157.536C36.3836 157.396 36.5176 157.28 36.6702 157.193C36.8228 157.107 36.9909 157.053 37.1645 157.034C37.3381 157.015 37.5138 157.031 37.681 157.082L44.2907 158.88L50.9072 155L44.2907 151.12L37.681 152.92C37.5154 152.965 37.3426 152.976 37.1725 152.953C37.0025 152.931 36.8385 152.874 36.69 152.787C36.5415 152.7 36.4113 152.584 36.307 152.445C36.2026 152.307 36.1261 152.149 36.0817 151.981C36.0374 151.813 36.0261 151.637 36.0486 151.465C36.071 151.292 36.1267 151.126 36.2125 150.975C36.2983 150.824 36.4126 150.692 36.5487 150.586C36.6848 150.48 36.8401 150.402 37.0058 150.357L41.0938 149.245L37.7942 147.312C37.6456 147.225 37.5154 147.109 37.411 146.971C37.3065 146.832 37.2299 146.675 37.1854 146.506C37.141 146.338 37.1296 146.163 37.152 145.99C37.1743 145.817 37.2299 145.651 37.3156 145.5C37.4013 145.349 37.5154 145.217 37.6514 145.111C37.7875 145.005 37.9427 144.927 38.1084 144.882C38.4429 144.791 38.7994 144.838 39.0994 145.014L42.3972 146.951L41.3008 142.799C41.2113 142.46 41.2584 142.097 41.4317 141.793C41.605 141.488 41.8903 141.266 42.2249 141.175C42.5596 141.084 42.9161 141.132 43.216 141.308C43.5159 141.484 43.7347 141.774 43.8243 142.114L45.5941 148.826L52.2125 152.702V144.943L47.3745 140.03C47.1439 139.778 47.0184 139.446 47.0243 139.103C47.0303 138.759 47.1673 138.432 47.4064 138.189C47.6456 137.946 47.9682 137.807 48.3063 137.801C48.6445 137.795 48.9717 137.922 49.2192 138.156L52.2125 141.196V137.326C52.2125 136.974 52.35 136.637 52.5947 136.388C52.8395 136.14 53.1715 136 53.5177 136Z" fill="#30373E"/>
<path fill-rule="evenodd" clip-rule="evenodd" d="M100.518 136C100.864 136 101.196 136.14 101.441 136.388C101.685 136.637 101.823 136.974 101.823 137.326V141.196L104.816 138.156C105.064 137.922 105.391 137.795 105.729 137.801C106.067 137.807 106.39 137.946 106.629 138.189C106.868 138.432 107.005 138.759 107.011 139.103C107.017 139.446 106.891 139.778 106.661 140.03L101.823 144.943V152.704L108.439 148.825L110.211 142.112C110.255 141.944 110.332 141.786 110.436 141.648C110.541 141.51 110.671 141.394 110.819 141.307C110.968 141.22 111.131 141.163 111.301 141.14C111.471 141.118 111.644 141.129 111.81 141.174C111.975 141.219 112.13 141.297 112.266 141.403C112.402 141.509 112.516 141.641 112.602 141.792C112.688 141.942 112.744 142.109 112.766 142.281C112.788 142.454 112.777 142.629 112.733 142.798L111.636 146.951L114.936 145.016C115.236 144.843 115.59 144.797 115.923 144.889C116.256 144.981 116.539 145.202 116.711 145.505C116.884 145.808 116.931 146.168 116.843 146.507C116.755 146.845 116.539 147.135 116.241 147.312L112.943 149.245L117.033 150.359C117.367 150.45 117.652 150.672 117.825 150.977C117.998 151.281 118.045 151.643 117.955 151.983C117.866 152.323 117.647 152.612 117.347 152.788C117.047 152.963 116.69 153.011 116.356 152.92L109.746 151.12L103.128 155L109.745 158.88L116.354 157.08C116.689 156.989 117.045 157.037 117.345 157.213C117.645 157.389 117.864 157.679 117.954 158.019C118.043 158.359 117.996 158.721 117.823 159.025C117.649 159.33 117.364 159.552 117.03 159.643L112.942 160.755L116.241 162.69C116.391 162.777 116.522 162.892 116.628 163.03C116.733 163.168 116.811 163.326 116.856 163.495C116.901 163.664 116.913 163.84 116.89 164.013C116.868 164.187 116.812 164.354 116.726 164.505C116.64 164.657 116.526 164.789 116.389 164.895C116.252 165.002 116.096 165.079 115.93 165.124C115.763 165.169 115.59 165.18 115.419 165.156C115.249 165.132 115.084 165.074 114.936 164.986L111.636 163.051L112.733 167.202C112.777 167.371 112.788 167.546 112.766 167.719C112.744 167.891 112.688 168.058 112.602 168.208C112.516 168.359 112.402 168.491 112.266 168.597C112.13 168.703 111.975 168.781 111.81 168.826C111.644 168.871 111.471 168.882 111.301 168.86C111.131 168.837 110.968 168.78 110.819 168.693C110.671 168.606 110.541 168.49 110.436 168.352C110.332 168.214 110.255 168.056 110.211 167.888L108.439 161.175L101.823 157.298V165.057L106.661 169.97C106.786 170.092 106.885 170.239 106.954 170.4C107.022 170.562 107.058 170.736 107.06 170.912C107.061 171.088 107.028 171.263 106.963 171.426C106.897 171.588 106.8 171.737 106.678 171.861C106.555 171.986 106.41 172.084 106.249 172.151C106.089 172.217 105.917 172.251 105.744 172.25C105.571 172.248 105.399 172.212 105.24 172.142C105.081 172.073 104.937 171.972 104.816 171.845L101.823 168.805V172.674C101.823 173.026 101.685 173.363 101.441 173.612C101.196 173.86 100.864 174 100.518 174C100.172 174 99.8395 173.86 99.5947 173.612C99.35 173.363 99.2125 173.026 99.2125 172.674V168.804L96.2192 171.844C95.9717 172.078 95.6445 172.205 95.3063 172.199C94.9682 172.193 94.6456 172.054 94.4064 171.811C94.1673 171.568 94.0303 171.241 94.0243 170.897C94.0184 170.554 94.1439 170.222 94.3745 169.97L99.2125 165.057V157.296L92.5959 161.175L90.8243 167.888C90.7799 168.056 90.7034 168.214 90.5991 168.352C90.4948 168.49 90.3647 168.606 90.2162 168.693C90.0678 168.78 89.9039 168.837 89.734 168.86C89.5641 168.882 89.3914 168.871 89.2258 168.826C89.0602 168.781 88.905 168.703 88.769 168.597C88.633 168.491 88.5189 168.359 88.4331 168.208C88.3474 168.058 88.2918 167.891 88.2694 167.719C88.247 167.546 88.2583 167.371 88.3026 167.202L89.399 163.049L86.0994 164.986C85.7994 165.162 85.4429 165.209 85.1084 165.118C84.7738 165.027 84.4887 164.805 84.3156 164.5C84.1425 164.195 84.0957 163.833 84.1854 163.494C84.2752 163.154 84.4942 162.864 84.7942 162.688L88.0938 160.755L84.0041 159.641C83.8341 159.6 83.674 159.525 83.5332 159.42C83.3923 159.315 83.2737 159.183 83.1842 159.03C83.0948 158.878 83.0363 158.709 83.0123 158.533C82.9884 158.358 82.9994 158.179 83.0447 158.008C83.09 157.836 83.1687 157.676 83.2762 157.536C83.3836 157.396 83.5176 157.28 83.6702 157.193C83.8228 157.107 83.9909 157.053 84.1645 157.034C84.3381 157.015 84.5138 157.031 84.681 157.082L91.2907 158.88L97.9072 155L91.2907 151.12L84.681 152.92C84.5154 152.965 84.3426 152.976 84.1725 152.953C84.0025 152.931 83.8385 152.874 83.69 152.787C83.5415 152.7 83.4113 152.584 83.307 152.445C83.2026 152.307 83.1261 152.149 83.0817 151.981C83.0374 151.813 83.0261 151.637 83.0486 151.465C83.071 151.292 83.1267 151.126 83.2125 150.975C83.2983 150.824 83.4126 150.692 83.5487 150.586C83.6848 150.48 83.8401 150.402 84.0058 150.357L88.0938 149.245L84.7942 147.312C84.6456 147.225 84.5154 147.109 84.411 146.971C84.3065 146.832 84.2299 146.675 84.1854 146.506C84.141 146.338 84.1296 146.163 84.152 145.99C84.1743 145.817 84.2299 145.651 84.3156 145.5C84.4013 145.349 84.5154 145.217 84.6514 145.111C84.7875 145.005 84.9427 144.927 85.1084 144.882C85.4429 144.791 85.7994 144.838 86.0994 145.014L89.3972 146.951L88.3008 142.799C88.2113 142.46 88.2584 142.097 88.4317 141.793C88.605 141.488 88.8903 141.266 89.2249 141.175C89.5596 141.084 89.9161 141.132 90.216 141.308C90.5159 141.484 90.7347 141.774 90.8243 142.114L92.5941 148.826L99.2125 152.702V144.943L94.3745 140.03C94.1439 139.778 94.0184 139.446 94.0243 139.103C94.0303 138.759 94.1673 138.432 94.4064 138.189C94.6456 137.946 94.9682 137.807 95.3063 137.801C95.6445 137.795 95.9717 137.922 96.2192 138.156L99.2125 141.196V137.326C99.2125 136.974 99.35 136.637 99.5947 136.388C99.8395 136.14 100.172 136 100.518 136Z" fill="#30373E"/>
<path d="M94.7622 41.4458C99.2023 39.8987 103.872 39.1119 108.573 39.1185C113.315 39.1185 117.875 39.9088 122.131 41.3588M122.131 41.3588C138.357 46.905 150 62.1373 150 80.0593C150 102.672 131.454 121 108.573 121H36.0735C18.9127 121 5 107.254 5 90.2962C5 73.3385 18.9127 59.5925 36.0735 59.5853C38.0933 59.5855 40.1084 59.7797 42.091 60.1653M122.131 41.3588C119.818 20.9065 102.266 5 80.951 5C58.07 5 39.5245 23.328 39.5245 45.9408C39.5185 50.7979 40.3879 55.6164 42.091 60.1653M42.091 60.1653C46.1024 60.9443 49.921 62.5062 53.3285 64.7618" stroke="#30373E" stroke-width="10" stroke-linecap="round"/>
</svg>
