<svg width="155" height="174" viewBox="0 0 155 174" fill="none" xmlns="http://www.w3.org/2000/svg">
<path fill-rule="evenodd" clip-rule="evenodd" d="M77.5177 136C77.8638 136 78.1958 136.14 78.4406 136.388C78.6854 136.637 78.8229 136.974 78.8229 137.326V141.196L81.8162 138.156C82.0636 137.922 82.3909 137.795 82.729 137.801C83.0671 137.807 83.3898 137.946 83.6289 138.189C83.868 138.432 84.005 138.759 84.011 139.103C84.017 139.446 83.8914 139.778 83.6609 140.03L78.8229 144.943V152.704L85.4395 148.825L87.2111 142.112C87.2554 141.944 87.3319 141.786 87.4362 141.648C87.5406 141.51 87.6707 141.394 87.8191 141.307C87.9675 141.22 88.1314 141.163 88.3013 141.14C88.4713 141.118 88.6439 141.129 88.8095 141.174C88.9751 141.219 89.1303 141.297 89.2663 141.403C89.4023 141.509 89.5165 141.641 89.6022 141.792C89.6879 141.942 89.7436 142.109 89.766 142.281C89.7884 142.454 89.7771 142.629 89.7327 142.798L88.6364 146.951L91.936 145.016C92.2356 144.843 92.5904 144.797 92.923 144.889C93.2557 144.981 93.5391 145.202 93.7114 145.505C93.8837 145.808 93.931 146.168 93.8429 146.507C93.7548 146.845 93.5385 147.135 93.2412 147.312L89.9433 149.245L94.033 150.359C94.3674 150.45 94.6524 150.672 94.8254 150.977C94.9984 151.281 95.0451 151.643 94.9554 151.983C94.8656 152.323 94.6466 152.612 94.3467 152.788C94.0468 152.963 93.6904 153.011 93.356 152.92L86.7464 151.12L80.1281 155L86.7447 158.88L93.3543 157.08C93.6889 156.989 94.0454 157.037 94.3453 157.213C94.6453 157.389 94.8641 157.679 94.9536 158.019C95.0432 158.359 94.9961 158.721 94.8228 159.025C94.6495 159.33 94.3641 159.552 94.0295 159.643L89.9416 160.755L93.2412 162.69C93.3908 162.777 93.5221 162.892 93.6276 163.03C93.7331 163.168 93.8106 163.326 93.8557 163.495C93.9008 163.664 93.9126 163.84 93.8904 164.013C93.8682 164.187 93.8125 164.354 93.7264 164.505C93.6403 164.657 93.5256 164.789 93.3889 164.895C93.2522 165.002 93.0961 165.079 92.9297 165.124C92.7633 165.169 92.5898 165.18 92.4192 165.156C92.2487 165.132 92.0844 165.074 91.936 164.986L88.6364 163.051L89.7327 167.202C89.7771 167.371 89.7884 167.546 89.766 167.719C89.7436 167.891 89.6879 168.058 89.6022 168.208C89.5165 168.359 89.4023 168.491 89.2663 168.597C89.1303 168.703 88.9751 168.781 88.8095 168.826C88.6439 168.871 88.4713 168.882 88.3013 168.86C88.1314 168.837 87.9675 168.78 87.8191 168.693C87.6707 168.606 87.5406 168.49 87.4362 168.352C87.3319 168.214 87.2554 168.056 87.2111 167.888L85.4395 161.175L78.8229 157.298V165.057L83.6609 169.97C83.7856 170.092 83.8851 170.239 83.9536 170.4C84.0221 170.562 84.0581 170.736 84.0597 170.912C84.0613 171.088 84.0284 171.263 83.9628 171.426C83.8973 171.588 83.8004 171.737 83.6779 171.861C83.5554 171.986 83.4098 172.084 83.2494 172.151C83.089 172.217 82.9172 172.251 82.7438 172.25C82.5705 172.248 82.3993 172.212 82.24 172.142C82.0807 172.073 81.9366 171.972 81.8162 171.845L78.8229 168.805V172.674C78.8229 173.026 78.6854 173.363 78.4406 173.612C78.1958 173.86 77.8638 174 77.5177 174C77.1715 174 76.8395 173.86 76.5947 173.612C76.35 173.363 76.2125 173.026 76.2125 172.674V168.804L73.2192 171.844C72.9717 172.078 72.6445 172.205 72.3063 172.199C71.9682 172.193 71.6456 172.054 71.4064 171.811C71.1673 171.568 71.0303 171.241 71.0243 170.897C71.0184 170.554 71.1439 170.222 71.3745 169.97L76.2125 165.057V157.296L69.5959 161.175L67.8243 167.888C67.7799 168.056 67.7034 168.214 67.5991 168.352C67.4948 168.49 67.3647 168.606 67.2162 168.693C67.0678 168.78 66.9039 168.837 66.734 168.86C66.5641 168.882 66.3914 168.871 66.2258 168.826C66.0602 168.781 65.905 168.703 65.769 168.597C65.633 168.491 65.5189 168.359 65.4331 168.208C65.3474 168.058 65.2918 167.891 65.2694 167.719C65.247 167.546 65.2583 167.371 65.3026 167.202L66.399 163.049L63.0994 164.986C62.7994 165.162 62.4429 165.209 62.1084 165.118C61.7738 165.027 61.4887 164.805 61.3156 164.5C61.1425 164.195 61.0957 163.833 61.1854 163.494C61.2752 163.154 61.4942 162.864 61.7942 162.688L65.0938 160.755L61.0041 159.641C60.8341 159.6 60.674 159.525 60.5332 159.42C60.3923 159.315 60.2737 159.183 60.1842 159.03C60.0948 158.878 60.0363 158.709 60.0123 158.533C59.9884 158.358 59.9994 158.179 60.0447 158.008C60.09 157.836 60.1687 157.676 60.2762 157.536C60.3836 157.396 60.5176 157.28 60.6702 157.193C60.8228 157.107 60.9909 157.053 61.1645 157.034C61.3381 157.015 61.5138 157.031 61.681 157.082L68.2907 158.88L74.9072 155L68.2907 151.12L61.681 152.92C61.5154 152.965 61.3426 152.976 61.1725 152.953C61.0025 152.931 60.8385 152.874 60.69 152.787C60.5415 152.7 60.4113 152.584 60.307 152.445C60.2026 152.307 60.1261 152.149 60.0817 151.981C60.0374 151.813 60.0261 151.637 60.0486 151.465C60.071 151.292 60.1267 151.126 60.2125 150.975C60.2983 150.824 60.4126 150.692 60.5487 150.586C60.6848 150.48 60.8401 150.402 61.0058 150.357L65.0938 149.245L61.7942 147.312C61.6456 147.225 61.5154 147.109 61.411 146.971C61.3065 146.832 61.2299 146.675 61.1854 146.506C61.141 146.338 61.1296 146.163 61.152 145.99C61.1743 145.817 61.2299 145.651 61.3156 145.5C61.4013 145.349 61.5154 145.217 61.6514 145.111C61.7875 145.005 61.9427 144.927 62.1084 144.882C62.4429 144.791 62.7994 144.838 63.0994 145.014L66.3972 146.951L65.3008 142.799C65.2113 142.46 65.2584 142.097 65.4317 141.793C65.605 141.488 65.8903 141.266 66.2249 141.175C66.5596 141.084 66.9161 141.132 67.216 141.308C67.5159 141.484 67.7347 141.774 67.8243 142.114L69.5941 148.826L76.2125 152.702V144.943L71.3745 140.03C71.1439 139.778 71.0184 139.446 71.0243 139.103C71.0303 138.759 71.1673 138.432 71.4064 138.189C71.6456 137.946 71.9682 137.807 72.3063 137.801C72.6445 137.795 72.9717 137.922 73.2192 138.156L76.2125 141.196V137.326C76.2125 136.974 76.35 136.637 76.5947 136.388C76.8395 136.14 77.1715 136 77.5177 136Z" fill="#30373E"/>
<path d="M94.7622 41.4458C99.2023 39.8987 103.872 39.1119 108.573 39.1185C113.315 39.1185 117.875 39.9088 122.131 41.3588M122.131 41.3588C138.357 46.905 150 62.1373 150 80.0593C150 102.672 131.454 121 108.573 121H36.0735C18.9127 121 5 107.254 5 90.2962C5 73.3385 18.9127 59.5925 36.0735 59.5853C38.0933 59.5855 40.1084 59.7797 42.091 60.1653M122.131 41.3588C119.818 20.9065 102.266 5 80.951 5C58.07 5 39.5245 23.328 39.5245 45.9408C39.5185 50.7979 40.3879 55.6164 42.091 60.1653M42.091 60.1653C46.1024 60.9443 49.921 62.5062 53.3285 64.7618" stroke="#30373E" stroke-width="10" stroke-linecap="round"/>
</svg>
