<svg width="155" height="166" viewBox="0 0 155 166" fill="none" xmlns="http://www.w3.org/2000/svg">
<path fill-rule="evenodd" clip-rule="evenodd" d="M63.5136 136C63.7807 136 64.0368 136.107 64.2256 136.296C64.4144 136.486 64.5205 136.743 64.5205 137.012V139.966L66.8296 137.646C67.0205 137.467 67.2729 137.37 67.5338 137.374C67.7946 137.379 68.0435 137.485 68.228 137.67C68.4125 137.856 68.5182 138.106 68.5228 138.368C68.5274 138.63 68.4305 138.884 68.2527 139.075L64.5205 142.825V148.748L69.6247 145.787L70.9914 140.664C71.0256 140.536 71.0846 140.416 71.1651 140.31C71.2456 140.205 71.3459 140.116 71.4604 140.05C71.5749 139.983 71.7014 139.94 71.8324 139.923C71.9635 139.906 72.0968 139.914 72.2245 139.949C72.3522 139.983 72.472 140.042 72.5769 140.123C72.6818 140.204 72.7698 140.305 72.836 140.42C72.9021 140.535 72.945 140.662 72.9623 140.794C72.9796 140.925 72.9709 141.059 72.9367 141.188L72.0909 144.357L74.6363 142.88C74.8674 142.748 75.1412 142.714 75.3978 142.784C75.6544 142.854 75.873 143.023 76.0059 143.254C76.1389 143.485 76.1754 143.76 76.1074 144.018C76.0394 144.277 75.8726 144.497 75.6432 144.633L73.0991 146.108L76.254 146.958C76.512 147.028 76.7319 147.197 76.8653 147.43C76.9988 147.662 77.0348 147.938 76.9656 148.198C76.8963 148.457 76.7274 148.678 76.496 148.812C76.2647 148.946 75.9898 148.982 75.7318 148.912L70.6329 147.539L65.5274 150.5L70.6316 153.461L75.7304 152.088C75.9886 152.018 76.2636 152.055 76.495 152.189C76.7263 152.323 76.8951 152.544 76.9642 152.804C77.0333 153.063 76.997 153.339 76.8633 153.572C76.7296 153.804 76.5095 153.974 76.2513 154.043L73.0978 154.892L75.6432 156.369C75.7586 156.435 75.8599 156.523 75.9413 156.628C76.0226 156.734 76.0824 156.854 76.1172 156.983C76.152 157.112 76.1611 157.246 76.144 157.379C76.1269 157.511 76.0839 157.639 76.0175 157.754C75.9511 157.87 75.8626 157.971 75.7571 158.052C75.6517 158.133 75.5313 158.192 75.4029 158.226C75.2745 158.26 75.1407 158.269 75.0091 158.251C74.8776 158.232 74.7509 158.188 74.6363 158.121L72.0909 156.644L72.9367 159.812C72.9709 159.941 72.9796 160.075 72.9623 160.206C72.945 160.338 72.9021 160.465 72.836 160.58C72.7698 160.695 72.6818 160.796 72.5769 160.877C72.472 160.958 72.3522 161.017 72.2245 161.051C72.0968 161.086 71.9635 161.094 71.8324 161.077C71.7014 161.06 71.5749 161.017 71.4604 160.95C71.3459 160.884 71.2456 160.795 71.1651 160.69C71.0846 160.584 71.0256 160.464 70.9914 160.336L69.6247 155.213L64.5205 152.253V158.175L68.2527 161.925C68.3489 162.018 68.4256 162.13 68.4785 162.253C68.5313 162.376 68.5591 162.509 68.5604 162.643C68.5616 162.778 68.5362 162.911 68.4856 163.035C68.435 163.16 68.3603 163.273 68.2658 163.368C68.1713 163.463 68.059 163.538 67.9352 163.589C67.8115 163.64 67.6789 163.665 67.5453 163.664C67.4116 163.663 67.2794 163.635 67.1566 163.582C67.0337 163.529 66.9226 163.452 66.8296 163.356L64.5205 161.036V163.988C64.5205 164.257 64.4144 164.514 64.2256 164.704C64.0368 164.893 63.7807 165 63.5136 165C63.2466 165 62.9905 164.893 62.8017 164.704C62.6128 164.514 62.5067 164.257 62.5067 163.988V161.034L60.1976 163.354C60.0068 163.533 59.7543 163.63 59.4935 163.626C59.2326 163.621 58.9837 163.515 58.7992 163.33C58.6148 163.144 58.5091 162.894 58.5045 162.632C58.4999 162.37 58.5967 162.116 58.7746 161.925L62.5067 158.175V152.252L57.4025 155.213L56.0359 160.336C56.0017 160.464 55.9426 160.584 55.8622 160.69C55.7817 160.795 55.6813 160.884 55.5668 160.95C55.4523 161.017 55.3259 161.06 55.1948 161.077C55.0637 161.094 54.9305 161.086 54.8028 161.051C54.675 161.017 54.5553 160.958 54.4504 160.877C54.3455 160.796 54.2574 160.695 54.1913 160.58C54.1252 160.465 54.0822 160.338 54.0649 160.206C54.0477 160.075 54.0564 159.941 54.0906 159.812L54.9363 156.643L52.391 158.121C52.1595 158.255 51.8845 158.291 51.6265 158.222C51.3684 158.152 51.1484 157.983 51.0149 157.75C50.8814 157.517 50.8452 157.241 50.9145 156.982C50.9837 156.723 51.1526 156.502 51.3841 156.367L53.9295 154.892L50.7746 154.042C50.6435 154.011 50.5199 153.953 50.4113 153.873C50.3027 153.793 50.2111 153.692 50.1421 153.576C50.0731 153.46 50.028 153.331 50.0095 153.197C49.991 153.062 49.9995 152.926 50.0345 152.795C50.0694 152.665 50.1302 152.542 50.213 152.435C50.2959 152.329 50.3993 152.24 50.517 152.174C50.6347 152.108 50.7644 152.067 50.8983 152.052C51.0323 152.037 51.1678 152.05 51.2968 152.089L56.3957 153.461L61.4999 150.5L56.3957 147.539L51.2968 148.912C51.169 148.947 51.0357 148.956 50.9045 148.938C50.7733 148.921 50.6469 148.878 50.5323 148.811C50.4177 148.745 50.3173 148.656 50.2368 148.55C50.1563 148.445 50.0972 148.325 50.063 148.196C50.0288 148.068 50.0201 147.934 50.0375 147.802C50.0548 147.67 50.0978 147.543 50.164 147.428C50.2302 147.313 50.3183 147.212 50.4233 147.131C50.5283 147.05 50.6481 146.991 50.7759 146.957L53.9295 146.108L51.3841 144.633C51.2695 144.566 51.169 144.478 51.0885 144.372C51.0079 144.267 50.9488 144.146 50.9145 144.018C50.8802 143.89 50.8714 143.756 50.8886 143.624C50.9059 143.492 50.9488 143.365 51.0149 143.25C51.081 143.135 51.169 143.034 51.274 142.953C51.3789 142.872 51.4987 142.813 51.6265 142.778C51.8845 142.709 52.1595 142.745 52.391 142.879L54.935 144.357L54.0892 141.189C54.0201 140.93 54.0565 140.653 54.1901 140.421C54.3238 140.188 54.544 140.019 54.8021 139.949C55.0602 139.88 55.3352 139.916 55.5666 140.051C55.798 140.185 55.9668 140.406 56.0359 140.666L57.4012 145.789L62.5067 148.747V142.825L58.7746 139.075C58.5967 138.884 58.4999 138.63 58.5045 138.368C58.5091 138.106 58.6148 137.856 58.7992 137.67C58.9837 137.485 59.2326 137.379 59.4935 137.374C59.7543 137.37 60.0068 137.467 60.1976 137.646L62.5067 139.966V137.012C62.5067 136.743 62.6128 136.486 62.8017 136.296C62.9905 136.107 63.2466 136 63.5136 136Z" fill="#30373E"/>
<path fill-rule="evenodd" clip-rule="evenodd" d="M29.5136 136C29.7807 136 30.0368 136.107 30.2256 136.296C30.4144 136.486 30.5205 136.743 30.5205 137.012V139.966L32.8296 137.646C33.0205 137.467 33.2729 137.37 33.5338 137.374C33.7946 137.379 34.0435 137.485 34.228 137.67C34.4125 137.856 34.5182 138.106 34.5228 138.368C34.5274 138.63 34.4305 138.884 34.2527 139.075L30.5205 142.825V148.748L35.6247 145.787L36.9914 140.664C37.0256 140.536 37.0846 140.416 37.1651 140.31C37.2456 140.205 37.3459 140.116 37.4604 140.05C37.5749 139.983 37.7014 139.94 37.8324 139.923C37.9635 139.906 38.0968 139.914 38.2245 139.949C38.3522 139.983 38.472 140.042 38.5769 140.123C38.6818 140.204 38.7698 140.305 38.836 140.42C38.9021 140.535 38.945 140.662 38.9623 140.794C38.9796 140.925 38.9709 141.059 38.9367 141.188L38.0909 144.357L40.6363 142.88C40.8674 142.748 41.1412 142.714 41.3978 142.784C41.6544 142.854 41.873 143.023 42.0059 143.254C42.1389 143.485 42.1754 143.76 42.1074 144.018C42.0394 144.277 41.8726 144.497 41.6432 144.633L39.0991 146.108L42.254 146.958C42.512 147.028 42.7319 147.197 42.8653 147.43C42.9988 147.662 43.0348 147.938 42.9656 148.198C42.8963 148.457 42.7274 148.678 42.496 148.812C42.2647 148.946 41.9898 148.982 41.7318 148.912L36.6329 147.539L31.5274 150.5L36.6316 153.461L41.7304 152.088C41.9886 152.018 42.2636 152.055 42.495 152.189C42.7263 152.323 42.8951 152.544 42.9642 152.804C43.0333 153.063 42.997 153.339 42.8633 153.572C42.7296 153.804 42.5095 153.974 42.2513 154.043L39.0978 154.892L41.6432 156.369C41.7586 156.435 41.8599 156.523 41.9413 156.628C42.0226 156.734 42.0824 156.854 42.1172 156.983C42.152 157.112 42.1611 157.246 42.144 157.379C42.1269 157.511 42.0839 157.639 42.0175 157.754C41.9511 157.87 41.8626 157.971 41.7571 158.052C41.6517 158.133 41.5313 158.192 41.4029 158.226C41.2745 158.26 41.1407 158.269 41.0091 158.251C40.8776 158.232 40.7509 158.188 40.6363 158.121L38.0909 156.644L38.9367 159.812C38.9709 159.941 38.9796 160.075 38.9623 160.206C38.945 160.338 38.9021 160.465 38.836 160.58C38.7698 160.695 38.6818 160.796 38.5769 160.877C38.472 160.958 38.3522 161.017 38.2245 161.051C38.0968 161.086 37.9635 161.094 37.8324 161.077C37.7014 161.06 37.5749 161.017 37.4604 160.95C37.3459 160.884 37.2456 160.795 37.1651 160.69C37.0846 160.584 37.0256 160.464 36.9914 160.336L35.6247 155.213L30.5205 152.253V158.175L34.2527 161.925C34.3489 162.018 34.4256 162.13 34.4785 162.253C34.5313 162.376 34.5591 162.509 34.5604 162.643C34.5616 162.778 34.5362 162.911 34.4856 163.035C34.435 163.16 34.3603 163.273 34.2658 163.368C34.1713 163.463 34.059 163.538 33.9352 163.589C33.8115 163.64 33.6789 163.665 33.5453 163.664C33.4116 163.663 33.2794 163.635 33.1566 163.582C33.0337 163.529 32.9226 163.452 32.8296 163.356L30.5205 161.036V163.988C30.5205 164.257 30.4144 164.514 30.2256 164.704C30.0368 164.893 29.7807 165 29.5136 165C29.2466 165 28.9905 164.893 28.8017 164.704C28.6128 164.514 28.5067 164.257 28.5067 163.988V161.034L26.1976 163.354C26.0068 163.533 25.7543 163.63 25.4935 163.626C25.2326 163.621 24.9837 163.515 24.7992 163.33C24.6148 163.144 24.5091 162.894 24.5045 162.632C24.4999 162.37 24.5967 162.116 24.7746 161.925L28.5067 158.175V152.252L23.4025 155.213L22.0359 160.336C22.0017 160.464 21.9426 160.584 21.8622 160.69C21.7817 160.795 21.6813 160.884 21.5668 160.95C21.4523 161.017 21.3259 161.06 21.1948 161.077C21.0637 161.094 20.9305 161.086 20.8028 161.051C20.675 161.017 20.5553 160.958 20.4504 160.877C20.3455 160.796 20.2574 160.695 20.1913 160.58C20.1252 160.465 20.0822 160.338 20.0649 160.206C20.0477 160.075 20.0564 159.941 20.0906 159.812L20.9363 156.643L18.391 158.121C18.1595 158.255 17.8845 158.291 17.6265 158.222C17.3684 158.152 17.1484 157.983 17.0149 157.75C16.8814 157.517 16.8452 157.241 16.9145 156.982C16.9837 156.723 17.1526 156.502 17.3841 156.367L19.9295 154.892L16.7746 154.042C16.6435 154.011 16.5199 153.953 16.4113 153.873C16.3027 153.793 16.2111 153.692 16.1421 153.576C16.0731 153.46 16.028 153.331 16.0095 153.197C15.991 153.062 15.9995 152.926 16.0345 152.795C16.0694 152.665 16.1302 152.542 16.213 152.435C16.2959 152.329 16.3993 152.24 16.517 152.174C16.6347 152.108 16.7644 152.067 16.8983 152.052C17.0323 152.037 17.1678 152.05 17.2968 152.089L22.3957 153.461L27.4999 150.5L22.3957 147.539L17.2968 148.912C17.169 148.947 17.0357 148.956 16.9045 148.938C16.7733 148.921 16.6469 148.878 16.5323 148.811C16.4177 148.745 16.3173 148.656 16.2368 148.55C16.1563 148.445 16.0972 148.325 16.063 148.196C16.0288 148.068 16.0201 147.934 16.0375 147.802C16.0548 147.67 16.0978 147.543 16.164 147.428C16.2302 147.313 16.3183 147.212 16.4233 147.131C16.5283 147.05 16.6481 146.991 16.7759 146.957L19.9295 146.108L17.3841 144.633C17.2695 144.566 17.169 144.478 17.0885 144.372C17.0079 144.267 16.9488 144.146 16.9145 144.018C16.8802 143.89 16.8714 143.756 16.8886 143.624C16.9059 143.492 16.9488 143.365 17.0149 143.25C17.081 143.135 17.169 143.034 17.274 142.953C17.3789 142.872 17.4987 142.813 17.6265 142.778C17.8845 142.709 18.1595 142.745 18.391 142.879L20.935 144.357L20.0892 141.189C20.0201 140.93 20.0565 140.653 20.1901 140.421C20.3238 140.188 20.544 140.019 20.8021 139.949C21.0602 139.88 21.3352 139.916 21.5666 140.051C21.798 140.185 21.9668 140.406 22.0359 140.666L23.4012 145.789L28.5067 148.747V142.825L24.7746 139.075C24.5967 138.884 24.4999 138.63 24.5045 138.368C24.5091 138.106 24.6148 137.856 24.7992 137.67C24.9837 137.485 25.2326 137.379 25.4935 137.374C25.7543 137.37 26.0068 137.467 26.1976 137.646L28.5067 139.966V137.012C28.5067 136.743 28.6128 136.486 28.8017 136.296C28.9905 136.107 29.2466 136 29.5136 136Z" fill="#30373E"/>
<path d="M94.7622 41.4458C99.2023 39.8987 103.872 39.1119 108.573 39.1185C113.315 39.1185 117.875 39.9088 122.131 41.3588M122.131 41.3588C138.357 46.905 150 62.1373 150 80.0593C150 102.672 131.454 121 108.573 121H36.0735C18.9127 121 5 107.254 5 90.2962C5 73.3385 18.9127 59.5925 36.0735 59.5853C38.0933 59.5855 40.1084 59.7797 42.091 60.1653M122.131 41.3588C119.818 20.9065 102.266 5 80.951 5C58.07 5 39.5245 23.328 39.5245 45.9408C39.5185 50.7979 40.3879 55.6164 42.091 60.1653M42.091 60.1653C46.1024 60.9443 49.921 62.5062 53.3285 64.7618" stroke="#30373E" stroke-width="10" stroke-linecap="round"/>
<line x1="133" y1="146" x2="92" y2="146" stroke="#30373E" stroke-width="8"/>
<line x1="120" y1="162" x2="92" y2="162" stroke="#30373E" stroke-width="8"/>
</svg>
