<svg width="170" height="182" viewBox="0 0 170 182" fill="none" xmlns="http://www.w3.org/2000/svg">
<path opacity="0.5" d="M92 60.5C92 68.8543 88.6813 76.8665 82.7739 82.7739C76.8665 88.6813 68.8543 92 60.5 92C52.1457 92 44.1335 88.6813 38.2261 82.7739C32.3187 76.8665 29 68.8543 29 60.5C29 52.1457 32.3187 44.1335 38.2261 38.2261C44.1335 32.3187 52.1457 29 60.5 29C68.8543 29 76.8665 32.3187 82.7739 38.2261C88.6813 44.1335 92 52.1457 92 60.5Z" fill="#746800"/>
<path opacity="0.5" fill-rule="evenodd" clip-rule="evenodd" d="M55.6763 0C57.4482 0 59.1476 0.704491 60.4006 1.95849C61.6535 3.2125 62.3574 4.91329 62.3574 6.68671V11.1445C62.3574 12.918 61.6535 14.6187 60.4006 15.8727C59.1476 17.1267 57.4482 17.8312 55.6763 17.8312C53.9043 17.8312 52.2049 17.1267 50.952 15.8727C49.699 14.6187 48.9951 12.918 48.9951 11.1445V6.68671C48.9951 4.91329 49.699 3.2125 50.952 1.95849C52.2049 0.704491 53.9043 0 55.6763 0ZM16.302 16.3156C16.9226 15.6929 17.6599 15.1988 18.4716 14.8617C19.2833 14.5246 20.1535 14.3511 21.0323 14.3511C21.9111 14.3511 22.7812 14.5246 23.5929 14.8617C24.4046 15.1988 25.1419 15.6929 25.7625 16.3156L27.6867 18.2503C28.9031 19.512 29.5758 21.2014 29.5597 22.9546C29.5437 24.7078 28.8403 26.3846 27.6009 27.6238C26.3616 28.863 24.6855 29.5655 22.9337 29.5799C21.182 29.5943 19.4946 28.9195 18.2351 27.7008L16.3109 25.7751C15.0598 24.5213 14.357 22.8218 14.357 21.0498C14.357 19.2778 15.0598 17.5783 16.3109 16.3245L16.302 16.3156ZM95.0416 16.3156C95.6625 16.9366 96.155 17.6739 96.491 18.4854C96.827 19.297 97 20.1668 97 21.0453C97 21.9238 96.827 22.7937 96.491 23.6052C96.155 24.4168 95.6625 25.1541 95.0416 25.7751L93.1174 27.7008C92.5058 28.3578 91.7682 28.8847 90.9486 29.2502C90.1291 29.6157 89.2444 29.8122 88.3473 29.828C87.4502 29.8439 86.5591 29.6787 85.7272 29.3424C84.8953 29.0061 84.1396 28.5055 83.5052 27.8706C82.8707 27.2356 82.3706 26.4793 82.0346 25.6466C81.6985 24.814 81.5335 23.9222 81.5493 23.0244C81.5652 22.1266 81.7615 21.2411 82.1267 20.4209C82.4918 19.6007 83.0183 18.8624 83.6747 18.2503L85.59 16.3245C86.2105 15.7031 86.9472 15.2102 87.7581 14.8739C88.5689 14.5376 89.4381 14.3645 90.3158 14.3645C91.1936 14.3645 92.0627 14.5376 92.8736 14.8739C93.6844 15.2102 94.4212 15.7031 95.0416 16.3245V16.3156ZM0 55.7226C0 53.9492 0.703905 52.2484 1.95686 50.9944C3.20982 49.7404 4.9092 49.0359 6.68115 49.0359H11.1353C12.9072 49.0359 14.6066 49.7404 15.8595 50.9944C17.1125 52.2484 17.8164 53.9492 17.8164 55.7226C17.8164 57.496 17.1125 59.1968 15.8595 60.4508C14.6066 61.7048 12.9072 62.4093 11.1353 62.4093H6.68115C4.9092 62.4093 3.20982 61.7048 1.95686 60.4508C0.703905 59.1968 0 57.496 0 55.7226ZM27.6867 83.7444C28.9379 84.9982 29.6406 86.6977 29.6406 88.4697C29.6406 90.2417 28.9379 91.9412 27.6867 93.195L25.7625 95.1207C24.503 96.3394 22.8157 97.0142 21.0639 96.9998C19.3121 96.9854 17.636 96.2829 16.3967 95.0437C15.1574 93.8045 14.4539 92.1278 14.4379 90.3745C14.4218 88.6213 15.0945 86.9319 16.3109 85.6702L18.2351 83.7444C19.4878 82.4922 21.1859 81.7889 22.9564 81.7889C24.7269 81.7889 26.434 82.4922 27.6867 83.7444Z" fill="#746800"/>
<path opacity="0.5" d="M126.681 151.6C150.469 151.6 169.75 132.545 169.75 109.036C169.75 90.403 157.637 74.5667 140.768 68.8006C138.371 47.5373 120.116 31 97.9628 31C74.1745 31 54.8936 50.0548 54.8936 73.5643C54.8936 78.7651 55.8358 83.7399 57.5619 88.3528C55.5006 87.9522 53.4056 87.7503 51.3057 87.7498C33.4645 87.7574 19 102.048 19 119.679C19 137.309 33.4645 151.6 51.3057 151.6H126.681Z" fill="#525252"/>
<path d="M76.4809 147.567L85.134 135.847C90.7343 128.271 93.5307 124.488 96.1387 125.294C98.7467 126.086 98.7467 130.736 98.7467 140.022V140.897C98.7467 144.251 98.7467 145.924 99.817 146.98L99.8773 147.032C100.97 148.057 102.711 148.057 106.194 148.057C112.465 148.057 115.601 148.057 116.671 149.964C116.686 149.994 116.701 150.025 116.716 150.055C117.719 151.992 115.902 154.449 112.269 159.364L103.616 171.084C98.0156 178.66 95.2191 182.451 92.6112 181.644C90.0032 180.846 90.0032 176.202 90.0032 166.909V166.034C90.0032 162.688 90.0032 161.007 88.9329 159.959L88.8726 159.906C87.7796 158.874 86.0385 158.874 82.5561 158.874C76.2849 158.874 73.1493 158.874 72.079 156.974C72.0634 156.942 72.0483 156.909 72.0338 156.876C71.0313 154.947 72.8478 152.482 76.4809 147.567Z" fill="#30373E"/>
</svg>
